<?xml version="1.0" encoding="UTF-8" standalone="no"?>
<!DOCTYPE svg PUBLIC "-//W3C//DTD SVG 1.1//EN"
 "http://www.w3.org/Graphics/SVG/1.1/DTD/svg11.dtd">
<!-- Generated by graphviz version 2.40.1 (20161225.0304)
 -->
<!-- Title: Dev Tools Pages: 1 -->
<svg width="557pt" height="188pt"
 viewBox="0.00 0.00 557.44 188.00" xmlns="http://www.w3.org/2000/svg" xmlns:xlink="http://www.w3.org/1999/xlink">
<g id="graph0" class="graph" transform="scale(1 1) rotate(0) translate(4 184)">
<title>Dev Tools</title>
<polygon fill="#ffffff" stroke="transparent" points="-4,4 -4,-184 553.4377,-184 553.4377,4 -4,4"/>
<!-- Guide_Book -->
<g id="node1" class="node">
<title>Guide_Book</title>
<g id="a_node1"><a xlink:href="https://developer.holochain.org/guide/latest/" xlink:title="Guide_Book">
<ellipse fill="none" stroke="#000000" cx="275.4435" cy="-162" rx="65.7887" ry="18"/>
<text text-anchor="middle" x="275.4435" y="-158.3" font-family="Times,serif" font-size="14.00" fill="#000000">Guide_Book</text>
</a>
</g>
</g>
<!-- searcher_js -->
<g id="node2" class="node">
<title>searcher_js</title>
<g id="a_node2"><a xlink:href="https://developer.holochain.org/guide/latest/searcher.js" xlink:title="searcher_js">
<ellipse fill="none" stroke="#000000" cx="212.4435" cy="-90" rx="63.8893" ry="18"/>
<text text-anchor="middle" x="212.4435" y="-86.3" font-family="Times,serif" font-size="14.00" fill="#000000">searcher_js</text>
</a>
</g>
</g>
<!-- Guide_Book&#45;&gt;searcher_js -->
<g id="edge1" class="edge">
<title>Guide_Book&#45;&gt;searcher_js</title>
<path fill="none" stroke="#000000" d="M259.8704,-144.2022C252.2413,-135.4832 242.9207,-124.8311 234.5678,-115.2849"/>
<polygon fill="#000000" stroke="#000000" points="237.0565,-112.814 227.8374,-107.593 231.7884,-117.4236 237.0565,-112.814"/>
</g>
<!-- book_js -->
<g id="node5" class="node">
<title>book_js</title>
<g id="a_node5"><a xlink:href="https://developer.holochain.org/guide/latest/book.js" xlink:title="book_js">
<ellipse fill="none" stroke="#000000" cx="339.4435" cy="-90" rx="44.6926" ry="18"/>
<text text-anchor="middle" x="339.4435" y="-86.3" font-family="Times,serif" font-size="14.00" fill="#000000">book_js</text>
</a>
</g>
</g>
<!-- Guide_Book&#45;&gt;book_js -->
<g id="edge4" class="edge">
<title>Guide_Book&#45;&gt;book_js</title>
<path fill="none" stroke="#000000" d="M291.2637,-144.2022C299.1296,-135.3531 308.7655,-124.5127 317.3473,-114.8583"/>
<polygon fill="#000000" stroke="#000000" points="320.2182,-116.8966 324.246,-107.0972 314.9863,-112.2461 320.2182,-116.8966"/>
</g>
<!-- Elasticlunr_js -->
<g id="node3" class="node">
<title>Elasticlunr_js</title>
<g id="a_node3"><a xlink:href="http://elasticlunr.com/" xlink:title="Elasticlunr_js">
<ellipse fill="none" stroke="#000000" cx="73.4435" cy="-18" rx="73.387" ry="18"/>
<text text-anchor="middle" x="73.4435" y="-14.3" font-family="Times,serif" font-size="14.00" fill="#000000">Elasticlunr_js</text>
</a>
</g>
</g>
<!-- searcher_js&#45;&gt;Elasticlunr_js -->
<g id="edge2" class="edge">
<title>searcher_js&#45;&gt;Elasticlunr_js</title>
<path fill="none" stroke="#000000" d="M181.5949,-74.0209C161.7195,-63.7257 135.6604,-50.2275 114.1021,-39.0606"/>
<polygon fill="#000000" stroke="#000000" points="115.6589,-35.9253 105.1695,-34.4336 112.4392,-42.141 115.6589,-35.9253"/>
</g>
<!-- Mark_js -->
<g id="node4" class="node">
<title>Mark_js</title>
<g id="a_node4"><a xlink:href="https://markjs.io/" xlink:title="Mark_js">
<ellipse fill="none" stroke="#000000" cx="212.4435" cy="-18" rx="47.3916" ry="18"/>
<text text-anchor="middle" x="212.4435" y="-14.3" font-family="Times,serif" font-size="14.00" fill="#000000">Mark_js</text>
</a>
</g>
</g>
<!-- searcher_js&#45;&gt;Mark_js -->
<g id="edge3" class="edge">
<title>searcher_js&#45;&gt;Mark_js</title>
<path fill="none" stroke="#000000" d="M212.4435,-71.8314C212.4435,-64.131 212.4435,-54.9743 212.4435,-46.4166"/>
<polygon fill="#000000" stroke="#000000" points="215.9436,-46.4132 212.4435,-36.4133 208.9436,-46.4133 215.9436,-46.4132"/>
</g>
<!-- clipboardjs -->
<g id="node6" class="node">
<title>clipboardjs</title>
<g id="a_node6"><a xlink:href="https://clipboardjs.com/" xlink:title="clipboardjs">
<ellipse fill="none" stroke="#000000" cx="339.4435" cy="-18" rx="61.99" ry="18"/>
<text text-anchor="middle" x="339.4435" y="-14.3" font-family="Times,serif" font-size="14.00" fill="#000000">clipboardjs</text>
</a>
</g>
</g>
<!-- book_js&#45;&gt;clipboardjs -->
<g id="edge5" class="edge">
<title>book_js&#45;&gt;clipboardjs</title>
<path fill="none" stroke="#000000" d="M339.4435,-71.8314C339.4435,-64.131 339.4435,-54.9743 339.4435,-46.4166"/>
<polygon fill="#000000" stroke="#000000" points="342.9436,-46.4132 339.4435,-36.4133 335.9436,-46.4133 342.9436,-46.4132"/>
</g>
<!-- highlight_js -->
<g id="node7" class="node">
<title>highlight_js</title>
<g id="a_node7"><a xlink:href="https://highlightjs.org/" xlink:title="highlight_js">
<ellipse fill="none" stroke="#000000" cx="484.4435" cy="-18" rx="64.9885" ry="18"/>
<text text-anchor="middle" x="484.4435" y="-14.3" font-family="Times,serif" font-size="14.00" fill="#000000">highlight_js</text>
</a>
</g>
</g>
<!-- book_js&#45;&gt;highlight_js -->
<g id="edge6" class="edge">
<title>book_js&#45;&gt;highlight_js</title>
<path fill="none" stroke="#000000" d="M367.7452,-75.9468C389.3771,-65.2054 419.4981,-50.2487 443.7199,-38.2214"/>
<polygon fill="#000000" stroke="#000000" points="445.2843,-41.3524 452.6842,-33.7701 442.171,-35.0828 445.2843,-41.3524"/>
</g>
</g>
</svg>
