<?xml version="1.0" encoding="UTF-8" standalone="no"?>
<!DOCTYPE svg PUBLIC "-//W3C//DTD SVG 1.1//EN"
 "http://www.w3.org/Graphics/SVG/1.1/DTD/svg11.dtd">
<!-- Generated by graphviz version 2.40.1 (20161225.0304)
 -->
<!-- Title: Software Flow Pages: 1 -->
<svg width="1394pt" height="1196pt"
 viewBox="0.00 0.00 1394.00 1196.00" xmlns="http://www.w3.org/2000/svg" xmlns:xlink="http://www.w3.org/1999/xlink">
<g id="graph0" class="graph" transform="scale(1 1) rotate(0) translate(4 1192)">
<title>Software Flow</title>
<polygon fill="#ffffff" stroke="transparent" points="-4,4 -4,-1192 1390,-1192 1390,4 -4,4"/>
<!-- Whitepapers -->
<g id="node1" class="node">
<title>Whitepapers</title>
<g id="a_node1"><a xlink:href="https://holo.host/whitepapers/" xlink:title="Whitepapers">
<ellipse fill="none" stroke="#000000" cx="1094" cy="-1170" rx="69.5877" ry="18"/>
<text text-anchor="middle" x="1094" y="-1166.3" font-family="Times,serif" font-size="14.00" fill="#000000">Whitepapers</text>
</a>
</g>
</g>
<!-- Source_Code -->
<g id="node2" class="node">
<title>Source_Code</title>
<g id="a_node2"><a xlink:href="https://github.com/holochain/holochain-rust" xlink:title="Source_Code">
<ellipse fill="none" stroke="#000000" cx="1094" cy="-1098" rx="70.6878" ry="18"/>
<text text-anchor="middle" x="1094" y="-1094.3" font-family="Times,serif" font-size="14.00" fill="#000000">Source_Code</text>
</a>
</g>
</g>
<!-- Whitepapers&#45;&gt;Source_Code -->
<g id="edge1" class="edge">
<title>Whitepapers&#45;&gt;Source_Code</title>
<path fill="none" stroke="#000000" d="M1094,-1151.8314C1094,-1144.131 1094,-1134.9743 1094,-1126.4166"/>
<polygon fill="#000000" stroke="#000000" points="1097.5001,-1126.4132 1094,-1116.4133 1090.5001,-1126.4133 1097.5001,-1126.4132"/>
</g>
<!-- Core_Developers -->
<g id="node4" class="node">
<title>Core_Developers</title>
<g id="a_node4"><a xlink:href="https://github.com/holochain/holochain-rust/graphs/contributors" xlink:title="Core_Developers">
<ellipse fill="none" stroke="#000000" cx="842" cy="-1026" rx="89.0842" ry="18"/>
<text text-anchor="middle" x="842" y="-1022.3" font-family="Times,serif" font-size="14.00" fill="#000000">Core_Developers</text>
</a>
</g>
</g>
<!-- Source_Code&#45;&gt;Core_Developers -->
<g id="edge3" class="edge">
<title>Source_Code&#45;&gt;Core_Developers</title>
<path fill="none" stroke="#000000" d="M1037.1309,-1081.7517C997.3408,-1070.3831 944.2291,-1055.2083 903.4633,-1043.5609"/>
<polygon fill="#000000" stroke="#000000" points="1036.3196,-1085.1599 1046.8963,-1084.5418 1038.2427,-1078.4292 1036.3196,-1085.1599"/>
<polygon fill="#000000" stroke="#000000" points="904.2225,-1040.1379 893.6457,-1040.7559 902.2994,-1046.8685 904.2225,-1040.1379"/>
</g>
<!-- Software_Releases -->
<g id="node5" class="node">
<title>Software_Releases</title>
<g id="a_node5"><a xlink:href="https://github.com/holochain/holochain-rust/releases" xlink:title="Software_Releases">
<ellipse fill="none" stroke="#000000" cx="968" cy="-882" rx="98.2828" ry="18"/>
<text text-anchor="middle" x="968" y="-878.3" font-family="Times,serif" font-size="14.00" fill="#000000">Software_Releases</text>
</a>
</g>
</g>
<!-- Source_Code&#45;&gt;Software_Releases -->
<g id="edge2" class="edge">
<title>Source_Code&#45;&gt;Software_Releases</title>
<path fill="none" stroke="#000000" d="M1094,-1079.9503C1094,-1065.3878 1094,-1044.375 1094,-1026"/>
<path fill="none" stroke="#000000" d="M1094,-1026C1094,-989.8167 1056,-990.1833 1056,-954"/>
</g>
<!-- Dev_Quick_Start -->
<g id="node8" class="node">
<title>Dev_Quick_Start</title>
<g id="a_node8"><a xlink:href="https://developer.holochain.org/start.html" xlink:title="Dev_Quick_Start">
<ellipse fill="none" stroke="#000000" cx="1232" cy="-810" rx="87.9851" ry="18"/>
<text text-anchor="middle" x="1232" y="-806.3" font-family="Times,serif" font-size="14.00" fill="#000000">Dev_Quick_Start</text>
</a>
</g>
</g>
<!-- Source_Code&#45;&gt;Dev_Quick_Start -->
<g id="edge5" class="edge">
<title>Source_Code&#45;&gt;Dev_Quick_Start</title>
<path fill="none" stroke="#000000" d="M1094,-1026C1094,-945.6914 1162.5809,-871.2668 1203.0497,-834.3408"/>
<polygon fill="#000000" stroke="#000000" points="1205.618,-836.7394 1210.7399,-827.4649 1200.9523,-831.521 1205.618,-836.7394"/>
</g>
<!-- Programmers -->
<g id="node18" class="node">
<title>Programmers</title>
<ellipse fill="none" stroke="#000000" cx="901" cy="-234" rx="74.9875" ry="18"/>
<text text-anchor="middle" x="901" y="-230.3" font-family="Times,serif" font-size="14.00" fill="#000000">Programmers</text>
</g>
<!-- Source_Code&#45;&gt;Programmers -->
<g id="edge123" class="edge">
<title>Source_Code&#45;&gt;Programmers</title>
<path fill="none" stroke="#000000" d="M1152.3563,-1081.9701C1237.5641,-1056.8127 1386,-1005.5844 1386,-954 1386,-954 1386,-954 1386,-378 1386,-335.1444 1104.1176,-273.9391 970.1475,-247.2702"/>
<polygon fill="#000000" stroke="#000000" points="1151.1641,-1078.672 1142.5456,-1084.8341 1153.1258,-1085.3915 1151.1641,-1078.672"/>
<polygon fill="#000000" stroke="#000000" points="970.4752,-243.7672 959.9856,-245.2571 969.1148,-250.6337 970.4752,-243.7672"/>
</g>
<!-- Team -->
<g id="node3" class="node">
<title>Team</title>
<g id="a_node3"><a xlink:href="https://holo.host/team/" xlink:title="Team">
<ellipse fill="none" stroke="#000000" cx="480" cy="-882" rx="35.9954" ry="18"/>
<text text-anchor="middle" x="480" y="-878.3" font-family="Times,serif" font-size="14.00" fill="#000000">Team</text>
</a>
</g>
</g>
<!-- Guide_Book -->
<g id="node10" class="node">
<title>Guide_Book</title>
<g id="a_node10"><a xlink:href="https://developer.holochain.org/guide/latest/welcome.html" xlink:title="Guide_Book">
<ellipse fill="none" stroke="#000000" cx="896" cy="-810" rx="65.7887" ry="18"/>
<text text-anchor="middle" x="896" y="-806.3" font-family="Times,serif" font-size="14.00" fill="#000000">Guide_Book</text>
</a>
</g>
</g>
<!-- Team&#45;&gt;Guide_Book -->
<g id="edge79" class="edge">
<title>Team&#45;&gt;Guide_Book</title>
<path fill="none" stroke="#000000" d="M517.5239,-867.4861C521.6942,-866.1747 525.9113,-864.976 530,-864 656.7579,-833.7422 692.7703,-851.2432 821,-828 826.6553,-826.9749 832.5226,-825.7875 838.3718,-824.5212"/>
<polygon fill="#000000" stroke="#000000" points="516.3257,-864.1963 507.9606,-870.6982 518.5546,-870.832 516.3257,-864.1963"/>
<polygon fill="#000000" stroke="#000000" points="839.1642,-827.9305 848.1578,-822.33 837.6347,-821.0996 839.1642,-827.9305"/>
</g>
<!-- News -->
<g id="node14" class="node">
<title>News</title>
<ellipse fill="none" stroke="#000000" cx="698" cy="-306" rx="36.2938" ry="18"/>
<text text-anchor="middle" x="698" y="-302.3" font-family="Times,serif" font-size="14.00" fill="#000000">News</text>
</g>
<!-- Team&#45;&gt;News -->
<g id="edge81" class="edge">
<title>Team&#45;&gt;News</title>
<path fill="none" stroke="#000000" d="M511.0222,-862.3889C542.492,-842.9905 592.9866,-813.2098 639,-792 681.5191,-772.4009 711.1402,-794.3478 738,-756 785.9467,-687.5466 726.3454,-421.2135 705.0292,-333.8952"/>
<polygon fill="#000000" stroke="#000000" points="508.9338,-859.5657 502.2815,-867.8118 512.6242,-865.5139 508.9338,-859.5657"/>
<polygon fill="#000000" stroke="#000000" points="708.3646,-332.8023 702.5723,-323.931 701.5681,-334.4781 708.3646,-332.8023"/>
</g>
<!-- Press_Releases -->
<g id="node17" class="node">
<title>Press_Releases</title>
<ellipse fill="none" stroke="#000000" cx="730" cy="-810" rx="81.7856" ry="18"/>
<text text-anchor="middle" x="730" y="-806.3" font-family="Times,serif" font-size="14.00" fill="#000000">Press_Releases</text>
</g>
<!-- Team&#45;&gt;Press_Releases -->
<g id="edge78" class="edge">
<title>Team&#45;&gt;Press_Releases</title>
<path fill="none" stroke="#000000" d="M508.6829,-871.2197C515.6239,-868.7372 523.0471,-866.1861 530,-864 574.9134,-849.8783 626.19,-836.0789 665.578,-825.9648"/>
<polygon fill="#000000" stroke="#000000" points="666.5021,-829.3412 675.3246,-823.4749 664.7694,-822.559 666.5021,-829.3412"/>
</g>
<!-- Markets -->
<g id="node21" class="node">
<title>Markets</title>
<ellipse fill="none" stroke="#000000" cx="371" cy="-738" rx="49.2915" ry="18"/>
<text text-anchor="middle" x="371" y="-734.3" font-family="Times,serif" font-size="14.00" fill="#000000">Markets</text>
</g>
<!-- Team&#45;&gt;Markets -->
<g id="edge83" class="edge">
<title>Team&#45;&gt;Markets</title>
<path fill="none" stroke="#000000" d="M444.0939,-865.1499C428.2791,-856.1198 410.6779,-843.6127 399,-828 385.4375,-809.8678 378.356,-785.0422 374.7118,-766.0568"/>
<polygon fill="#000000" stroke="#000000" points="442.6825,-868.3661 453.1407,-870.0621 446.0227,-862.2144 442.6825,-868.3661"/>
<polygon fill="#000000" stroke="#000000" points="378.1599,-765.4553 373.0216,-756.1899 371.2604,-766.6373 378.1599,-765.4553"/>
</g>
<!-- Blogs -->
<g id="node22" class="node">
<title>Blogs</title>
<ellipse fill="none" stroke="#000000" cx="544" cy="-666" rx="36.2938" ry="18"/>
<text text-anchor="middle" x="544" y="-662.3" font-family="Times,serif" font-size="14.00" fill="#000000">Blogs</text>
</g>
<!-- Team&#45;&gt;Blogs -->
<g id="edge61" class="edge">
<title>Team&#45;&gt;Blogs</title>
<path fill="none" stroke="#000000" d="M504.2701,-858.9184C512.1764,-850.0222 520.1569,-839.274 525,-828 543.7784,-784.2867 546.0924,-728.1757 545.4646,-694.7672"/>
<polygon fill="#000000" stroke="#000000" points="501.7059,-856.536 497.422,-866.2262 506.8138,-861.3226 501.7059,-856.536"/>
<polygon fill="#000000" stroke="#000000" points="548.951,-694.2512 545.1584,-684.3585 541.954,-694.4571 548.951,-694.2512"/>
</g>
<!-- Community -->
<g id="node23" class="node">
<title>Community</title>
<ellipse fill="none" stroke="#000000" cx="247" cy="-954" rx="64.189" ry="18"/>
<text text-anchor="middle" x="247" y="-950.3" font-family="Times,serif" font-size="14.00" fill="#000000">Community</text>
</g>
<!-- Investors -->
<g id="node24" class="node">
<title>Investors</title>
<ellipse fill="none" stroke="#000000" cx="462" cy="-810" rx="53.8905" ry="18"/>
<text text-anchor="middle" x="462" y="-806.3" font-family="Times,serif" font-size="14.00" fill="#000000">Investors</text>
</g>
<!-- Team&#45;&gt;Investors -->
<g id="edge85" class="edge">
<title>Team&#45;&gt;Investors</title>
<path fill="none" stroke="#000000" d="M472.9636,-853.8545C471.6952,-848.781 470.3722,-843.4887 469.102,-838.4078"/>
<polygon fill="#000000" stroke="#000000" points="469.6369,-854.9788 475.4578,-863.8314 476.4279,-853.281 469.6369,-854.9788"/>
<polygon fill="#000000" stroke="#000000" points="472.4242,-837.2658 466.6033,-828.4133 465.6332,-838.9636 472.4242,-837.2658"/>
</g>
<!-- Core_Developers&#45;&gt;Team -->
<g id="edge77" class="edge">
<title>Core_Developers&#45;&gt;Team</title>
<path fill="none" stroke="#000000" d="M756.4896,-1014.7965C688.6165,-1004.8702 599.9982,-989.2987 568,-972 539.1083,-956.3807 513.8097,-928.0812 497.8432,-907.3735"/>
<polygon fill="#000000" stroke="#000000" points="756.3704,-1018.3155 766.7679,-1016.28 757.3705,-1011.3872 756.3704,-1018.3155"/>
<polygon fill="#000000" stroke="#000000" points="500.5891,-905.2013 491.7902,-899.2997 494.9883,-909.4003 500.5891,-905.2013"/>
</g>
<!-- Core_Developers&#45;&gt;Software_Releases -->
<g id="edge95" class="edge">
<title>Core_Developers&#45;&gt;Software_Releases</title>
<path fill="none" stroke="#000000" d="M914.7492,-1015.5674C976.7882,-1004.5591 1056,-984.5264 1056,-954"/>
<path fill="none" stroke="#000000" d="M1056,-954C1056,-931.5753 1038.6711,-914.8745 1019.3929,-903.2336"/>
<polygon fill="#000000" stroke="#000000" points="1020.8904,-900.061 1010.4534,-898.2387 1017.4759,-906.1718 1020.8904,-900.061"/>
</g>
<!-- API_Docs -->
<g id="node9" class="node">
<title>API_Docs</title>
<g id="a_node9"><a xlink:href="https://developer.holochain.org/api/latest/hdk/" xlink:title="API_Docs">
<ellipse fill="none" stroke="#000000" cx="1072" cy="-810" rx="53.8905" ry="18"/>
<text text-anchor="middle" x="1072" y="-806.3" font-family="Times,serif" font-size="14.00" fill="#000000">API_Docs</text>
</a>
</g>
</g>
<!-- Core_Developers&#45;&gt;API_Docs -->
<g id="edge87" class="edge">
<title>Core_Developers&#45;&gt;API_Docs</title>
<path fill="none" stroke="#000000" d="M930.2725,-1015.9195C986.3675,-1007.5557 1051.7482,-993.5035 1070,-972 1101.6412,-934.7217 1091.232,-873.3697 1081.2915,-837.829"/>
<polygon fill="#000000" stroke="#000000" points="929.6769,-1012.4691 920.281,-1017.3649 930.6791,-1019.397 929.6769,-1012.4691"/>
<polygon fill="#000000" stroke="#000000" points="1084.6059,-836.6953 1078.4023,-828.1066 1077.8959,-838.6893 1084.6059,-836.6953"/>
</g>
<!-- Core_Developers&#45;&gt;Guide_Book -->
<g id="edge27" class="edge">
<title>Core_Developers&#45;&gt;Guide_Book</title>
<path fill="none" stroke="#000000" d="M841.4738,-997.603C841.7276,-964.5425 844.8691,-908.758 861,-864 864.4861,-854.3273 869.989,-844.6304 875.6082,-836.1767"/>
<polygon fill="#000000" stroke="#000000" points="837.974,-997.8984 841.4838,-1007.895 844.974,-997.8915 837.974,-997.8984"/>
<polygon fill="#000000" stroke="#000000" points="878.556,-838.0689 881.4263,-827.8702 872.8225,-834.0529 878.556,-838.0689"/>
</g>
<!-- Dev_Pulse -->
<g id="node11" class="node">
<title>Dev_Pulse</title>
<g id="a_node11"><a xlink:href="https://medium.com/holochain" xlink:title="Dev_Pulse">
<ellipse fill="none" stroke="#000000" cx="760" cy="-90" rx="58.4896" ry="18"/>
<text text-anchor="middle" x="760" y="-86.3" font-family="Times,serif" font-size="14.00" fill="#000000">Dev_Pulse</text>
</a>
</g>
</g>
<!-- Core_Developers&#45;&gt;Dev_Pulse -->
<g id="edge91" class="edge">
<title>Core_Developers&#45;&gt;Dev_Pulse</title>
<path fill="none" stroke="#000000" d="M744.7801,-1021.4645C572.1402,-1012.9207 225.3054,-993.3684 174,-972 62.9569,-925.7511 38,-858.2894 38,-738 38,-738 38,-738 38,-234 38,-167.4692 515.5872,-113.9063 693.9058,-96.226"/>
<polygon fill="#000000" stroke="#000000" points="744.7261,-1024.966 754.8861,-1021.9619 745.0703,-1017.9744 744.7261,-1024.966"/>
<polygon fill="#000000" stroke="#000000" points="694.3379,-99.7005 703.9467,-95.2371 693.6517,-92.7342 694.3379,-99.7005"/>
</g>
<!-- Core_Developers&#45;&gt;Programmers -->
<g id="edge93" class="edge">
<title>Core_Developers&#45;&gt;Programmers</title>
<path fill="none" stroke="#000000" d="M927.8344,-1014.8551C977.3263,-1006.643 1040.04,-993.1459 1093,-972 1207.1126,-926.437 1268.8592,-935.1483 1329,-828 1336.8313,-814.0476 1337.5262,-805.539 1329,-792 1259.9319,-682.325 1066,-795.611 1066,-666 1066,-666 1066,-666 1066,-378 1066,-316.5132 1000.1547,-275.2455 951.6549,-253.1887"/>
<polygon fill="#000000" stroke="#000000" points="927.114,-1011.426 917.8012,-1016.4778 928.2317,-1018.3362 927.114,-1011.426"/>
<polygon fill="#000000" stroke="#000000" points="952.7736,-249.8571 942.2108,-249.0331 949.9543,-256.2643 952.7736,-249.8571"/>
</g>
<!-- Core_Developers&#45;&gt;Blogs -->
<g id="edge63" class="edge">
<title>Core_Developers&#45;&gt;Blogs</title>
<path fill="none" stroke="#000000" d="M756.0471,-1014.5242C680.3281,-999.0142 582,-963.2341 582,-882 582,-882 582,-882 582,-810 582,-768.1368 566.7997,-721.6262 555.6263,-693.0925"/>
<polygon fill="#000000" stroke="#000000" points="755.612,-1018.0054 766.0983,-1016.493 756.9576,-1011.136 755.612,-1018.0054"/>
<polygon fill="#000000" stroke="#000000" points="558.8596,-691.7518 551.8736,-683.7865 552.3676,-694.3698 558.8596,-691.7518"/>
</g>
<!-- Core_Developers&#45;&gt;Community -->
<g id="edge105" class="edge">
<title>Core_Developers&#45;&gt;Community</title>
<path fill="none" stroke="#000000" d="M755.3286,-1015.512C636.5406,-1001.1377 425.5005,-975.6001 316.4794,-962.4076"/>
<polygon fill="#000000" stroke="#000000" points="755.0842,-1019.0079 765.4322,-1016.7347 755.9252,-1012.0586 755.0842,-1019.0079"/>
<polygon fill="#000000" stroke="#000000" points="316.6021,-958.897 306.254,-961.1702 315.7611,-965.8463 316.6021,-958.897"/>
</g>
<!-- Hosts -->
<g id="node6" class="node">
<title>Hosts</title>
<g id="a_node6"><a xlink:href="https://holo.host/host/" xlink:title="Hosts">
<ellipse fill="none" stroke="#000000" cx="430" cy="-522" rx="37.8943" ry="18"/>
<text text-anchor="middle" x="430" y="-518.3" font-family="Times,serif" font-size="14.00" fill="#000000">Hosts</text>
</a>
</g>
</g>
<!-- Software_Releases&#45;&gt;Hosts -->
<g id="edge10" class="edge">
<title>Software_Releases&#45;&gt;Hosts</title>
<path fill="none" stroke="#000000" d="M977.2509,-863.8103C983.6023,-849.5206 990.7613,-828.9369 990,-810"/>
<path fill="none" stroke="#000000" d="M990,-810C989.135,-788.4849 947.5009,-784.3062 900,-756 779.2657,-684.0535 767.8321,-634.4127 640,-576 586.4305,-551.5215 519.9015,-536.7936 476.2629,-529.0412"/>
<polygon fill="#000000" stroke="#000000" points="476.6768,-525.561 466.2273,-527.3097 475.4866,-532.459 476.6768,-525.561"/>
</g>
<!-- Software_Releases&#45;&gt;Dev_Quick_Start -->
<g id="edge13" class="edge">
<title>Software_Releases&#45;&gt;Dev_Quick_Start</title>
<path fill="none" stroke="#000000" d="M1023.0217,-866.9941C1065.59,-855.3845 1124.5761,-839.2974 1169.0286,-827.174"/>
<polygon fill="#000000" stroke="#000000" points="1170.125,-830.5029 1178.8517,-824.495 1168.2831,-823.7496 1170.125,-830.5029"/>
</g>
<!-- Software_Releases&#45;&gt;API_Docs -->
<g id="edge6" class="edge">
<title>Software_Releases&#45;&gt;API_Docs</title>
<path fill="none" stroke="#000000" d="M993.1755,-864.5708C1007.2463,-854.8295 1024.9255,-842.59 1039.9733,-832.1723"/>
<polygon fill="#000000" stroke="#000000" points="1042.2523,-834.8515 1048.482,-826.2817 1038.2678,-829.0962 1042.2523,-834.8515"/>
</g>
<!-- Software_Releases&#45;&gt;Guide_Book -->
<g id="edge15" class="edge">
<title>Software_Releases&#45;&gt;Guide_Book</title>
<path fill="none" stroke="#000000" d="M950.2022,-864.2022C941.3088,-855.3088 930.4042,-844.4042 920.7135,-834.7135"/>
<polygon fill="#000000" stroke="#000000" points="923.139,-832.1892 913.593,-827.593 918.1892,-837.139 923.139,-832.1892"/>
</g>
<!-- Software_Releases&#45;&gt;Dev_Pulse -->
<g id="edge14" class="edge">
<title>Software_Releases&#45;&gt;Dev_Pulse</title>
<path fill="none" stroke="#000000" d="M1041,-234C997.8327,-189.7728 989.188,-173.7174 935,-144 898.9694,-124.2403 854.7158,-110.6688 819.7253,-102.0735"/>
<polygon fill="#000000" stroke="#000000" points="820.1899,-98.5862 809.6509,-99.6724 818.567,-105.3955 820.1899,-98.5862"/>
</g>
<!-- Software_Releases&#45;&gt;News -->
<g id="edge7" class="edge">
<title>Software_Releases&#45;&gt;News</title>
<path fill="none" stroke="#000000" d="M990,-810C998.0915,-714.3416 1002.35,-689.2023 990,-594"/>
<path fill="none" stroke="#000000" d="M990,-594C965.2792,-456.1636 806.2044,-360.1343 733.7984,-323.0265"/>
<polygon fill="#000000" stroke="#000000" points="735.0952,-319.7608 724.5899,-318.3862 731.9451,-326.012 735.0952,-319.7608"/>
</g>
<!-- Libraries -->
<g id="node15" class="node">
<title>Libraries</title>
<ellipse fill="none" stroke="#000000" cx="855" cy="-162" rx="52.7911" ry="18"/>
<text text-anchor="middle" x="855" y="-158.3" font-family="Times,serif" font-size="14.00" fill="#000000">Libraries</text>
</g>
<!-- Software_Releases&#45;&gt;Libraries -->
<g id="edge8" class="edge">
<title>Software_Releases&#45;&gt;Libraries</title>
<path fill="none" stroke="#000000" d="M990,-810C997.7154,-728.7376 1104,-747.6279 1104,-666 1104,-666 1104,-666 1104,-378 1104,-308.143 1091.8564,-281.8919 1041,-234"/>
<path fill="none" stroke="#000000" d="M1041,-234C1006.9259,-199.0893 954.0236,-180.7973 913.3362,-171.4056"/>
<polygon fill="#000000" stroke="#000000" points="914.0556,-167.9803 903.5384,-169.2597 912.558,-174.8182 914.0556,-167.9803"/>
</g>
<!-- dApps -->
<g id="node16" class="node">
<title>dApps</title>
<ellipse fill="none" stroke="#000000" cx="415" cy="-450" rx="39.7935" ry="18"/>
<text text-anchor="middle" x="415" y="-446.3" font-family="Times,serif" font-size="14.00" fill="#000000">dApps</text>
</g>
<!-- Software_Releases&#45;&gt;dApps -->
<g id="edge9" class="edge">
<title>Software_Releases&#45;&gt;dApps</title>
<path fill="none" stroke="#000000" d="M990,-810C992.0261,-683.6069 586.3756,-516.0631 455.3031,-465.245"/>
<polygon fill="#000000" stroke="#000000" points="456.2197,-461.8472 445.6301,-461.5137 453.7004,-468.3782 456.2197,-461.8472"/>
</g>
<!-- Software_Releases&#45;&gt;Press_Releases -->
<g id="edge11" class="edge">
<title>Software_Releases&#45;&gt;Press_Releases</title>
<path fill="none" stroke="#000000" d="M916.943,-866.5542C879.1684,-855.1266 827.6574,-839.5434 788.2714,-827.6283"/>
<polygon fill="#000000" stroke="#000000" points="789.1201,-824.2285 778.535,-824.6829 787.0931,-830.9286 789.1201,-824.2285"/>
</g>
<!-- Software_Releases&#45;&gt;Programmers -->
<g id="edge16" class="edge">
<title>Software_Releases&#45;&gt;Programmers</title>
<path fill="none" stroke="#000000" d="M990,-594C985.4987,-562.3182 991.8405,-553.947 990,-522"/>
</g>
<!-- Hosts&#45;&gt;dApps -->
<g id="edge96" class="edge">
<title>Hosts&#45;&gt;dApps</title>
<path fill="none" stroke="#000000" d="M424.1364,-493.8545C423.0794,-488.781 421.9768,-483.4887 420.9183,-478.4078"/>
<polygon fill="#000000" stroke="#000000" points="420.7488,-494.7554 426.2149,-503.8314 427.6017,-493.3277 420.7488,-494.7554"/>
<polygon fill="#000000" stroke="#000000" points="424.3021,-477.4892 418.8361,-468.4133 417.4493,-478.9169 424.3021,-477.4892"/>
</g>
<!-- Business_Owners -->
<g id="node19" class="node">
<title>Business_Owners</title>
<ellipse fill="none" stroke="#000000" cx="539" cy="-594" rx="92.0841" ry="18"/>
<text text-anchor="middle" x="539" y="-590.3" font-family="Times,serif" font-size="14.00" fill="#000000">Business_Owners</text>
</g>
<!-- End_Users -->
<g id="node20" class="node">
<title>End_Users</title>
<ellipse fill="none" stroke="#000000" cx="483" cy="-378" rx="61.1893" ry="18"/>
<text text-anchor="middle" x="483" y="-374.3" font-family="Times,serif" font-size="14.00" fill="#000000">End_Users</text>
</g>
<!-- Hosts&#45;&gt;End_Users -->
<g id="edge100" class="edge">
<title>Hosts&#45;&gt;End_Users</title>
<path fill="none" stroke="#000000" d="M448.7387,-496.364C454.3463,-487.7053 460.0475,-477.7542 464,-468 472.0715,-448.0806 476.9076,-424.2306 479.6793,-406.0883"/>
<polygon fill="#000000" stroke="#000000" points="445.6997,-494.6102 443.0059,-504.8569 451.5017,-498.5266 445.6997,-494.6102"/>
<polygon fill="#000000" stroke="#000000" points="483.1516,-406.5294 481.0815,-396.1388 476.2201,-405.5525 483.1516,-406.5294"/>
</g>
<!-- Documentation -->
<g id="node7" class="node">
<title>Documentation</title>
<g id="a_node7"><a xlink:href="https://developer.holochain.org/" xlink:title="Documentation">
<ellipse fill="none" stroke="#000000" cx="1263" cy="-1170" rx="81.4863" ry="18"/>
<text text-anchor="middle" x="1263" y="-1166.3" font-family="Times,serif" font-size="14.00" fill="#000000">Documentation</text>
</a>
</g>
</g>
<!-- API_Docs&#45;&gt;Dev_Pulse -->
<g id="edge21" class="edge">
<title>API_Docs&#45;&gt;Dev_Pulse</title>
<path fill="none" stroke="#000000" d="M1086.8452,-792.6908C1107.3931,-766.8998 1142,-716.0351 1142,-666 1142,-666 1142,-666 1142,-234 1142,-178.3663 1104.043,-170.2659 1055,-144 1016.2049,-123.2225 900.0091,-106.3386 825.5521,-97.2662"/>
<polygon fill="#000000" stroke="#000000" points="825.6816,-93.7567 815.3354,-96.0383 824.8462,-100.7067 825.6816,-93.7567"/>
</g>
<!-- API_Docs&#45;&gt;Programmers -->
<g id="edge22" class="edge">
<title>API_Docs&#45;&gt;Programmers</title>
<path fill="none" stroke="#000000" d="M1064.899,-792.1491C1060.8654,-781.6989 1055.8654,-768.1989 1052,-756 1050.9844,-752.7949 990.3405,-525.3449 990,-522"/>
</g>
<!-- Guide_Book&#45;&gt;Dev_Pulse -->
<g id="edge25" class="edge">
<title>Guide_Book&#45;&gt;Dev_Pulse</title>
<path fill="none" stroke="#000000" d="M891.856,-791.9265C885.9979,-764.7528 876,-711.6844 876,-666 876,-666 876,-666 876,-450 876,-432.6829 797.2145,-199.402 769.502,-117.8821"/>
<polygon fill="#000000" stroke="#000000" points="772.771,-116.6237 766.2367,-108.2839 766.144,-118.8783 772.771,-116.6237"/>
</g>
<!-- Guide_Book&#45;&gt;Programmers -->
<g id="edge23" class="edge">
<title>Guide_Book&#45;&gt;Programmers</title>
<path fill="none" stroke="#000000" d="M902.3136,-791.7201C923.3895,-730.566 990,-536.168 990,-522"/>
<path fill="none" stroke="#000000" d="M990,-522C986.0801,-422.2354 938.5738,-311.2179 914.6227,-261.1271"/>
<polygon fill="#000000" stroke="#000000" points="917.6807,-259.4118 910.1664,-251.9427 911.3829,-262.4675 917.6807,-259.4118"/>
</g>
<!-- Guide_Book&#45;&gt;Business_Owners -->
<g id="edge24" class="edge">
<title>Guide_Book&#45;&gt;Business_Owners</title>
<path fill="none" stroke="#000000" d="M845.7909,-798.2388C808.7588,-787.523 758.9459,-768.6059 724,-738"/>
</g>
<!-- Community_Matters -->
<g id="node12" class="node">
<title>Community_Matters</title>
<g id="a_node12"><a xlink:href="https://medium.com/holochain/tagged/community-matters" xlink:title="Community_Matters">
<ellipse fill="none" stroke="#000000" cx="730" cy="-18" rx="105.8812" ry="18"/>
<text text-anchor="middle" x="730" y="-14.3" font-family="Times,serif" font-size="14.00" fill="#000000">Community_Matters</text>
</a>
</g>
</g>
<!-- Dev_Pulse&#45;&gt;Community_Matters -->
<g id="edge46" class="edge">
<title>Dev_Pulse&#45;&gt;Community_Matters</title>
<path fill="none" stroke="#000000" d="M748.5071,-62.417C746.2405,-56.9771 743.8607,-51.2657 741.5909,-45.8181"/>
<polygon fill="#000000" stroke="#000000" points="745.3527,-63.9468 752.4297,-71.8314 751.8143,-61.2544 745.3527,-63.9468"/>
<polygon fill="#000000" stroke="#000000" points="744.7492,-44.2979 737.6722,-36.4133 738.2876,-46.9902 744.7492,-44.2979"/>
</g>
<!-- Now_Building -->
<g id="node13" class="node">
<title>Now_Building</title>
<g id="a_node13"><a xlink:href="https://medium.com/holochain/tagged/now-building" xlink:title="Now_Building">
<ellipse fill="none" stroke="#000000" cx="633" cy="-162" rx="75.2868" ry="18"/>
<text text-anchor="middle" x="633" y="-158.3" font-family="Times,serif" font-size="14.00" fill="#000000">Now_Building</text>
</a>
</g>
</g>
<!-- Now_Building&#45;&gt;Dev_Pulse -->
<g id="edge49" class="edge">
<title>Now_Building&#45;&gt;Dev_Pulse</title>
<path fill="none" stroke="#000000" d="M671.4082,-140.2253C687.8761,-130.8891 707.027,-120.0319 723.3014,-110.8055"/>
<polygon fill="#000000" stroke="#000000" points="669.4287,-137.3241 662.4556,-145.3008 672.881,-143.4136 669.4287,-137.3241"/>
<polygon fill="#000000" stroke="#000000" points="725.0383,-113.8442 732.0114,-105.8675 721.586,-107.7547 725.0383,-113.8442"/>
</g>
<!-- Now_Building&#45;&gt;Community_Matters -->
<g id="edge52" class="edge">
<title>Now_Building&#45;&gt;Community_Matters</title>
<path fill="none" stroke="#000000" d="M650.6984,-135.26C662.5998,-117.326 678.6723,-93.1984 693,-72 699.1093,-62.961 705.8398,-53.1075 711.8664,-44.3215"/>
<polygon fill="#000000" stroke="#000000" points="647.4955,-133.7569 644.8862,-144.0254 653.3296,-137.6253 647.4955,-133.7569"/>
<polygon fill="#000000" stroke="#000000" points="714.8322,-46.1854 717.6093,-35.961 709.0624,-42.222 714.8322,-46.1854"/>
</g>
<!-- News&#45;&gt;Dev_Pulse -->
<g id="edge31" class="edge">
<title>News&#45;&gt;Dev_Pulse</title>
<path fill="none" stroke="#000000" d="M705.9567,-278.2797C717.8388,-236.8843 740.0928,-159.354 752,-117.871"/>
<polygon fill="#000000" stroke="#000000" points="702.5743,-277.3779 703.1794,-287.9555 709.3026,-279.3093 702.5743,-277.3779"/>
<polygon fill="#000000" stroke="#000000" points="755.3968,-118.7226 754.7917,-108.1451 748.6685,-116.7913 755.3968,-118.7226"/>
</g>
<!-- News&#45;&gt;Programmers -->
<g id="edge33" class="edge">
<title>News&#45;&gt;Programmers</title>
<path fill="none" stroke="#000000" d="M727.9533,-295.3762C759.8785,-284.0529 811.0176,-265.9149 849.4401,-252.2872"/>
<polygon fill="#000000" stroke="#000000" points="850.6604,-255.5681 858.9152,-248.9266 848.3204,-248.9708 850.6604,-255.5681"/>
</g>
<!-- Libraries&#45;&gt;dApps -->
<g id="edge17" class="edge">
<title>Libraries&#45;&gt;dApps</title>
<path fill="none" stroke="#000000" d="M806.7073,-169.2188C729.2274,-182.5448 574.6391,-216.4428 464,-288 427.8003,-311.4126 414.476,-319.7624 399,-360 391.2129,-380.2464 396.3028,-404.5301 402.7388,-422.7678"/>
<polygon fill="#000000" stroke="#000000" points="399.5172,-424.1417 406.3795,-432.2138 406.0489,-421.6241 399.5172,-424.1417"/>
</g>
<!-- dApps&#45;&gt;Programmers -->
<g id="edge125" class="edge">
<title>dApps&#45;&gt;Programmers</title>
<path fill="none" stroke="#000000" d="M406.1612,-422.4161C401.7804,-403.0821 399.8726,-377.6436 413,-360 461.5175,-294.7911 696.6128,-257.8701 821.9389,-242.5213"/>
<polygon fill="#000000" stroke="#000000" points="402.7919,-423.3668 408.6899,-432.1682 409.5678,-421.6098 402.7919,-423.3668"/>
<polygon fill="#000000" stroke="#000000" points="822.7331,-245.9509 832.2417,-241.2778 821.8943,-239.0013 822.7331,-245.9509"/>
</g>
<!-- dApps&#45;&gt;Business_Owners -->
<g id="edge18" class="edge">
<title>dApps&#45;&gt;Business_Owners</title>
<path fill="none" stroke="#000000" d="M435.429,-465.6103C448.1168,-475.8152 464.3575,-489.8372 477,-504 494.5906,-523.7059 511.3849,-548.5957 523.0468,-567.2032"/>
<polygon fill="#000000" stroke="#000000" points="520.1108,-569.1103 528.3404,-575.7829 526.0681,-565.4346 520.1108,-569.1103"/>
</g>
<!-- dApps&#45;&gt;End_Users -->
<g id="edge19" class="edge">
<title>dApps&#45;&gt;End_Users</title>
<path fill="none" stroke="#000000" d="M437.6401,-426.0282C444.5339,-418.7288 452.1317,-410.684 459.1056,-403.2999"/>
<polygon fill="#000000" stroke="#000000" points="435.0932,-423.6274 430.7715,-433.3008 440.1823,-428.4338 435.0932,-423.6274"/>
<polygon fill="#000000" stroke="#000000" points="462.0436,-405.2865 466.3653,-395.6132 456.9545,-400.4801 462.0436,-405.2865"/>
</g>
<!-- Press_Releases&#45;&gt;News -->
<g id="edge28" class="edge">
<title>Press_Releases&#45;&gt;News</title>
<path fill="none" stroke="#000000" d="M750.8302,-792.2141C760.4673,-782.6003 770.8939,-769.8683 776,-756 803.6409,-680.9268 782.957,-655.6969 776,-576 767.5234,-478.895 776.4825,-449.5563 738,-360 733.5321,-349.6024 726.7073,-339.3315 719.953,-330.584"/>
<polygon fill="#000000" stroke="#000000" points="722.5907,-328.2796 713.5782,-322.7096 717.1501,-332.6842 722.5907,-328.2796"/>
</g>
<!-- Press_Releases&#45;&gt;Business_Owners -->
<g id="edge29" class="edge">
<title>Press_Releases&#45;&gt;Business_Owners</title>
<path fill="none" stroke="#000000" d="M733.744,-791.9242C735.947,-775.9455 736.2676,-752.9212 724,-738"/>
<path fill="none" stroke="#000000" d="M724,-738C681.6168,-686.4493 617.6316,-641.8602 577.1041,-616.4632"/>
<polygon fill="#000000" stroke="#000000" points="578.9249,-613.474 568.5797,-611.1875 575.241,-619.4263 578.9249,-613.474"/>
</g>
<!-- Press_Releases&#45;&gt;Markets -->
<g id="edge30" class="edge">
<title>Press_Releases&#45;&gt;Markets</title>
<path fill="none" stroke="#000000" d="M669.1005,-797.7862C600.4557,-784.019 489.9251,-761.8513 424.4855,-748.7269"/>
<polygon fill="#000000" stroke="#000000" points="424.8764,-745.2357 414.3833,-746.7008 423.4998,-752.099 424.8764,-745.2357"/>
</g>
<!-- Programmers&#45;&gt;Dev_Pulse -->
<g id="edge43" class="edge">
<title>Programmers&#45;&gt;Dev_Pulse</title>
<path fill="none" stroke="#000000" d="M915.6274,-206.9213C923.8101,-187.7225 930.0113,-162.2347 917,-144 905.077,-127.2906 857.8229,-112.459 818.2423,-102.5879"/>
<polygon fill="#000000" stroke="#000000" points="912.4267,-205.5041 911.3934,-216.0484 918.7767,-208.4498 912.4267,-205.5041"/>
<polygon fill="#000000" stroke="#000000" points="818.9149,-99.1495 808.371,-100.1871 817.2606,-105.9512 818.9149,-99.1495"/>
</g>
<!-- Programmers&#45;&gt;Community_Matters -->
<g id="edge59" class="edge">
<title>Programmers&#45;&gt;Community_Matters</title>
<path fill="none" stroke="#000000" d="M922.6207,-207.7002C934.9553,-189.322 945.9723,-164.502 935,-144 905.8015,-89.4422 841.7597,-55.8361 792.9716,-37.2015"/>
<polygon fill="#000000" stroke="#000000" points="919.5379,-205.9928 916.5502,-216.1576 925.2247,-210.0746 919.5379,-205.9928"/>
<polygon fill="#000000" stroke="#000000" points="794.0254,-33.8596 783.4322,-33.6725 791.5966,-40.4248 794.0254,-33.8596"/>
</g>
<!-- Programmers&#45;&gt;Now_Building -->
<g id="edge57" class="edge">
<title>Programmers&#45;&gt;Now_Building</title>
<path fill="none" stroke="#000000" d="M841.0658,-217.8983C796.9396,-206.0435 737.1903,-189.9914 693.0393,-178.13"/>
<polygon fill="#000000" stroke="#000000" points="840.34,-221.3273 850.9056,-220.5418 842.1562,-214.567 840.34,-221.3273"/>
<polygon fill="#000000" stroke="#000000" points="693.8687,-174.7288 683.3031,-175.5143 692.0525,-181.489 693.8687,-174.7288"/>
</g>
<!-- Programmers&#45;&gt;Libraries -->
<g id="edge126" class="edge">
<title>Programmers&#45;&gt;Libraries</title>
<path fill="none" stroke="#000000" d="M884.1504,-207.6268C880.1426,-201.3537 875.8659,-194.6596 871.8577,-188.386"/>
<polygon fill="#000000" stroke="#000000" points="881.2958,-209.6596 889.6292,-216.2022 887.1947,-205.8909 881.2958,-209.6596"/>
<polygon fill="#000000" stroke="#000000" points="874.5734,-186.1356 866.24,-179.593 868.6745,-189.9044 874.5734,-186.1356"/>
</g>
<!-- Business_Owners&#45;&gt;Hosts -->
<g id="edge99" class="edge">
<title>Business_Owners&#45;&gt;Hosts</title>
<path fill="none" stroke="#000000" d="M504.0133,-570.8895C490.0357,-561.6566 474.0852,-551.1205 460.5797,-542.1994"/>
<polygon fill="#000000" stroke="#000000" points="502.3411,-573.9795 512.6141,-576.5708 506.1992,-568.1387 502.3411,-573.9795"/>
<polygon fill="#000000" stroke="#000000" points="462.376,-539.1914 452.1029,-536.6001 458.5178,-545.0322 462.376,-539.1914"/>
</g>
<!-- Business_Owners&#45;&gt;Now_Building -->
<g id="edge55" class="edge">
<title>Business_Owners&#45;&gt;Now_Building</title>
<path fill="none" stroke="#000000" d="M545.1067,-565.9351C562.1068,-487.807 609.8455,-268.4121 626.8716,-190.1643"/>
<polygon fill="#000000" stroke="#000000" points="541.6257,-565.472 542.9194,-575.9875 548.4656,-566.9603 541.6257,-565.472"/>
<polygon fill="#000000" stroke="#000000" points="630.3576,-190.6049 629.0639,-180.0894 623.5177,-189.1166 630.3576,-190.6049"/>
</g>
<!-- Business_Owners&#45;&gt;News -->
<g id="edge37" class="edge">
<title>Business_Owners&#45;&gt;News</title>
<path fill="none" stroke="#000000" d="M563.7126,-568.4844C571.3876,-559.838 579.5242,-549.8636 586,-540 634.6598,-465.8841 633.6574,-439.9424 672,-360 676.1848,-351.2749 680.7604,-341.7626 684.8905,-333.1865"/>
<polygon fill="#000000" stroke="#000000" points="561.0031,-566.2614 556.8549,-576.0104 566.1773,-570.9762 561.0031,-566.2614"/>
<polygon fill="#000000" stroke="#000000" points="688.1323,-334.5216 689.3198,-323.9935 681.8261,-331.4832 688.1323,-334.5216"/>
</g>
<!-- Business_Owners&#45;&gt;Programmers -->
<g id="edge129" class="edge">
<title>Business_Owners&#45;&gt;Programmers</title>
<path fill="none" stroke="#000000" d="M572.7639,-570.4974C585.1522,-561.4081 599.0574,-550.6419 611,-540 718.8516,-443.8948 832.7768,-314.0934 879.3042,-259.6777"/>
<polygon fill="#000000" stroke="#000000" points="570.5203,-567.8007 564.4726,-576.4999 574.6252,-573.4708 570.5203,-567.8007"/>
<polygon fill="#000000" stroke="#000000" points="882.1034,-261.7891 885.9269,-251.9081 876.7761,-257.2481 882.1034,-261.7891"/>
</g>
<!-- Business_Owners&#45;&gt;End_Users -->
<g id="edge130" class="edge">
<title>Business_Owners&#45;&gt;End_Users</title>
<path fill="none" stroke="#000000" d="M531.7396,-565.9956C520.9874,-524.523 500.9489,-447.2316 490.2201,-405.8488"/>
<polygon fill="#000000" stroke="#000000" points="528.4241,-567.1539 534.3218,-575.9555 535.2001,-565.3971 528.4241,-567.1539"/>
<polygon fill="#000000" stroke="#000000" points="493.602,-404.9466 487.7043,-396.1451 486.826,-406.7034 493.602,-404.9466"/>
</g>
<!-- End_Users&#45;&gt;News -->
<g id="edge39" class="edge">
<title>End_Users&#45;&gt;News</title>
<path fill="none" stroke="#000000" d="M533.1387,-361.2093C571.2717,-348.4393 623.0226,-331.1087 658.3056,-319.293"/>
<polygon fill="#000000" stroke="#000000" points="531.8108,-357.9629 523.4399,-364.4574 534.0337,-364.6006 531.8108,-357.9629"/>
<polygon fill="#000000" stroke="#000000" points="659.4245,-322.6094 667.7955,-316.115 657.2016,-315.9717 659.4245,-322.6094"/>
</g>
<!-- Markets&#45;&gt;Hosts -->
<g id="edge70" class="edge">
<title>Markets&#45;&gt;Hosts</title>
<path fill="none" stroke="#000000" d="M378.5717,-710.2797C389.8788,-668.8843 411.0561,-591.354 422.3871,-549.871"/>
<polygon fill="#000000" stroke="#000000" points="375.1875,-709.3866 375.9288,-719.9555 381.9402,-711.2311 375.1875,-709.3866"/>
<polygon fill="#000000" stroke="#000000" points="425.785,-550.7139 425.0437,-540.1451 419.0324,-548.8694 425.785,-550.7139"/>
</g>
<!-- Markets&#45;&gt;News -->
<g id="edge41" class="edge">
<title>Markets&#45;&gt;News</title>
<path fill="none" stroke="#000000" d="M348.4699,-713.1135C341.8031,-704.463 335.1772,-694.3272 331,-684 289.0017,-580.1687 273.4211,-526.8427 333,-432 358.4453,-391.494 370.138,-381.2378 413,-360 454.4184,-339.4775 582.989,-320.62 652.4207,-311.5928"/>
<polygon fill="#000000" stroke="#000000" points="345.777,-715.3497 354.7956,-720.9099 351.2129,-710.9392 345.777,-715.3497"/>
<polygon fill="#000000" stroke="#000000" points="653.1538,-315.0274 662.6261,-310.2814 652.2615,-308.0845 653.1538,-315.0274"/>
</g>
<!-- Markets&#45;&gt;Business_Owners -->
<g id="edge133" class="edge">
<title>Markets&#45;&gt;Business_Owners</title>
<path fill="none" stroke="#000000" d="M398.2217,-714.6671C429.0862,-688.2118 479.1781,-645.2759 510.5443,-618.3906"/>
<polygon fill="#000000" stroke="#000000" points="395.9153,-712.0342 390.6005,-721.1995 400.4709,-717.349 395.9153,-712.0342"/>
<polygon fill="#000000" stroke="#000000" points="513.1626,-620.7562 518.4774,-611.5908 508.607,-615.4414 513.1626,-620.7562"/>
</g>
<!-- Markets&#45;&gt;End_Users -->
<g id="edge74" class="edge">
<title>Markets&#45;&gt;End_Users</title>
<path fill="none" stroke="#000000" d="M357.0122,-710.6567C343.802,-682.262 326,-636.1737 326,-594 326,-594 326,-594 326,-522 326,-478.2273 335.2683,-463.1707 366,-432 383.1023,-414.6534 406.8229,-402.2938 428.4377,-393.8172"/>
<polygon fill="#000000" stroke="#000000" points="353.9774,-712.4228 361.4567,-719.9269 360.2895,-709.3966 353.9774,-712.4228"/>
<polygon fill="#000000" stroke="#000000" points="429.7172,-397.0756 437.8669,-390.3055 427.2742,-390.5157 429.7172,-397.0756"/>
</g>
<!-- Markets&#45;&gt;Blogs -->
<g id="edge69" class="edge">
<title>Markets&#45;&gt;Blogs</title>
<path fill="none" stroke="#000000" d="M413.0662,-720.4927C441.6345,-708.603 479.0796,-693.0189 506.6049,-681.5633"/>
<polygon fill="#000000" stroke="#000000" points="411.4275,-717.3836 403.54,-724.4574 414.1172,-723.8463 411.4275,-717.3836"/>
<polygon fill="#000000" stroke="#000000" points="508.0089,-684.7701 515.8964,-677.6963 505.3192,-678.3074 508.0089,-684.7701"/>
</g>
<!-- Blogs&#45;&gt;News -->
<g id="edge35" class="edge">
<title>Blogs&#45;&gt;News</title>
<path fill="none" stroke="#000000" d="M582.3335,-650.8133C601.469,-641.7626 623.9053,-628.7499 640,-612 671.1247,-579.6082 686,-566.9219 686,-522 686,-522 686,-522 686,-450 686,-409.7369 690.7166,-363.3594 694.2358,-334.3596"/>
<polygon fill="#000000" stroke="#000000" points="580.6269,-647.744 572.9638,-655.0603 583.5168,-654.1196 580.6269,-647.744"/>
<polygon fill="#000000" stroke="#000000" points="697.7452,-334.5021 695.5136,-324.145 690.7993,-333.6332 697.7452,-334.5021"/>
</g>
<!-- Blogs&#45;&gt;Programmers -->
<g id="edge64" class="edge">
<title>Blogs&#45;&gt;Programmers</title>
<path fill="none" stroke="#000000" d="M586.3284,-654.8497C612.573,-646.3468 645.7817,-632.5475 670,-612 789.652,-510.4837 865.3092,-330.6842 891.0975,-261.8619"/>
<polygon fill="#000000" stroke="#000000" points="585.1591,-651.5478 576.6441,-657.8523 587.2321,-658.2338 585.1591,-651.5478"/>
<polygon fill="#000000" stroke="#000000" points="894.4969,-262.7594 894.6739,-252.166 887.9295,-260.3368 894.4969,-262.7594"/>
</g>
<!-- Blogs&#45;&gt;Business_Owners -->
<g id="edge66" class="edge">
<title>Blogs&#45;&gt;Business_Owners</title>
<path fill="none" stroke="#000000" d="M542.0455,-637.8545C541.6931,-632.781 541.3256,-627.4887 540.9728,-622.4078"/>
<polygon fill="#000000" stroke="#000000" points="538.5538,-638.0979 542.7383,-647.8314 545.537,-637.6129 538.5538,-638.0979"/>
<polygon fill="#000000" stroke="#000000" points="544.4632,-622.1467 540.2787,-612.4133 537.48,-622.6317 544.4632,-622.1467"/>
</g>
<!-- Community&#45;&gt;Team -->
<g id="edge102" class="edge">
<title>Community&#45;&gt;Team</title>
<path fill="none" stroke="#000000" d="M300.0966,-937.5925C342.3936,-924.5221 400.7254,-906.4969 439.3615,-894.5578"/>
<polygon fill="#000000" stroke="#000000" points="298.8003,-934.3297 290.2795,-940.6261 300.8671,-941.0176 298.8003,-934.3297"/>
<polygon fill="#000000" stroke="#000000" points="440.701,-897.8073 449.2219,-891.5108 438.6343,-891.1193 440.701,-897.8073"/>
</g>
<!-- Community&#45;&gt;Hosts -->
<g id="edge120" class="edge">
<title>Community&#45;&gt;Hosts</title>
<path fill="none" stroke="#000000" d="M241.04,-925.7275C235.468,-896.7963 228,-850.4718 228,-810 228,-810 228,-810 228,-738 228,-687.6988 346.3379,-587.8587 401.863,-543.7815"/>
<polygon fill="#000000" stroke="#000000" points="237.6823,-926.7889 243.0632,-935.9156 244.5483,-925.4254 237.6823,-926.7889"/>
<polygon fill="#000000" stroke="#000000" points="404.2084,-546.3893 409.893,-537.4486 399.8736,-540.8929 404.2084,-546.3893"/>
</g>
<!-- Community&#45;&gt;Guide_Book -->
<g id="edge116" class="edge">
<title>Community&#45;&gt;Guide_Book</title>
<path fill="none" stroke="#000000" d="M311.0844,-942.4201C367.5417,-932.0116 451.931,-915.9505 525,-900 636.3195,-875.6996 765.4362,-843.4497 838.2458,-824.8857"/>
<polygon fill="#000000" stroke="#000000" points="310.428,-938.982 301.2257,-944.2325 311.6938,-945.8666 310.428,-938.982"/>
<polygon fill="#000000" stroke="#000000" points="839.3152,-828.225 848.1382,-822.3593 837.5831,-821.4427 839.3152,-828.225"/>
</g>
<!-- Community&#45;&gt;Community_Matters -->
<g id="edge45" class="edge">
<title>Community&#45;&gt;Community_Matters</title>
<path fill="none" stroke="#000000" d="M180.7582,-942.5536C150.4732,-934.6549 115.7042,-921.5401 90,-900 26.8705,-847.0975 0,-820.365 0,-738 0,-738 0,-738 0,-162 0,-98.8404 426.0517,-48.1403 627.1836,-27.7247"/>
<polygon fill="#000000" stroke="#000000" points="180.2903,-946.0429 190.8372,-945.0369 181.9649,-939.2461 180.2903,-946.0429"/>
<polygon fill="#000000" stroke="#000000" points="627.5764,-31.2029 637.1745,-26.7167 626.8737,-24.2383 627.5764,-31.2029"/>
</g>
<!-- Community&#45;&gt;Now_Building -->
<g id="edge51" class="edge">
<title>Community&#45;&gt;Now_Building</title>
<path fill="none" stroke="#000000" d="M193.7127,-937.2198C172.1947,-928.5663 148.2021,-916.3351 130,-900 95.2827,-868.8438 76,-856.6476 76,-810 76,-810 76,-810 76,-306 76,-209.4868 393.4278,-176.6272 549.0249,-166.3175"/>
<polygon fill="#000000" stroke="#000000" points="192.4866,-940.4981 203.0763,-940.8281 195.0037,-933.9663 192.4866,-940.4981"/>
<polygon fill="#000000" stroke="#000000" points="549.2813,-169.8083 559.0347,-165.6705 548.8298,-162.8229 549.2813,-169.8083"/>
</g>
<!-- Community&#45;&gt;News -->
<g id="edge110" class="edge">
<title>Community&#45;&gt;News</title>
<path fill="none" stroke="#000000" d="M218.3439,-929.9799C190.3739,-903.6852 152,-858.7301 152,-810 152,-810 152,-810 152,-450 152,-347.0354 519.6247,-316.0904 651.5639,-308.3"/>
<polygon fill="#000000" stroke="#000000" points="216.1701,-932.7345 225.9164,-936.8892 220.8883,-927.5635 216.1701,-932.7345"/>
<polygon fill="#000000" stroke="#000000" points="651.9689,-311.7826 661.7526,-307.7171 651.5689,-304.7941 651.9689,-311.7826"/>
</g>
<!-- Community&#45;&gt;dApps -->
<g id="edge118" class="edge">
<title>Community&#45;&gt;dApps</title>
<path fill="none" stroke="#000000" d="M229.501,-927.485C212.7466,-899.4925 190,-853.4818 190,-810 190,-810 190,-810 190,-738 190,-614.3274 320.4334,-512.0244 382.6807,-470.2437"/>
<polygon fill="#000000" stroke="#000000" points="226.6832,-929.5837 234.9118,-936.2577 232.6412,-925.909 226.6832,-929.5837"/>
<polygon fill="#000000" stroke="#000000" points="384.929,-472.9534 391.3463,-464.5231 381.0725,-467.1115 384.929,-472.9534"/>
</g>
<!-- Community&#45;&gt;Programmers -->
<g id="edge112" class="edge">
<title>Community&#45;&gt;Programmers</title>
<path fill="none" stroke="#000000" d="M207.5456,-933.0337C168.3339,-909.0141 114,-865.6845 114,-810 114,-810 114,-810 114,-378 114,-306.8356 618.353,-257.3271 819.5552,-240.408"/>
<polygon fill="#000000" stroke="#000000" points="205.7683,-936.0489 216.1528,-938.1492 209.3446,-930.0314 205.7683,-936.0489"/>
<polygon fill="#000000" stroke="#000000" points="820.0969,-243.8751 829.771,-239.5551 819.5144,-236.8994 820.0969,-243.8751"/>
</g>
<!-- Community&#45;&gt;Business_Owners -->
<g id="edge114" class="edge">
<title>Community&#45;&gt;Business_Owners</title>
<path fill="none" stroke="#000000" d="M248.3814,-925.8055C252.0147,-878.6483 265.1969,-782.7784 313,-720 354.4182,-665.6066 426.465,-631.3549 478.0848,-612.5205"/>
<polygon fill="#000000" stroke="#000000" points="244.8815,-925.6853 247.6943,-935.9 251.8654,-926.1608 244.8815,-925.6853"/>
<polygon fill="#000000" stroke="#000000" points="479.5459,-615.7158 487.7971,-609.0698 477.2024,-609.1198 479.5459,-615.7158"/>
</g>
<!-- Community&#45;&gt;Markets -->
<g id="edge106" class="edge">
<title>Community&#45;&gt;Markets</title>
<path fill="none" stroke="#000000" d="M264.2352,-927.3475C269.5345,-918.7541 275.2246,-909.0974 280,-900 304.4136,-853.491 300.7531,-836.9079 328,-792 334.0921,-781.9591 341.8214,-771.6923 349.0416,-762.844"/>
<polygon fill="#000000" stroke="#000000" points="261.2517,-925.5173 258.909,-935.8499 267.1839,-929.2334 261.2517,-925.5173"/>
<polygon fill="#000000" stroke="#000000" points="351.7348,-765.0794 355.4678,-755.164 346.3662,-760.5873 351.7348,-765.0794"/>
</g>
<!-- Community&#45;&gt;Blogs -->
<g id="edge108" class="edge">
<title>Community&#45;&gt;Blogs</title>
<path fill="none" stroke="#000000" d="M273.0753,-929.0545C282.3346,-920.0251 292.7503,-909.6701 302,-900 346.5964,-853.3767 353.0066,-837.2457 399,-792 438.1165,-753.5194 486.8468,-712.4558 516.6758,-688.0243"/>
<polygon fill="#000000" stroke="#000000" points="270.363,-926.8092 265.6203,-936.2833 275.236,-931.8346 270.363,-926.8092"/>
<polygon fill="#000000" stroke="#000000" points="519.027,-690.6231 524.5642,-681.5904 514.6027,-685.1986 519.027,-690.6231"/>
</g>
<!-- Investors&#45;&gt;Markets -->
<g id="edge73" class="edge">
<title>Investors&#45;&gt;Markets</title>
<path fill="none" stroke="#000000" d="M432.8761,-786.9569C422.2927,-778.5832 410.3453,-769.1303 399.7909,-760.7796"/>
<polygon fill="#000000" stroke="#000000" points="430.8801,-789.8407 440.894,-793.3008 435.2235,-784.3511 430.8801,-789.8407"/>
<polygon fill="#000000" stroke="#000000" points="401.6917,-757.8205 391.6778,-754.3604 397.3483,-763.3101 401.6917,-757.8205"/>
</g>
</g>
</svg>
