<?xml version="1.0" encoding="UTF-8" standalone="no"?>
<!DOCTYPE svg PUBLIC "-//W3C//DTD SVG 1.1//EN"
 "http://www.w3.org/Graphics/SVG/1.1/DTD/svg11.dtd">
<!-- Generated by graphviz version 2.40.1 (20161225.0304)
 -->
<!-- Title: Software Flow Pages: 1 -->
<svg width="1061pt" height="980pt"
 viewBox="0.00 0.00 1061.00 980.00" xmlns="http://www.w3.org/2000/svg" xmlns:xlink="http://www.w3.org/1999/xlink">
<g id="graph0" class="graph" transform="scale(1 1) rotate(0) translate(4 976)">
<title>Software Flow</title>
<polygon fill="#ffffff" stroke="transparent" points="-4,4 -4,-976 1057,-976 1057,4 -4,4"/>
<!-- Community -->
<g id="node1" class="node">
<title>Community</title>
<ellipse fill="none" stroke="#000000" cx="317" cy="-954" rx="64.189" ry="18"/>
<text text-anchor="middle" x="317" y="-950.3" font-family="Times,serif" font-size="14.00" fill="#000000">Community</text>
</g>
<!-- Team -->
<g id="node2" class="node">
<title>Team</title>
<ellipse fill="none" stroke="#000000" cx="446" cy="-882" rx="35.9954" ry="18"/>
<text text-anchor="middle" x="446" y="-878.3" font-family="Times,serif" font-size="14.00" fill="#000000">Team</text>
</g>
<!-- Community&#45;&gt;Team -->
<g id="edge1" class="edge">
<title>Community&#45;&gt;Team</title>
<path fill="none" stroke="#000000" d="M341.1187,-937.3008C360.5677,-925.7417 388.0261,-910.4135 410.0373,-898.8268"/>
<polygon fill="#000000" stroke="#000000" points="411.8427,-901.8329 419.0979,-894.1121 408.6114,-895.6233 411.8427,-901.8329"/>
</g>
<!-- Core Developers -->
<g id="node3" class="node">
<title>Core Developers</title>
<ellipse fill="none" stroke="#000000" cx="378" cy="-594" rx="87.9851" ry="18"/>
<text text-anchor="middle" x="378" y="-590.3" font-family="Times,serif" font-size="14.00" fill="#000000">Core Developers</text>
</g>
<!-- Community&#45;&gt;Core Developers -->
<g id="edge3" class="edge">
<title>Community&#45;&gt;Core Developers</title>
<path fill="none" stroke="#000000" d="M316.9221,-935.6526C322.3553,-876.9129 353.2644,-693.2013 369.3577,-622.3047"/>
<polygon fill="#000000" stroke="#000000" points="372.8258,-622.8467 371.7135,-612.3104 366.0125,-621.2407 372.8258,-622.8467"/>
</g>
<!-- Markets -->
<g id="node4" class="node">
<title>Markets</title>
<ellipse fill="none" stroke="#000000" cx="960" cy="-162" rx="49.2915" ry="18"/>
<text text-anchor="middle" x="960" y="-158.3" font-family="Times,serif" font-size="14.00" fill="#000000">Markets</text>
</g>
<!-- Community&#45;&gt;Markets -->
<g id="edge5" class="edge">
<title>Community&#45;&gt;Markets</title>
<path fill="none" stroke="#000000" d="M380.7163,-951.1311C471.3716,-946.1457 642.039,-933.0332 784,-900 899.4264,-873.1412 1035,-928.5101 1035,-810 1035,-810 1035,-810 1035,-306 1035,-259.312 1001.647,-214.2861 979.226,-187.3656"/>
<polygon fill="#000000" stroke="#000000" points="981.7975,-184.9861 972.6677,-179.6104 976.4525,-189.5062 981.7975,-184.9861"/>
</g>
<!-- Blogs -->
<g id="node5" class="node">
<title>Blogs</title>
<ellipse fill="none" stroke="#000000" cx="257" cy="-18" rx="36.2938" ry="18"/>
<text text-anchor="middle" x="257" y="-14.3" font-family="Times,serif" font-size="14.00" fill="#000000">Blogs</text>
</g>
<!-- Community&#45;&gt;Blogs -->
<g id="edge7" class="edge">
<title>Community&#45;&gt;Blogs</title>
<path fill="none" stroke="#000000" d="M259.0804,-946.0885C197.1548,-936.302 104.0803,-918.6385 74,-900 29.9805,-872.7244 0,-861.7849 0,-810 0,-810 0,-810 0,-162 0,-67.255 137.0396,-33.7973 211.0771,-22.8643"/>
<polygon fill="#000000" stroke="#000000" points="211.6652,-26.3162 221.0852,-21.4671 210.6973,-19.3835 211.6652,-26.3162"/>
</g>
<!-- News -->
<g id="node6" class="node">
<title>News</title>
<ellipse fill="none" stroke="#000000" cx="509" cy="-738" rx="36.2938" ry="18"/>
<text text-anchor="middle" x="509" y="-734.3" font-family="Times,serif" font-size="14.00" fill="#000000">News</text>
</g>
<!-- Community&#45;&gt;News -->
<g id="edge9" class="edge">
<title>Community&#45;&gt;News</title>
<path fill="none" stroke="#000000" d="M329.0937,-935.9555C360.2735,-896.8345 442.4239,-804.2591 484.1842,-761.0102"/>
<polygon fill="#000000" stroke="#000000" points="486.7666,-763.3753 491.2497,-753.7757 481.7587,-758.4844 486.7666,-763.3753"/>
</g>
<!-- Programmers -->
<g id="node7" class="node">
<title>Programmers</title>
<ellipse fill="none" stroke="#000000" cx="380" cy="-90" rx="74.9875" ry="18"/>
<text text-anchor="middle" x="380" y="-86.3" font-family="Times,serif" font-size="14.00" fill="#000000">Programmers</text>
</g>
<!-- Community&#45;&gt;Programmers -->
<g id="edge11" class="edge">
<title>Community&#45;&gt;Programmers</title>
<path fill="none" stroke="#000000" d="M257.0422,-947.3391C179.8938,-934.8535 56,-900.4485 56,-810 56,-810 56,-810 56,-594 56,-494.8261 112,-477.1739 112,-378 112,-378 112,-378 112,-234 112,-148.0292 222.3541,-112.9374 301.4989,-98.9328"/>
<polygon fill="#000000" stroke="#000000" points="302.1938,-102.3651 311.4716,-97.2492 301.0285,-95.4627 302.1938,-102.3651"/>
</g>
<!-- Business Owners -->
<g id="node8" class="node">
<title>Business Owners</title>
<ellipse fill="none" stroke="#000000" cx="804" cy="-306" rx="90.9839" ry="18"/>
<text text-anchor="middle" x="804" y="-302.3" font-family="Times,serif" font-size="14.00" fill="#000000">Business Owners</text>
</g>
<!-- Community&#45;&gt;Business Owners -->
<g id="edge13" class="edge">
<title>Community&#45;&gt;Business Owners</title>
<path fill="none" stroke="#000000" d="M375.6265,-946.4322C531.8777,-926.2261 946,-868.5493 946,-810 946,-810 946,-810 946,-666 946,-531.8645 855.7511,-389.9649 818.9537,-332.4753"/>
<polygon fill="#000000" stroke="#000000" points="821.8633,-330.5287 813.5289,-323.9875 815.9651,-334.2984 821.8633,-330.5287"/>
</g>
<!-- Documentation -->
<g id="node9" class="node">
<title>Documentation</title>
<ellipse fill="none" stroke="#000000" cx="262" cy="-378" rx="81.4863" ry="18"/>
<text text-anchor="middle" x="262" y="-374.3" font-family="Times,serif" font-size="14.00" fill="#000000">Documentation</text>
</g>
<!-- Community&#45;&gt;Documentation -->
<g id="edge15" class="edge">
<title>Community&#45;&gt;Documentation</title>
<path fill="none" stroke="#000000" d="M269.4492,-941.7672C212.4818,-923.0021 125,-881.5567 125,-810 125,-810 125,-810 125,-666 125,-561.0011 196.9238,-451.5886 236.7337,-403.3788"/>
<polygon fill="#000000" stroke="#000000" points="239.4996,-405.5287 243.3003,-395.639 234.1619,-401 239.4996,-405.5287"/>
</g>
<!-- Team&#45;&gt;Community -->
<g id="edge2" class="edge">
<title>Team&#45;&gt;Community</title>
<path fill="none" stroke="#000000" d="M425.2562,-896.6829C407.4242,-907.3963 381.3652,-922.0465 359.2266,-933.8536"/>
<polygon fill="#000000" stroke="#000000" points="357.5373,-930.7876 350.331,-938.5542 360.8078,-936.9766 357.5373,-930.7876"/>
</g>
<!-- Team&#45;&gt;Core Developers -->
<g id="edge17" class="edge">
<title>Team&#45;&gt;Core Developers</title>
<path fill="none" stroke="#000000" d="M438.2596,-863.9843C422.6669,-815.2939 390.6707,-680.7961 380.4184,-622.0573"/>
<polygon fill="#000000" stroke="#000000" points="383.8424,-621.3084 378.766,-612.0089 376.9351,-622.4443 383.8424,-621.3084"/>
</g>
<!-- Team&#45;&gt;Markets -->
<g id="edge24" class="edge">
<title>Team&#45;&gt;Markets</title>
<path fill="none" stroke="#000000" d="M480.8773,-877.8579C553.1225,-869.5795 716.0176,-849.8952 768,-828 830.0963,-801.8447 890,-805.3799 890,-738 890,-738 890,-738 890,-666 890,-532.0275 979,-511.9725 979,-378 979,-378 979,-378 979,-306 979,-265.3503 968.1158,-219.413 962.1007,-190.5828"/>
<polygon fill="#000000" stroke="#000000" points="965.4608,-189.5365 960.0666,-180.4177 958.5969,-190.9101 965.4608,-189.5365"/>
</g>
<!-- Team&#45;&gt;News -->
<g id="edge22" class="edge">
<title>Team&#45;&gt;News</title>
<path fill="none" stroke="#000000" d="M449.2078,-864.0535C457.629,-838.9908 477.3634,-793.336 492.0902,-764.3933"/>
<polygon fill="#000000" stroke="#000000" points="495.3282,-765.7547 496.869,-755.2725 489.1277,-762.506 495.3282,-765.7547"/>
</g>
<!-- Team&#45;&gt;Documentation -->
<g id="edge20" class="edge">
<title>Team&#45;&gt;Documentation</title>
<path fill="none" stroke="#000000" d="M428.2505,-866.2758C391.0674,-826.6789 307.1773,-718.4032 272,-612 248.4794,-540.8557 248.9421,-451.2164 254.4047,-406.3359"/>
<polygon fill="#000000" stroke="#000000" points="257.9057,-406.5756 255.8473,-396.1827 250.9753,-405.5909 257.9057,-406.5756"/>
</g>
<!-- Press Releases -->
<g id="node10" class="node">
<title>Press Releases</title>
<ellipse fill="none" stroke="#000000" cx="687" cy="-810" rx="80.6858" ry="18"/>
<text text-anchor="middle" x="687" y="-806.3" font-family="Times,serif" font-size="14.00" fill="#000000">Press Releases</text>
</g>
<!-- Team&#45;&gt;Press Releases -->
<g id="edge19" class="edge">
<title>Team&#45;&gt;Press Releases</title>
<path fill="none" stroke="#000000" d="M477.0132,-872.7347C515.3104,-861.2932 581.2351,-841.5978 629.019,-827.3221"/>
<polygon fill="#000000" stroke="#000000" points="630.0421,-830.6694 638.6217,-824.4533 628.0383,-823.9623 630.0421,-830.6694"/>
</g>
<!-- Core Developers&#45;&gt;Community -->
<g id="edge4" class="edge">
<title>Core Developers&#45;&gt;Community</title>
<path fill="none" stroke="#000000" d="M378.0813,-612.3104C372.6588,-670.9977 341.752,-854.7068 325.6525,-925.6506"/>
<polygon fill="#000000" stroke="#000000" points="322.1826,-925.1164 323.2956,-935.6526 328.9959,-926.722 322.1826,-925.1164"/>
</g>
<!-- Core Developers&#45;&gt;Team -->
<g id="edge18" class="edge">
<title>Core Developers&#45;&gt;Team</title>
<path fill="none" stroke="#000000" d="M385.7382,-612.0089C401.3293,-660.6912 433.3259,-795.1886 443.5801,-853.9345"/>
<polygon fill="#000000" stroke="#000000" points="440.1564,-854.6849 445.2329,-863.9843 447.0636,-853.5488 440.1564,-854.6849"/>
</g>
<!-- Core Developers&#45;&gt;Documentation -->
<g id="edge42" class="edge">
<title>Core Developers&#45;&gt;Documentation</title>
<path fill="none" stroke="#000000" d="M345.5113,-577.1495C332.0899,-567.5189 317.6318,-554.4871 308,-540 280.1036,-498.041 265.0273,-440.5541 260.6491,-406.5436"/>
<polygon fill="#000000" stroke="#000000" points="264.108,-405.9639 259.6009,-396.3756 257.1449,-406.6818 264.108,-405.9639"/>
</g>
<!-- Source Code -->
<g id="node11" class="node">
<title>Source Code</title>
<ellipse fill="none" stroke="#000000" cx="396" cy="-522" rx="69.5877" ry="18"/>
<text text-anchor="middle" x="396" y="-518.3" font-family="Times,serif" font-size="14.00" fill="#000000">Source Code</text>
</g>
<!-- Core Developers&#45;&gt;Source Code -->
<g id="edge26" class="edge">
<title>Core Developers&#45;&gt;Source Code</title>
<path fill="none" stroke="#000000" d="M382.5422,-575.8314C384.4884,-568.0463 386.8068,-558.7729 388.9663,-550.1347"/>
<polygon fill="#000000" stroke="#000000" points="392.3668,-550.9636 391.3967,-540.4133 385.5758,-549.2658 392.3668,-550.9636"/>
</g>
<!-- Dev News -->
<g id="node18" class="node">
<title>Dev News</title>
<ellipse fill="none" stroke="#000000" cx="509" cy="-666" rx="57.6901" ry="18"/>
<text text-anchor="middle" x="509" y="-662.3" font-family="Times,serif" font-size="14.00" fill="#000000">Dev News</text>
</g>
<!-- Core Developers&#45;&gt;Dev News -->
<g id="edge47" class="edge">
<title>Core Developers&#45;&gt;Dev News</title>
<path fill="none" stroke="#000000" d="M414.1677,-610.6907C433.4978,-620.7136 457.0432,-633.5726 475.8908,-644.3689"/>
<polygon fill="#000000" stroke="#000000" points="474.3185,-647.5027 484.7269,-649.4817 477.8244,-641.4439 474.3185,-647.5027"/>
</g>
<!-- Markets&#45;&gt;Community -->
<g id="edge6" class="edge">
<title>Markets&#45;&gt;Community</title>
<path fill="none" stroke="#000000" d="M983.2239,-178.3479C1011.009,-203.3204 1053,-253.6139 1053,-306 1053,-810 1053,-810 1053,-810 1053,-928.5101 917.4264,-873.1412 802,-900 659.1681,-933.2359 487.2764,-946.3058 391.1752,-951.222"/>
<polygon fill="#000000" stroke="#000000" points="390.7916,-947.7366 380.9772,-951.7275 391.1382,-954.728 390.7916,-947.7366"/>
</g>
<!-- Markets&#45;&gt;Team -->
<g id="edge25" class="edge">
<title>Markets&#45;&gt;Team</title>
<path fill="none" stroke="#000000" d="M971.4322,-179.5214C982.8479,-206.4204 997,-259.6478 997,-306 997,-378 997,-378 997,-378 997,-511.9725 908,-532.0275 908,-666 908,-738 908,-738 908,-738 908,-805.3799 848.0963,-801.8447 786,-828 734.1328,-849.8467 571.8444,-869.4922 491.6078,-877.8026"/>
<polygon fill="#000000" stroke="#000000" points="490.9072,-874.3558 481.3141,-878.8526 491.6176,-881.3197 490.9072,-874.3558"/>
</g>
<!-- Markets&#45;&gt;Business Owners -->
<g id="edge79" class="edge">
<title>Markets&#45;&gt;Business Owners</title>
<path fill="none" stroke="#000000" d="M958.7781,-180.1466C951.9899,-199.8239 935.1206,-231.1989 913,-252 898.0599,-266.0489 878.7669,-277.5914 860.5161,-286.3469"/>
<polygon fill="#000000" stroke="#000000" points="859.0062,-283.1889 851.381,-290.5446 861.929,-289.5495 859.0062,-283.1889"/>
</g>
<!-- End Users -->
<g id="node17" class="node">
<title>End Users</title>
<ellipse fill="none" stroke="#000000" cx="835" cy="-234" rx="59.5901" ry="18"/>
<text text-anchor="middle" x="835" y="-230.3" font-family="Times,serif" font-size="14.00" fill="#000000">End Users</text>
</g>
<!-- Markets&#45;&gt;End Users -->
<g id="edge82" class="edge">
<title>Markets&#45;&gt;End Users</title>
<path fill="none" stroke="#000000" d="M937.5424,-178.248C920.3905,-188.8147 896.4615,-202.6697 875.9789,-213.9242"/>
<polygon fill="#000000" stroke="#000000" points="874.2564,-210.8768 867.1453,-218.7307 877.602,-217.0255 874.2564,-210.8768"/>
</g>
<!-- Investors -->
<g id="node19" class="node">
<title>Investors</title>
<ellipse fill="none" stroke="#000000" cx="960" cy="-90" rx="53.8905" ry="18"/>
<text text-anchor="middle" x="960" y="-86.3" font-family="Times,serif" font-size="14.00" fill="#000000">Investors</text>
</g>
<!-- Markets&#45;&gt;Investors -->
<g id="edge80" class="edge">
<title>Markets&#45;&gt;Investors</title>
<path fill="none" stroke="#000000" d="M954.0476,-143.8314C953.2856,-136.0125 953.0696,-126.6923 953.3995,-118.0221"/>
<polygon fill="#000000" stroke="#000000" points="956.9004,-118.1239 954.0727,-107.9134 949.9159,-117.6587 956.9004,-118.1239"/>
</g>
<!-- Blogs&#45;&gt;Community -->
<g id="edge8" class="edge">
<title>Blogs&#45;&gt;Community</title>
<path fill="none" stroke="#000000" d="M221.894,-22.8298C155.3288,-33.7268 18,-67.1551 18,-162 18,-810 18,-810 18,-810 18,-861.7849 47.9805,-872.7244 92,-900 118.8302,-916.6247 195.7775,-932.4737 252.3118,-942.6492"/>
<polygon fill="#000000" stroke="#000000" points="251.8004,-946.1131 262.259,-944.4196 253.027,-939.2214 251.8004,-946.1131"/>
</g>
<!-- Blogs&#45;&gt;News -->
<g id="edge55" class="edge">
<title>Blogs&#45;&gt;News</title>
<path fill="none" stroke="#000000" d="M225.6387,-27.5713C173.1875,-44.4844 74,-85.3333 74,-162 74,-378 74,-378 74,-378 74,-582.0146 360.3343,-690.5223 468.4576,-725.3493"/>
<polygon fill="#000000" stroke="#000000" points="467.4584,-728.7041 478.0488,-728.3962 469.5779,-722.0327 467.4584,-728.7041"/>
</g>
<!-- Blogs&#45;&gt;Programmers -->
<g id="edge60" class="edge">
<title>Blogs&#45;&gt;Programmers</title>
<path fill="none" stroke="#000000" d="M283.7922,-30.5955C302.6195,-40.7292 327.7395,-55.2301 347.6548,-67.3678"/>
<polygon fill="#000000" stroke="#000000" points="346.0478,-70.4887 356.3976,-72.7542 349.7196,-64.5289 346.0478,-70.4887"/>
</g>
<!-- Blogs&#45;&gt;Business Owners -->
<g id="edge62" class="edge">
<title>Blogs&#45;&gt;Business Owners</title>
<path fill="none" stroke="#000000" d="M291.7839,-23.6134C386.1564,-40.382 643.4793,-92.1619 710,-144 754.1897,-178.436 744.4156,-205.0621 775,-252 780.8525,-260.9818 787.4999,-270.6074 793.1419,-279.2078"/>
<polygon fill="#000000" stroke="#000000" points="790.2509,-281.1839 798.582,-287.7294 796.1511,-277.4172 790.2509,-281.1839"/>
</g>
<!-- News&#45;&gt;Community -->
<g id="edge10" class="edge">
<title>News&#45;&gt;Community</title>
<path fill="none" stroke="#000000" d="M497.4244,-755.3935C467.0479,-793.6235 385.9626,-885.0716 343.4804,-929.262"/>
<polygon fill="#000000" stroke="#000000" points="340.7229,-927.0775 336.2651,-936.6889 345.7437,-931.9552 340.7229,-927.0775"/>
</g>
<!-- News&#45;&gt;Team -->
<g id="edge23" class="edge">
<title>News&#45;&gt;Team</title>
<path fill="none" stroke="#000000" d="M505.7861,-755.9647C497.342,-781.0892 477.5417,-826.8824 462.8077,-855.8074"/>
<polygon fill="#000000" stroke="#000000" points="459.5755,-854.4345 458.0288,-864.9158 465.7742,-857.6867 459.5755,-854.4345"/>
</g>
<!-- News&#45;&gt;Blogs -->
<g id="edge54" class="edge">
<title>News&#45;&gt;Blogs</title>
<path fill="none" stroke="#000000" d="M476.274,-730.0791C372.0898,-701.2744 56,-592.3531 56,-378 56,-378 56,-378 56,-162 56,-85.7842 154.0244,-44.966 213.2749,-27.8722"/>
<polygon fill="#000000" stroke="#000000" points="214.438,-31.1819 223.1422,-25.1414 212.5709,-24.4355 214.438,-31.1819"/>
</g>
<!-- News&#45;&gt;Programmers -->
<g id="edge53" class="edge">
<title>News&#45;&gt;Programmers</title>
<path fill="none" stroke="#000000" d="M534.5996,-724.9947C549.676,-715.7994 567.4252,-701.9242 576,-684 582.9048,-669.5666 578.5629,-663.7934 576,-648 559.2577,-544.8296 548.6278,-513.3476 483,-432 468.5936,-414.1429 457.0718,-416.0956 446,-396 426.2721,-360.1933 427,-346.8816 427,-306 427,-306 427,-306 427,-234 427,-191.6562 408.4068,-145.6118 394.6094,-117.273"/>
<polygon fill="#000000" stroke="#000000" points="397.5809,-115.3907 389.9675,-108.0228 391.3245,-118.5304 397.5809,-115.3907"/>
</g>
<!-- News&#45;&gt;Business Owners -->
<g id="edge56" class="edge">
<title>News&#45;&gt;Business Owners</title>
<path fill="none" stroke="#000000" d="M540.4752,-728.8751C565.9391,-720.879 601.0807,-706.8735 625,-684 731.1038,-582.5351 776.0624,-402.7051 794.5001,-333.8683"/>
<polygon fill="#000000" stroke="#000000" points="797.8906,-334.7381 797.1346,-324.1703 791.1354,-332.903 797.8906,-334.7381"/>
</g>
<!-- News&#45;&gt;End Users -->
<g id="edge58" class="edge">
<title>News&#45;&gt;End Users</title>
<path fill="none" stroke="#000000" d="M543.1743,-731.4656C576.3138,-724.351 626.4579,-710.287 663,-684 695.4712,-660.6415 694.4623,-645.0462 717,-612 801.7836,-487.6846 853.8792,-468.7468 895,-324 899.3724,-308.609 902.008,-302.3836 895,-288 888.8412,-275.3594 878.1337,-264.8068 867.3892,-256.4824"/>
<polygon fill="#000000" stroke="#000000" points="869.3857,-253.6067 859.2403,-250.5534 865.2673,-259.267 869.3857,-253.6067"/>
</g>
<!-- News&#45;&gt;Dev News -->
<g id="edge51" class="edge">
<title>News&#45;&gt;Dev News</title>
<path fill="none" stroke="#000000" d="M503.0843,-720.2022C502.3005,-712.3864 502.0689,-703.0171 502.3898,-694.2836"/>
<polygon fill="#000000" stroke="#000000" points="505.896,-694.2999 503.055,-684.0931 498.9109,-693.8439 505.896,-694.2999"/>
</g>
<!-- Programmers&#45;&gt;Community -->
<g id="edge12" class="edge">
<title>Programmers&#45;&gt;Community</title>
<path fill="none" stroke="#000000" d="M314.6883,-98.8959C240.5483,-112.8757 130,-147.9536 130,-234 130,-378 130,-378 130,-378 130,-477.1739 74,-494.8261 74,-594 74,-810 74,-810 74,-810 74,-892.7759 177.7661,-928.6133 249.7482,-943.6677"/>
<polygon fill="#000000" stroke="#000000" points="249.1875,-947.1248 259.6801,-945.6567 250.5621,-940.2611 249.1875,-947.1248"/>
</g>
<!-- Programmers&#45;&gt;Blogs -->
<g id="edge61" class="edge">
<title>Programmers&#45;&gt;Blogs</title>
<path fill="none" stroke="#000000" d="M346.6559,-73.8418C327.5696,-63.3664 303.9685,-49.6315 285.706,-38.4048"/>
<polygon fill="#000000" stroke="#000000" points="287.5524,-35.4315 277.2128,-33.1203 283.8544,-41.375 287.5524,-35.4315"/>
</g>
<!-- Programmers&#45;&gt;Business Owners -->
<g id="edge70" class="edge">
<title>Programmers&#45;&gt;Business Owners</title>
<path fill="none" stroke="#000000" d="M414.1717,-106.0983C483.6256,-141.6456 638.4278,-225.7659 692,-252 715.3056,-263.4127 741.5669,-275.2527 762.8837,-284.9274"/>
<polygon fill="#000000" stroke="#000000" points="761.4449,-288.118 771.9967,-289.0718 764.3428,-281.746 761.4449,-288.118"/>
</g>
<!-- Libraries -->
<g id="node14" class="node">
<title>Libraries</title>
<ellipse fill="none" stroke="#000000" cx="459" cy="-18" rx="52.7911" ry="18"/>
<text text-anchor="middle" x="459" y="-14.3" font-family="Times,serif" font-size="14.00" fill="#000000">Libraries</text>
</g>
<!-- Programmers&#45;&gt;Libraries -->
<g id="edge68" class="edge">
<title>Programmers&#45;&gt;Libraries</title>
<path fill="none" stroke="#000000" d="M393.6124,-72.2022C402.9897,-62.7961 415.6355,-51.1402 427.363,-41.0502"/>
<polygon fill="#000000" stroke="#000000" points="429.9015,-43.4876 435.2839,-34.3618 425.3853,-38.1392 429.9015,-43.4876"/>
</g>
<!-- Apps -->
<g id="node15" class="node">
<title>Apps</title>
<ellipse fill="none" stroke="#000000" cx="658" cy="-162" rx="33.5952" ry="18"/>
<text text-anchor="middle" x="658" y="-158.3" font-family="Times,serif" font-size="14.00" fill="#000000">Apps</text>
</g>
<!-- Programmers&#45;&gt;Apps -->
<g id="edge66" class="edge">
<title>Programmers&#45;&gt;Apps</title>
<path fill="none" stroke="#000000" d="M441.0966,-100.626C489.9042,-110.3535 559.5389,-125.952 619,-144 620.8842,-144.5719 622.8013,-145.1794 624.7257,-145.8121"/>
<polygon fill="#000000" stroke="#000000" points="623.695,-149.1592 634.2898,-149.137 625.9936,-142.5473 623.695,-149.1592"/>
</g>
<!-- Programmers&#45;&gt;Dev News -->
<g id="edge64" class="edge">
<title>Programmers&#45;&gt;Dev News</title>
<path fill="none" stroke="#000000" d="M385.819,-108.1854C389,-135.5017 389,-188.75 389,-234 389,-306 389,-306 389,-306 389,-408.4423 460.7088,-412.6132 507,-504 529.0588,-547.5479 531.0264,-563.3502 527,-612 526.2866,-620.6195 524.9432,-629.9344 523.1035,-638.3611"/>
<polygon fill="#000000" stroke="#000000" points="519.7014,-637.5383 520.6224,-648.0931 526.4845,-639.2677 519.7014,-637.5383"/>
</g>
<!-- Business Owners&#45;&gt;Community -->
<g id="edge14" class="edge">
<title>Business Owners&#45;&gt;Community</title>
<path fill="none" stroke="#000000" d="M821.8043,-323.9875C863.8366,-374.76 964,-524.6885 964,-666 964,-810 964,-810 964,-810 964,-868.2465 554.1497,-925.6295 386.8033,-946.1158"/>
<polygon fill="#000000" stroke="#000000" points="386.3612,-942.6436 376.8566,-947.3248 387.2059,-949.5925 386.3612,-942.6436"/>
</g>
<!-- Business Owners&#45;&gt;Markets -->
<g id="edge78" class="edge">
<title>Business Owners&#45;&gt;Markets</title>
<path fill="none" stroke="#000000" d="M837.8881,-289.2817C856.231,-280.2363 878.3264,-267.679 895,-252 914.3278,-233.8251 929.6466,-207.5778 940.9494,-188.1142"/>
<polygon fill="#000000" stroke="#000000" points="943.9967,-189.8366 946.0174,-179.4362 937.952,-186.3065 943.9967,-189.8366"/>
</g>
<!-- Business Owners&#45;&gt;Blogs -->
<g id="edge63" class="edge">
<title>Business Owners&#45;&gt;Blogs</title>
<path fill="none" stroke="#000000" d="M783.1329,-288.2204C774.5106,-277.7939 765.0106,-264.2939 757,-252 726.4156,-205.0621 736.1897,-178.436 692,-144 629.4316,-95.2419 398.0604,-46.5352 300.5841,-26.9657"/>
<polygon fill="#000000" stroke="#000000" points="301.244,-23.5285 290.7517,-24.9988 299.8709,-30.3925 301.244,-23.5285"/>
</g>
<!-- Business Owners&#45;&gt;News -->
<g id="edge57" class="edge">
<title>Business Owners&#45;&gt;News</title>
<path fill="none" stroke="#000000" d="M804.5461,-324.1703C798.5171,-384.0355 754.5506,-577.3265 643,-684 618.4704,-707.4571 582.1385,-721.588 553.3701,-729.4755"/>
<polygon fill="#000000" stroke="#000000" points="552.3507,-726.1237 543.5415,-732.01 554.0988,-732.902 552.3507,-726.1237"/>
</g>
<!-- Business Owners&#45;&gt;Programmers -->
<g id="edge71" class="edge">
<title>Business Owners&#45;&gt;Programmers</title>
<path fill="none" stroke="#000000" d="M759.1874,-290.2502C733.7766,-279.8223 701.7875,-265.6074 674,-252 623.2181,-227.1323 481.4767,-150.2514 415.003,-112.0331"/>
<polygon fill="#000000" stroke="#000000" points="416.5488,-108.8838 406.1401,-106.9063 413.0437,-114.9431 416.5488,-108.8838"/>
</g>
<!-- Hosts -->
<g id="node16" class="node">
<title>Hosts</title>
<ellipse fill="none" stroke="#000000" cx="691" cy="-378" rx="37.8943" ry="18"/>
<text text-anchor="middle" x="691" y="-374.3" font-family="Times,serif" font-size="14.00" fill="#000000">Hosts</text>
</g>
<!-- Business Owners&#45;&gt;Hosts -->
<g id="edge38" class="edge">
<title>Business Owners&#45;&gt;Hosts</title>
<path fill="none" stroke="#000000" d="M782.0764,-323.7342C766.0453,-334.6497 744.151,-348.613 725.7828,-359.6419"/>
<polygon fill="#000000" stroke="#000000" points="723.908,-356.6844 717.09,-364.7941 727.4771,-362.7062 723.908,-356.6844"/>
</g>
<!-- Business Owners&#45;&gt;End Users -->
<g id="edge76" class="edge">
<title>Business Owners&#45;&gt;End Users</title>
<path fill="none" stroke="#000000" d="M805.8702,-287.8314C808.5892,-279.6688 812.6076,-269.87 816.8717,-260.8827"/>
<polygon fill="#000000" stroke="#000000" points="820.0149,-262.4225 821.36,-251.9134 813.7549,-259.2899 820.0149,-262.4225"/>
</g>
<!-- Documentation&#45;&gt;Community -->
<g id="edge16" class="edge">
<title>Documentation&#45;&gt;Community</title>
<path fill="none" stroke="#000000" d="M252.1111,-395.9601C223.0903,-439.486 143,-555.2003 143,-666 143,-810 143,-810 143,-810 143,-875.2707 215.787,-915.488 267.2944,-936.2918"/>
<polygon fill="#000000" stroke="#000000" points="266.0542,-939.5649 276.642,-939.952 268.6065,-933.0467 266.0542,-939.5649"/>
</g>
<!-- Documentation&#45;&gt;Team -->
<g id="edge21" class="edge">
<title>Documentation&#45;&gt;Team</title>
<path fill="none" stroke="#000000" d="M265.3923,-396.1827C267.1814,-436.3087 264.5401,-534.9896 290,-612 322.5614,-710.4908 396.8602,-810.586 429.996,-856.3319"/>
<polygon fill="#000000" stroke="#000000" points="427.1833,-858.4155 435.8676,-864.4845 432.8635,-854.3245 427.1833,-858.4155"/>
</g>
<!-- Documentation&#45;&gt;Core Developers -->
<g id="edge41" class="edge">
<title>Documentation&#45;&gt;Core Developers</title>
<path fill="none" stroke="#000000" d="M270.4719,-396.3756C279.9143,-427.9292 295.0845,-493.5 326,-540 333.2801,-550.95 343.3175,-561.0686 352.7183,-569.5155"/>
<polygon fill="#000000" stroke="#000000" points="350.5516,-572.2698 360.3908,-576.1992 355.1496,-566.9916 350.5516,-572.2698"/>
</g>
<!-- Documentation&#45;&gt;Programmers -->
<g id="edge44" class="edge">
<title>Documentation&#45;&gt;Programmers</title>
<path fill="none" stroke="#000000" d="M269.1666,-360.0499C284.8688,-320.7869 323.577,-224.3594 357,-144 360.6002,-135.3441 364.5832,-125.9355 368.2089,-117.4331"/>
<polygon fill="#000000" stroke="#000000" points="371.5427,-118.5385 372.2567,-107.9677 365.1066,-115.7861 371.5427,-118.5385"/>
</g>
<!-- Documentation&#45;&gt;Dev News -->
<g id="edge43" class="edge">
<title>Documentation&#45;&gt;Dev News</title>
<path fill="none" stroke="#000000" d="M308.8536,-392.9309C358.0865,-411.1222 433.959,-446.7238 475,-504 503.6217,-543.944 509.1771,-602.8037 509.7106,-637.4887"/>
<polygon fill="#000000" stroke="#000000" points="506.2112,-637.8527 509.7302,-647.846 513.2112,-637.8394 506.2112,-637.8527"/>
</g>
<!-- Press Releases&#45;&gt;News -->
<g id="edge49" class="edge">
<title>Press Releases&#45;&gt;News</title>
<path fill="none" stroke="#000000" d="M647.9371,-794.1993C617.8713,-782.0378 576.5638,-765.3292 546.815,-753.2959"/>
<polygon fill="#000000" stroke="#000000" points="547.7851,-749.9129 537.2023,-749.4077 545.1602,-756.4022 547.7851,-749.9129"/>
</g>
<!-- Press Releases&#45;&gt;Business Owners -->
<g id="edge50" class="edge">
<title>Press Releases&#45;&gt;Business Owners</title>
<path fill="none" stroke="#000000" d="M729.0634,-794.6029C777.9488,-773.6725 852,-731.2057 852,-666 852,-666 852,-666 852,-594 852,-497.4599 825.4333,-385.1631 811.8289,-333.9866"/>
<polygon fill="#000000" stroke="#000000" points="815.1238,-332.7625 809.1368,-324.0214 808.366,-334.5882 815.1238,-332.7625"/>
</g>
<!-- Release -->
<g id="node12" class="node">
<title>Release</title>
<ellipse fill="none" stroke="#000000" cx="682" cy="-450" rx="46.5926" ry="18"/>
<text text-anchor="middle" x="682" y="-446.3" font-family="Times,serif" font-size="14.00" fill="#000000">Release</text>
</g>
<!-- Source Code&#45;&gt;Release -->
<g id="edge27" class="edge">
<title>Source Code&#45;&gt;Release</title>
<path fill="none" stroke="#000000" d="M446.1447,-509.3762C498.6701,-496.153 580.642,-475.5167 632.808,-462.384"/>
<polygon fill="#000000" stroke="#000000" points="633.6639,-465.7778 642.5068,-459.9423 631.9549,-458.9896 633.6639,-465.7778"/>
</g>
<!-- Release&#45;&gt;News -->
<g id="edge29" class="edge">
<title>Release&#45;&gt;News</title>
<path fill="none" stroke="#000000" d="M680.8959,-468.3014C677.4397,-510.846 663.5191,-617.8125 609,-684 593.6222,-702.6691 570.0419,-715.8408 549.6407,-724.4993"/>
<polygon fill="#000000" stroke="#000000" points="548.2078,-721.303 540.2323,-728.2774 550.8163,-727.7988 548.2078,-721.303"/>
</g>
<!-- Release&#45;&gt;Documentation -->
<g id="edge34" class="edge">
<title>Release&#45;&gt;Documentation</title>
<path fill="none" stroke="#000000" d="M639.0264,-442.6331C567.7621,-430.4164 424.2799,-405.8194 336.3236,-390.7412"/>
<polygon fill="#000000" stroke="#000000" points="336.8566,-387.2816 326.409,-389.0415 335.6738,-394.1809 336.8566,-387.2816"/>
</g>
<!-- Release&#45;&gt;Press Releases -->
<g id="edge33" class="edge">
<title>Release&#45;&gt;Press Releases</title>
<path fill="none" stroke="#000000" d="M698.1176,-467.0851C720.4268,-492.5969 758,-543.1172 758,-594 758,-666 758,-666 758,-666 758,-711.2163 729.4911,-756.9493 708.6036,-784.3883"/>
<polygon fill="#000000" stroke="#000000" points="705.8201,-782.266 702.4059,-792.2957 711.3295,-786.5842 705.8201,-782.266"/>
</g>
<!-- API Docs -->
<g id="node13" class="node">
<title>API Docs</title>
<ellipse fill="none" stroke="#000000" cx="507" cy="-378" rx="51.9908" ry="18"/>
<text text-anchor="middle" x="507" y="-374.3" font-family="Times,serif" font-size="14.00" fill="#000000">API Docs</text>
</g>
<!-- Release&#45;&gt;API Docs -->
<g id="edge28" class="edge">
<title>Release&#45;&gt;API Docs</title>
<path fill="none" stroke="#000000" d="M649.9023,-436.7941C621.9445,-425.2914 581.1673,-408.5145 550.3208,-395.8234"/>
<polygon fill="#000000" stroke="#000000" points="551.2631,-392.4265 540.6835,-391.8583 548.5996,-398.9 551.2631,-392.4265"/>
</g>
<!-- Release&#45;&gt;Libraries -->
<g id="edge30" class="edge">
<title>Release&#45;&gt;Libraries</title>
<path fill="none" stroke="#000000" d="M663.8046,-433.205C653.5728,-423.1067 641.0728,-409.6067 632,-396 551.2387,-274.8798 490.3421,-109.9545 468.1452,-45.4491"/>
<polygon fill="#000000" stroke="#000000" points="471.4571,-44.3167 464.9179,-35.9806 464.8314,-46.5751 471.4571,-44.3167"/>
</g>
<!-- Release&#45;&gt;Apps -->
<g id="edge31" class="edge">
<title>Release&#45;&gt;Apps</title>
<path fill="none" stroke="#000000" d="M665.9274,-433.0204C657.6331,-423.0671 648.3596,-409.7705 644,-396 621.3133,-324.3396 638.6486,-234.2817 650.066,-189.6717"/>
<polygon fill="#000000" stroke="#000000" points="653.4898,-190.4153 652.6742,-179.8519 646.7244,-188.6183 653.4898,-190.4153"/>
</g>
<!-- Release&#45;&gt;Hosts -->
<g id="edge32" class="edge">
<title>Release&#45;&gt;Hosts</title>
<path fill="none" stroke="#000000" d="M684.2711,-431.8314C685.2336,-424.131 686.3782,-414.9743 687.4479,-406.4166"/>
<polygon fill="#000000" stroke="#000000" points="690.9309,-406.7702 688.6983,-396.4133 683.9849,-405.9019 690.9309,-406.7702"/>
</g>
<!-- API Docs&#45;&gt;Programmers -->
<g id="edge46" class="edge">
<title>API Docs&#45;&gt;Programmers</title>
<path fill="none" stroke="#000000" d="M503.2979,-359.9797C493.183,-311.7888 464.2826,-181.0909 441,-144 433.8206,-132.5627 423.5115,-122.1454 413.4059,-113.5782"/>
<polygon fill="#000000" stroke="#000000" points="415.3876,-110.6798 405.4087,-107.12 410.9897,-116.1257 415.3876,-110.6798"/>
</g>
<!-- API Docs&#45;&gt;Dev News -->
<g id="edge45" class="edge">
<title>API Docs&#45;&gt;Dev News</title>
<path fill="none" stroke="#000000" d="M539.831,-392.2563C555.9668,-401.1523 573.8681,-414.3092 583,-432 619.8991,-503.4826 599.9206,-540.0207 564,-612 558.2582,-623.5057 549.0774,-633.9823 539.8485,-642.5812"/>
<polygon fill="#000000" stroke="#000000" points="537.3567,-640.1116 532.1593,-649.3441 541.9798,-645.3679 537.3567,-640.1116"/>
</g>
<!-- Libraries&#45;&gt;Programmers -->
<g id="edge69" class="edge">
<title>Libraries&#45;&gt;Programmers</title>
<path fill="none" stroke="#000000" d="M445.7431,-35.4407C436.5449,-44.6931 424.093,-56.1967 412.4463,-66.2523"/>
<polygon fill="#000000" stroke="#000000" points="409.926,-63.8004 404.5618,-72.937 414.4528,-69.1398 409.926,-63.8004"/>
</g>
<!-- Libraries&#45;&gt;Apps -->
<g id="edge72" class="edge">
<title>Libraries&#45;&gt;Apps</title>
<path fill="none" stroke="#000000" d="M488.6634,-33.1886C507.6125,-43.3355 532.4017,-57.4487 553,-72 582.3862,-92.7594 613.3481,-120.0543 633.9714,-139.1199"/>
<polygon fill="#000000" stroke="#000000" points="631.6432,-141.7345 641.3444,-145.9933 636.4164,-136.6143 631.6432,-141.7345"/>
</g>
<!-- Apps&#45;&gt;Programmers -->
<g id="edge67" class="edge">
<title>Apps&#45;&gt;Programmers</title>
<path fill="none" stroke="#000000" d="M628.2998,-153.3416C619.4396,-150.1631 609.857,-146.6883 601,-144 548.8213,-128.1624 488.8084,-114.211 444.4307,-104.458"/>
<polygon fill="#000000" stroke="#000000" points="445.157,-101.0342 434.6403,-102.3181 443.6623,-107.8727 445.157,-101.0342"/>
</g>
<!-- Apps&#45;&gt;Business Owners -->
<g id="edge73" class="edge">
<title>Apps&#45;&gt;Business Owners</title>
<path fill="none" stroke="#000000" d="M666.0549,-179.5777C675.6228,-199.0404 693.083,-230.5 715,-252 727.9421,-264.6958 744.4069,-275.7334 759.6465,-284.4628"/>
<polygon fill="#000000" stroke="#000000" points="757.9977,-287.5506 768.4419,-289.331 761.3876,-281.4261 757.9977,-287.5506"/>
</g>
<!-- Apps&#45;&gt;Hosts -->
<g id="edge36" class="edge">
<title>Apps&#45;&gt;Hosts</title>
<path fill="none" stroke="#000000" d="M664.6529,-179.8413C673.8692,-217.3969 687.494,-304.8523 691.4352,-349.9686"/>
<polygon fill="#000000" stroke="#000000" points="687.9462,-350.2474 692.1891,-359.9555 694.9263,-349.7204 687.9462,-350.2474"/>
</g>
<!-- Apps&#45;&gt;End Users -->
<g id="edge74" class="edge">
<title>Apps&#45;&gt;End Users</title>
<path fill="none" stroke="#000000" d="M686.7091,-171.729C715.8079,-182.718 760.8665,-200.8759 793.7453,-214.7562"/>
<polygon fill="#000000" stroke="#000000" points="792.5265,-218.0411 803.0988,-218.7307 795.264,-211.5986 792.5265,-218.0411"/>
</g>
<!-- Hosts&#45;&gt;Business Owners -->
<g id="edge37" class="edge">
<title>Hosts&#45;&gt;Business Owners</title>
<path fill="none" stroke="#000000" d="M709.8409,-362.3771C724.3848,-352.354 744.846,-339.1886 763.0319,-328.1012"/>
<polygon fill="#000000" stroke="#000000" points="764.9858,-331.0102 771.7409,-322.8481 761.3702,-325.0162 764.9858,-331.0102"/>
</g>
<!-- Hosts&#45;&gt;Apps -->
<g id="edge35" class="edge">
<title>Hosts&#45;&gt;Apps</title>
<path fill="none" stroke="#000000" d="M684.2973,-359.9555C675.0881,-322.3144 661.5176,-235.1867 657.5729,-190.1246"/>
<polygon fill="#000000" stroke="#000000" points="661.0624,-189.8521 656.817,-180.1451 654.0824,-190.3809 661.0624,-189.8521"/>
</g>
<!-- Hosts&#45;&gt;End Users -->
<g id="edge39" class="edge">
<title>Hosts&#45;&gt;End Users</title>
<path fill="none" stroke="#000000" d="M682.2462,-360.4725C678.2048,-340.7632 678.8015,-308.8014 695,-288 713.0376,-264.8368 742.7277,-251.5345 770.1975,-243.9331"/>
<polygon fill="#000000" stroke="#000000" points="771.3677,-247.2468 780.1918,-241.3829 769.6369,-240.4641 771.3677,-247.2468"/>
</g>
<!-- End Users&#45;&gt;Markets -->
<g id="edge83" class="edge">
<title>End Users&#45;&gt;Markets</title>
<path fill="none" stroke="#000000" d="M858.1909,-217.3008C875.7363,-206.517 900.0703,-192.4529 920.6056,-181.2067"/>
<polygon fill="#000000" stroke="#000000" points="922.3147,-184.2614 929.4382,-176.4188 918.9788,-178.1074 922.3147,-184.2614"/>
</g>
<!-- End Users&#45;&gt;News -->
<g id="edge59" class="edge">
<title>End Users&#45;&gt;News</title>
<path fill="none" stroke="#000000" d="M871.7409,-248.3031C887.7587,-257.4191 904.605,-270.7698 913,-288 920.008,-302.3836 917.3724,-308.609 913,-324 871.8792,-468.7468 819.7836,-487.6846 735,-612 712.4623,-645.0462 713.4712,-660.6415 681,-684 643.506,-710.9717 591.692,-725.0754 554.6295,-732.0076"/>
<polygon fill="#000000" stroke="#000000" points="553.8316,-728.5942 544.5912,-733.7774 555.0471,-735.4879 553.8316,-728.5942"/>
</g>
<!-- End Users&#45;&gt;Business Owners -->
<g id="edge77" class="edge">
<title>End Users&#45;&gt;Business Owners</title>
<path fill="none" stroke="#000000" d="M833.0481,-252.4133C830.3733,-260.3991 826.4746,-269.9155 822.327,-278.6975"/>
<polygon fill="#000000" stroke="#000000" points="819.1029,-277.3201 817.775,-287.8314 825.368,-280.4424 819.1029,-277.3201"/>
</g>
<!-- End Users&#45;&gt;Apps -->
<g id="edge75" class="edge">
<title>End Users&#45;&gt;Apps</title>
<path fill="none" stroke="#000000" d="M795.8562,-220.2879C764.8407,-208.3376 722.075,-190.9854 692.3664,-178.3222"/>
<polygon fill="#000000" stroke="#000000" points="693.3971,-174.9557 682.8277,-174.2221 690.6328,-181.3867 693.3971,-174.9557"/>
</g>
<!-- End Users&#45;&gt;Hosts -->
<g id="edge40" class="edge">
<title>End Users&#45;&gt;Hosts</title>
<path fill="none" stroke="#000000" d="M785.506,-244.1921C760.0606,-251.8353 730.8345,-265.0976 713,-288 699.4962,-305.341 696.8351,-330.4381 695.7699,-349.7268"/>
<polygon fill="#000000" stroke="#000000" points="692.2719,-349.6013 695.2835,-359.7591 699.2637,-349.9404 692.2719,-349.6013"/>
</g>
<!-- Dev News&#45;&gt;Core Developers -->
<g id="edge48" class="edge">
<title>Dev News&#45;&gt;Core Developers</title>
<path fill="none" stroke="#000000" d="M476.264,-651.0816C456.8174,-641.0801 432.2843,-627.7269 412.5415,-616.4504"/>
<polygon fill="#000000" stroke="#000000" points="414.2545,-613.398 403.8431,-611.4349 410.7579,-619.4621 414.2545,-613.398"/>
</g>
<!-- Dev News&#45;&gt;News -->
<g id="edge52" class="edge">
<title>Dev News&#45;&gt;News</title>
<path fill="none" stroke="#000000" d="M514.945,-684.0931C515.715,-691.9477 515.9326,-701.3282 515.5979,-710.0453"/>
<polygon fill="#000000" stroke="#000000" points="512.0938,-709.9901 514.9157,-720.2022 519.0781,-710.4593 512.0938,-709.9901"/>
</g>
<!-- Dev News&#45;&gt;Programmers -->
<g id="edge65" class="edge">
<title>Dev News&#45;&gt;Programmers</title>
<path fill="none" stroke="#000000" d="M504.9144,-647.6001C505.8166,-637.2025 508.0123,-623.9346 509,-612 513.0264,-563.3502 511.0588,-547.5479 489,-504 442.7088,-412.6132 371,-408.4423 371,-306 371,-306 371,-306 371,-234 371,-193.876 371,-147.4631 373.2178,-118.4177"/>
<polygon fill="#000000" stroke="#000000" points="376.7283,-118.4694 374.181,-108.1854 369.7591,-117.8133 376.7283,-118.4694"/>
</g>
<!-- Investors&#45;&gt;Markets -->
<g id="edge81" class="edge">
<title>Investors&#45;&gt;Markets</title>
<path fill="none" stroke="#000000" d="M965.9273,-107.9134C966.7012,-115.6993 966.9291,-125.01 966.6111,-133.6941"/>
<polygon fill="#000000" stroke="#000000" points="963.1082,-133.6254 965.9524,-143.8314 970.0935,-134.0794 963.1082,-133.6254"/>
</g>
</g>
</svg>
