<?xml version="1.0" encoding="UTF-8" standalone="no"?>
<!DOCTYPE svg PUBLIC "-//W3C//DTD SVG 1.1//EN"
 "http://www.w3.org/Graphics/SVG/1.1/DTD/svg11.dtd">
<!-- Generated by graphviz version 2.40.1 (20161225.0304)
 -->
<!-- Title: Software Flow Pages: 1 -->
<svg width="1408pt" height="1196pt"
 viewBox="0.00 0.00 1407.74 1196.00" xmlns="http://www.w3.org/2000/svg" xmlns:xlink="http://www.w3.org/1999/xlink">
<g id="graph0" class="graph" transform="scale(1 1) rotate(0) translate(4 1192)">
<title>Software Flow</title>
<polygon fill="#ffffff" stroke="transparent" points="-4,4 -4,-1192 1403.7422,-1192 1403.7422,4 -4,4"/>
<!-- Whitepapers -->
<g id="node1" class="node">
<title>Whitepapers</title>
<g id="a_node1"><a xlink:href="https://holo.host/whitepapers/" xlink:title="Whitepapers">
<ellipse fill="none" stroke="#000000" cx="451" cy="-1170" rx="69.5877" ry="18"/>
<text text-anchor="middle" x="451" y="-1166.3" font-family="Times,serif" font-size="14.00" fill="#000000">Whitepapers</text>
</a>
</g>
</g>
<!-- Source_Code -->
<g id="node2" class="node">
<title>Source_Code</title>
<g id="a_node2"><a xlink:href="https://github.com/holochain/holochain-rust" xlink:title="Source_Code">
<ellipse fill="none" stroke="#000000" cx="451" cy="-1098" rx="70.6878" ry="18"/>
<text text-anchor="middle" x="451" y="-1094.3" font-family="Times,serif" font-size="14.00" fill="#000000">Source_Code</text>
</a>
</g>
</g>
<!-- Whitepapers&#45;&gt;Source_Code -->
<g id="edge1" class="edge">
<title>Whitepapers&#45;&gt;Source_Code</title>
<path fill="none" stroke="#000000" d="M451,-1151.8314C451,-1144.131 451,-1134.9743 451,-1126.4166"/>
<polygon fill="#000000" stroke="#000000" points="454.5001,-1126.4132 451,-1116.4133 447.5001,-1126.4133 454.5001,-1126.4132"/>
</g>
<!-- Core_Developers -->
<g id="node4" class="node">
<title>Core_Developers</title>
<g id="a_node4"><a xlink:href="https://github.com/holochain/holochain-rust/graphs/contributors" xlink:title="Core_Developers">
<ellipse fill="none" stroke="#000000" cx="451" cy="-1026" rx="89.0842" ry="18"/>
<text text-anchor="middle" x="451" y="-1022.3" font-family="Times,serif" font-size="14.00" fill="#000000">Core_Developers</text>
</a>
</g>
</g>
<!-- Source_Code&#45;&gt;Core_Developers -->
<g id="edge3" class="edge">
<title>Source_Code&#45;&gt;Core_Developers</title>
<path fill="none" stroke="#000000" d="M451,-1069.5726C451,-1064.6792 451,-1059.5904 451,-1054.6901"/>
<polygon fill="#000000" stroke="#000000" points="447.5001,-1069.8313 451,-1079.8314 454.5001,-1069.8314 447.5001,-1069.8313"/>
<polygon fill="#000000" stroke="#000000" points="454.5001,-1054.4132 451,-1044.4133 447.5001,-1054.4133 454.5001,-1054.4132"/>
</g>
<!-- Software_Releases -->
<g id="node5" class="node">
<title>Software_Releases</title>
<g id="a_node5"><a xlink:href="https://github.com/holochain/holochain-rust/releases" xlink:title="Software_Releases">
<ellipse fill="none" stroke="#000000" cx="1070" cy="-882" rx="98.2828" ry="18"/>
<text text-anchor="middle" x="1070" y="-878.3" font-family="Times,serif" font-size="14.00" fill="#000000">Software_Releases</text>
</a>
</g>
</g>
<!-- Source_Code&#45;&gt;Software_Releases -->
<g id="edge2" class="edge">
<title>Source_Code&#45;&gt;Software_Releases</title>
<path fill="none" stroke="#000000" d="M520.8215,-1094.6177C688.8787,-1085.9524 1105.8958,-1061.1386 1158,-1026"/>
<path fill="none" stroke="#000000" d="M1158,-1026C1184.5306,-1008.108 1150.3189,-985.0645 1158,-954"/>
</g>
<!-- Dev_Quick_Start -->
<g id="node8" class="node">
<title>Dev_Quick_Start</title>
<g id="a_node8"><a xlink:href="https://developer.holochain.org/start.html" xlink:title="Dev_Quick_Start">
<ellipse fill="none" stroke="#000000" cx="1312" cy="-810" rx="87.9851" ry="18"/>
<text text-anchor="middle" x="1312" y="-806.3" font-family="Times,serif" font-size="14.00" fill="#000000">Dev_Quick_Start</text>
</a>
</g>
</g>
<!-- Source_Code&#45;&gt;Dev_Quick_Start -->
<g id="edge5" class="edge">
<title>Source_Code&#45;&gt;Dev_Quick_Start</title>
<path fill="none" stroke="#000000" d="M1158,-1026C1229.8304,-977.5582 1279.2516,-883.6725 1300.4102,-837.289"/>
<polygon fill="#000000" stroke="#000000" points="1303.6115,-838.7037 1304.4941,-828.1457 1297.2201,-835.8489 1303.6115,-838.7037"/>
</g>
<!-- Programmers -->
<g id="node18" class="node">
<title>Programmers</title>
<ellipse fill="none" stroke="#000000" cx="271" cy="-234" rx="74.9875" ry="18"/>
<text text-anchor="middle" x="271" y="-230.3" font-family="Times,serif" font-size="14.00" fill="#000000">Programmers</text>
</g>
<!-- Source_Code&#45;&gt;Programmers -->
<g id="edge128" class="edge">
<title>Source_Code&#45;&gt;Programmers</title>
<path fill="none" stroke="#000000" d="M382.1233,-1086.1177C273.843,-1065.458 76,-1018.8383 76,-954 76,-954 76,-954 76,-378 76,-310.0705 153.5223,-270.555 210.8089,-250.628"/>
<polygon fill="#000000" stroke="#000000" points="381.5187,-1089.5653 391.9937,-1087.9764 382.8142,-1082.6862 381.5187,-1089.5653"/>
<polygon fill="#000000" stroke="#000000" points="212.1631,-253.8654 220.5291,-247.3645 209.9351,-247.2294 212.1631,-253.8654"/>
</g>
<!-- Team -->
<g id="node3" class="node">
<title>Team</title>
<g id="a_node3"><a xlink:href="https://holo.host/team/" xlink:title="Team">
<ellipse fill="none" stroke="#000000" cx="676" cy="-882" rx="35.9954" ry="18"/>
<text text-anchor="middle" x="676" y="-878.3" font-family="Times,serif" font-size="14.00" fill="#000000">Team</text>
</a>
</g>
</g>
<!-- Guide_Book -->
<g id="node10" class="node">
<title>Guide_Book</title>
<g id="a_node10"><a xlink:href="https://developer.holochain.org/guide/latest/welcome.html" xlink:title="Guide_Book">
<ellipse fill="none" stroke="#000000" cx="664" cy="-162" rx="65.7887" ry="18"/>
<text text-anchor="middle" x="664" y="-158.3" font-family="Times,serif" font-size="14.00" fill="#000000">Guide_Book</text>
</a>
</g>
</g>
<!-- Team&#45;&gt;Guide_Book -->
<g id="edge86" class="edge">
<title>Team&#45;&gt;Guide_Book</title>
<path fill="none" stroke="#000000" d="M721.9273,-880.8333C805.2976,-877.7665 976.9135,-866.7884 1020,-828 1050.767,-800.3022 1044,-779.3978 1044,-738 1044,-738 1044,-738 1044,-378 1044,-237.4469 845.0843,-187.2082 735.0867,-170.172"/>
<polygon fill="#000000" stroke="#000000" points="721.6047,-877.3423 711.7313,-881.1849 721.8461,-884.3381 721.6047,-877.3423"/>
<polygon fill="#000000" stroke="#000000" points="735.4612,-166.6892 725.0536,-168.6718 734.426,-173.6122 735.4612,-166.6892"/>
</g>
<!-- News -->
<g id="node14" class="node">
<title>News</title>
<ellipse fill="none" stroke="#000000" cx="835" cy="-306" rx="36.2938" ry="18"/>
<text text-anchor="middle" x="835" y="-302.3" font-family="Times,serif" font-size="14.00" fill="#000000">News</text>
</g>
<!-- Team&#45;&gt;News -->
<g id="edge88" class="edge">
<title>Team&#45;&gt;News</title>
<path fill="none" stroke="#000000" d="M721.8782,-878.9389C791.0892,-873.3601 917.4834,-859.1165 949,-828 978.0917,-799.2775 968,-778.8816 968,-738 968,-738 968,-738 968,-594 968,-484.233 946.8871,-453.2624 889,-360 881.7726,-348.356 871.5778,-337.3112 861.9902,-328.2801"/>
<polygon fill="#000000" stroke="#000000" points="721.3907,-875.4662 711.692,-879.7307 721.9332,-882.4451 721.3907,-875.4662"/>
<polygon fill="#000000" stroke="#000000" points="864.2612,-325.6147 854.4996,-321.4961 859.5622,-330.8031 864.2612,-325.6147"/>
</g>
<!-- Press_Releases -->
<g id="node17" class="node">
<title>Press_Releases</title>
<ellipse fill="none" stroke="#000000" cx="858" cy="-810" rx="81.7856" ry="18"/>
<text text-anchor="middle" x="858" y="-806.3" font-family="Times,serif" font-size="14.00" fill="#000000">Press_Releases</text>
</g>
<!-- Team&#45;&gt;Press_Releases -->
<g id="edge85" class="edge">
<title>Team&#45;&gt;Press_Releases</title>
<path fill="none" stroke="#000000" d="M704.4375,-870.75C732.1905,-859.7708 774.9907,-842.8389 808.3631,-829.6366"/>
<polygon fill="#000000" stroke="#000000" points="809.9355,-832.7785 817.9467,-825.8453 807.3604,-826.2694 809.9355,-832.7785"/>
</g>
<!-- Community -->
<g id="node21" class="node">
<title>Community</title>
<ellipse fill="none" stroke="#000000" cx="405" cy="-666" rx="64.189" ry="18"/>
<text text-anchor="middle" x="405" y="-662.3" font-family="Times,serif" font-size="14.00" fill="#000000">Community</text>
</g>
<!-- Team&#45;&gt;Community -->
<g id="edge110" class="edge">
<title>Team&#45;&gt;Community</title>
<path fill="none" stroke="#000000" d="M648.4056,-860.0059C597.0551,-819.0771 487.2621,-731.5669 434.5015,-689.5141"/>
<polygon fill="#000000" stroke="#000000" points="646.5089,-862.9699 656.5103,-866.4658 650.8719,-857.4959 646.5089,-862.9699"/>
<polygon fill="#000000" stroke="#000000" points="436.5426,-686.6652 426.5411,-683.1693 432.1796,-692.1392 436.5426,-686.6652"/>
</g>
<!-- Markets -->
<g id="node22" class="node">
<title>Markets</title>
<ellipse fill="none" stroke="#000000" cx="702" cy="-738" rx="49.2915" ry="18"/>
<text text-anchor="middle" x="702" y="-734.3" font-family="Times,serif" font-size="14.00" fill="#000000">Markets</text>
</g>
<!-- Team&#45;&gt;Markets -->
<g id="edge90" class="edge">
<title>Team&#45;&gt;Markets</title>
<path fill="none" stroke="#000000" d="M655.4911,-857.1888C643.0295,-838.9514 631.2395,-813.676 641,-792 646.7382,-779.2566 657.1348,-768.3055 667.7387,-759.6618"/>
<polygon fill="#000000" stroke="#000000" points="652.8522,-859.5104 661.5711,-865.5296 658.5089,-855.387 652.8522,-859.5104"/>
<polygon fill="#000000" stroke="#000000" points="669.9803,-762.3541 675.8143,-753.5101 665.7385,-756.7857 669.9803,-762.3541"/>
</g>
<!-- Blogs -->
<g id="node23" class="node">
<title>Blogs</title>
<ellipse fill="none" stroke="#000000" cx="508" cy="-954" rx="36.2938" ry="18"/>
<text text-anchor="middle" x="508" y="-950.3" font-family="Times,serif" font-size="14.00" fill="#000000">Blogs</text>
</g>
<!-- Investors -->
<g id="node24" class="node">
<title>Investors</title>
<ellipse fill="none" stroke="#000000" cx="704" cy="-810" rx="53.8905" ry="18"/>
<text text-anchor="middle" x="704" y="-806.3" font-family="Times,serif" font-size="14.00" fill="#000000">Investors</text>
</g>
<!-- Team&#45;&gt;Investors -->
<g id="edge92" class="edge">
<title>Team&#45;&gt;Investors</title>
<path fill="none" stroke="#000000" d="M686.6481,-854.6191C688.8059,-849.0704 691.0766,-843.2315 693.2383,-837.6728"/>
<polygon fill="#000000" stroke="#000000" points="683.2839,-853.6136 682.9214,-864.2022 689.8079,-856.1508 683.2839,-853.6136"/>
<polygon fill="#000000" stroke="#000000" points="696.6013,-838.6818 696.9638,-828.0931 690.0772,-836.1446 696.6013,-838.6818"/>
</g>
<!-- Core_Developers&#45;&gt;Team -->
<g id="edge84" class="edge">
<title>Core_Developers&#45;&gt;Team</title>
<path fill="none" stroke="#000000" d="M494.7085,-1004.6244C513.0532,-995.2035 534.4027,-983.6413 553,-972 587.107,-950.6501 624.0956,-922.9071 648.5072,-903.8999"/>
<polygon fill="#000000" stroke="#000000" points="493.0238,-1001.5545 485.6955,-1009.2061 496.1959,-1007.7945 493.0238,-1001.5545"/>
<polygon fill="#000000" stroke="#000000" points="650.8786,-906.4883 656.592,-897.5659 646.5616,-900.9779 650.8786,-906.4883"/>
</g>
<!-- Core_Developers&#45;&gt;Software_Releases -->
<g id="edge102" class="edge">
<title>Core_Developers&#45;&gt;Software_Releases</title>
<path fill="none" stroke="#000000" d="M537.3302,-1021.4306C724.3101,-1010.9775 1150.6056,-983.9053 1158,-954"/>
<path fill="none" stroke="#000000" d="M1158,-954C1163.5804,-931.4314 1145.4012,-914.3896 1124.1426,-902.566"/>
<polygon fill="#000000" stroke="#000000" points="1125.7269,-899.445 1115.2345,-897.9752 1122.5202,-905.6674 1125.7269,-899.445"/>
</g>
<!-- API_Docs -->
<g id="node9" class="node">
<title>API_Docs</title>
<g id="a_node9"><a xlink:href="https://developer.holochain.org/api/latest/hdk/" xlink:title="API_Docs">
<ellipse fill="none" stroke="#000000" cx="342" cy="-162" rx="53.8905" ry="18"/>
<text text-anchor="middle" x="342" y="-158.3" font-family="Times,serif" font-size="14.00" fill="#000000">API_Docs</text>
</a>
</g>
</g>
<!-- Core_Developers&#45;&gt;API_Docs -->
<g id="edge94" class="edge">
<title>Core_Developers&#45;&gt;API_Docs</title>
<path fill="none" stroke="#000000" d="M368.5159,-1013.7515C306.5651,-1003.5515 227.6729,-988.1337 199,-972 151.05,-945.0194 114,-937.0196 114,-882 114,-882 114,-882 114,-306 114,-225.7327 216.2642,-188.391 283.8154,-172.4805"/>
<polygon fill="#000000" stroke="#000000" points="368.2612,-1017.256 378.6932,-1015.4058 369.3843,-1010.3467 368.2612,-1017.256"/>
<polygon fill="#000000" stroke="#000000" points="284.9426,-175.8142 293.9257,-170.1968 283.4002,-168.9862 284.9426,-175.8142"/>
</g>
<!-- Core_Developers&#45;&gt;Guide_Book -->
<g id="edge33" class="edge">
<title>Core_Developers&#45;&gt;Guide_Book</title>
<path fill="none" stroke="#000000" d="M550.045,-1024.8567C736.5076,-1021.8023 1125.2189,-1010.8052 1172,-972 1203.8626,-945.5698 1196,-923.3978 1196,-882 1196,-882 1196,-882 1196,-522 1196,-363.3066 1156.1617,-282.34 1012,-216 964.3175,-194.0576 824.0489,-177.2572 736.8411,-168.572"/>
<polygon fill="#000000" stroke="#000000" points="549.9047,-1021.3584 539.9617,-1025.0174 550.0163,-1028.3575 549.9047,-1021.3584"/>
<polygon fill="#000000" stroke="#000000" points="737.0355,-165.0743 726.741,-167.5787 736.3504,-172.0407 737.0355,-165.0743"/>
</g>
<!-- Dev_Pulse -->
<g id="node11" class="node">
<title>Dev_Pulse</title>
<g id="a_node11"><a xlink:href="https://medium.com/holochain" xlink:title="Dev_Pulse">
<ellipse fill="none" stroke="#000000" cx="323" cy="-90" rx="58.4896" ry="18"/>
<text text-anchor="middle" x="323" y="-86.3" font-family="Times,serif" font-size="14.00" fill="#000000">Dev_Pulse</text>
</a>
</g>
</g>
<!-- Core_Developers&#45;&gt;Dev_Pulse -->
<g id="edge98" class="edge">
<title>Core_Developers&#45;&gt;Dev_Pulse</title>
<path fill="none" stroke="#000000" d="M354.7907,-1020.351C290.1729,-1014.0091 204.1619,-1000.5517 133,-972 66.7596,-945.423 0,-953.3731 0,-882 0,-882 0,-882 0,-234 0,-191.0818 1.9713,-171.4059 35,-144 67.8569,-116.7366 181.4435,-102.0098 255.7677,-95.1006"/>
<polygon fill="#000000" stroke="#000000" points="354.6883,-1023.8567 364.9723,-1021.309 355.3441,-1016.8875 354.6883,-1023.8567"/>
<polygon fill="#000000" stroke="#000000" points="256.338,-98.5634 265.9822,-94.1771 255.7076,-91.5919 256.338,-98.5634"/>
</g>
<!-- Core_Developers&#45;&gt;Programmers -->
<g id="edge100" class="edge">
<title>Core_Developers&#45;&gt;Programmers</title>
<path fill="none" stroke="#000000" d="M386.8868,-1008.9699C299.0341,-983.7128 152,-933.7163 152,-882 152,-882 152,-882 152,-594 152,-453.316 173.5881,-415.5234 233,-288 237.5023,-278.3362 243.7484,-268.5672 249.8771,-260.0448"/>
<polygon fill="#000000" stroke="#000000" points="385.9305,-1012.3367 396.5065,-1011.7049 387.8448,-1005.6035 385.9305,-1012.3367"/>
<polygon fill="#000000" stroke="#000000" points="252.7153,-262.0936 255.8977,-251.988 247.108,-257.9033 252.7153,-262.0936"/>
</g>
<!-- Core_Developers&#45;&gt;Community -->
<g id="edge112" class="edge">
<title>Core_Developers&#45;&gt;Community</title>
<path fill="none" stroke="#000000" d="M433.2212,-999.0168C416.4945,-970.9813 394,-925.2403 394,-882 394,-882 394,-882 394,-810 394,-769.7591 398.3236,-723.3759 401.5495,-694.3689"/>
<polygon fill="#000000" stroke="#000000" points="430.4126,-1001.1312 438.6318,-1007.8166 436.3756,-997.4647 430.4126,-1001.1312"/>
<polygon fill="#000000" stroke="#000000" points="405.059,-694.485 402.7208,-684.1514 398.1045,-693.6877 405.059,-694.485"/>
</g>
<!-- Core_Developers&#45;&gt;Blogs -->
<g id="edge70" class="edge">
<title>Core_Developers&#45;&gt;Blogs</title>
<path fill="none" stroke="#000000" d="M471.5211,-1000.0786C476.8869,-993.3008 482.663,-986.0046 488.0012,-979.2617"/>
<polygon fill="#000000" stroke="#000000" points="468.5528,-998.1893 465.0899,-1008.2022 474.0411,-1002.5342 468.5528,-998.1893"/>
<polygon fill="#000000" stroke="#000000" points="491.0018,-981.1102 494.4647,-971.0972 485.5135,-976.7652 491.0018,-981.1102"/>
</g>
<!-- Hosts -->
<g id="node6" class="node">
<title>Hosts</title>
<g id="a_node6"><a xlink:href="https://holo.host/host/" xlink:title="Hosts">
<ellipse fill="none" stroke="#000000" cx="712" cy="-522" rx="37.8943" ry="18"/>
<text text-anchor="middle" x="712" y="-518.3" font-family="Times,serif" font-size="14.00" fill="#000000">Hosts</text>
</a>
</g>
</g>
<!-- Software_Releases&#45;&gt;Hosts -->
<g id="edge10" class="edge">
<title>Software_Releases&#45;&gt;Hosts</title>
<path fill="none" stroke="#000000" d="M1051.847,-864.0803C1038.255,-850.1001 1019.72,-829.793 1006,-810"/>
<path fill="none" stroke="#000000" d="M1006,-810C979.4928,-771.7599 961.4092,-772.3278 930,-738"/>
<path fill="none" stroke="#000000" d="M930,-738C863.0992,-664.8826 778.3246,-583.9813 736.9716,-545.2109"/>
<polygon fill="#000000" stroke="#000000" points="739.2275,-542.5285 729.5336,-538.2531 734.4455,-547.6405 739.2275,-542.5285"/>
</g>
<!-- Software_Releases&#45;&gt;Dev_Quick_Start -->
<g id="edge13" class="edge">
<title>Software_Releases&#45;&gt;Dev_Quick_Start</title>
<path fill="none" stroke="#000000" d="M1121.6182,-866.6425C1159.9621,-855.2344 1212.3456,-839.6492 1252.4596,-827.7145"/>
<polygon fill="#000000" stroke="#000000" points="1253.5304,-831.0476 1262.1171,-824.8412 1251.5342,-824.3383 1253.5304,-831.0476"/>
</g>
<!-- Software_Releases&#45;&gt;API_Docs -->
<g id="edge6" class="edge">
<title>Software_Releases&#45;&gt;API_Docs</title>
<path fill="none" stroke="#000000" d="M1089.9686,-864.1397C1115.9323,-838.8446 1158,-789.8586 1158,-738 1158,-738 1158,-738 1158,-594 1158,-530 1173.3877,-512.1226 1158,-450"/>
<path fill="none" stroke="#000000" d="M1158,-450C1144.9457,-405.3399 1110.1224,-415.0685 1082,-378"/>
<path fill="none" stroke="#000000" d="M1082,-378C998.0001,-267.2786 563.2363,-194.0423 402.1381,-170.3443"/>
<polygon fill="#000000" stroke="#000000" points="402.3297,-166.8353 391.9292,-168.8551 401.3193,-173.762 402.3297,-166.8353"/>
</g>
<!-- Software_Releases&#45;&gt;Guide_Book -->
<g id="edge15" class="edge">
<title>Software_Releases&#45;&gt;Guide_Book</title>
<path fill="none" stroke="#000000" d="M1082,-306C1059.148,-240.318 1018.0958,-242.9829 954,-216 884.2823,-186.6504 798.4747,-173.1921 738.3529,-167.0579"/>
<polygon fill="#000000" stroke="#000000" points="738.4773,-163.5535 728.1845,-166.0652 737.7971,-170.5204 738.4773,-163.5535"/>
</g>
<!-- Software_Releases&#45;&gt;Dev_Pulse -->
<g id="edge14" class="edge">
<title>Software_Releases&#45;&gt;Dev_Pulse</title>
<path fill="none" stroke="#000000" d="M1158,-450C1140.0439,-388.5705 1158,-370 1158,-306 1158,-306 1158,-306 1158,-234 1158,-156.2822 589.0015,-108.7484 390.4107,-94.525"/>
<polygon fill="#000000" stroke="#000000" points="390.6158,-91.0309 380.3929,-93.8133 390.1197,-98.0133 390.6158,-91.0309"/>
</g>
<!-- Software_Releases&#45;&gt;News -->
<g id="edge7" class="edge">
<title>Software_Releases&#45;&gt;News</title>
<path fill="none" stroke="#000000" d="M1006,-810C969.5397,-757.4011 1006,-730 1006,-666 1006,-666 1006,-666 1006,-522 1006,-455.8091 1006.2253,-432.0376 968,-378"/>
<path fill="none" stroke="#000000" d="M968,-378C946.8674,-346.6717 907.4588,-327.8119 877.0034,-317.303"/>
<polygon fill="#000000" stroke="#000000" points="878.057,-313.9652 867.4643,-314.1792 875.8785,-320.6176 878.057,-313.9652"/>
</g>
<!-- Libraries -->
<g id="node15" class="node">
<title>Libraries</title>
<ellipse fill="none" stroke="#000000" cx="528" cy="-162" rx="52.7911" ry="18"/>
<text text-anchor="middle" x="528" y="-158.3" font-family="Times,serif" font-size="14.00" fill="#000000">Libraries</text>
</g>
<!-- Software_Releases&#45;&gt;Libraries -->
<g id="edge8" class="edge">
<title>Software_Releases&#45;&gt;Libraries</title>
<path fill="none" stroke="#000000" d="M1082,-378C1062.659,-352.5064 1096.5209,-334.5157 1082,-306"/>
<path fill="none" stroke="#000000" d="M1082,-306C1059.0795,-260.9894 1022.9102,-281.6254 982,-252 963.1573,-238.3549 965.1493,-225.6924 944,-216 799.8314,-149.93 744.612,-210.5734 589,-180 584.7948,-179.1738 580.4626,-178.1844 576.1385,-177.1002"/>
<polygon fill="#000000" stroke="#000000" points="576.6916,-173.6255 566.1274,-174.4308 574.888,-180.3891 576.6916,-173.6255"/>
</g>
<!-- dApps -->
<g id="node16" class="node">
<title>dApps</title>
<ellipse fill="none" stroke="#000000" cx="562" cy="-450" rx="39.7935" ry="18"/>
<text text-anchor="middle" x="562" y="-446.3" font-family="Times,serif" font-size="14.00" fill="#000000">dApps</text>
</g>
<!-- Software_Releases&#45;&gt;dApps -->
<g id="edge9" class="edge">
<title>Software_Releases&#45;&gt;dApps</title>
<path fill="none" stroke="#000000" d="M930,-738C905.7179,-704.4715 926.862,-683.7569 906,-648 859.911,-569.0048 838.3086,-549.5476 759,-504 712.4079,-477.2417 651.9636,-463.242 610.3827,-456.2714"/>
<polygon fill="#000000" stroke="#000000" points="610.9283,-452.8143 600.5004,-454.6874 609.8203,-459.7261 610.9283,-452.8143"/>
</g>
<!-- Software_Releases&#45;&gt;Press_Releases -->
<g id="edge11" class="edge">
<title>Software_Releases&#45;&gt;Press_Releases</title>
<path fill="none" stroke="#000000" d="M1023.2133,-866.1102C990.5846,-855.0287 946.9348,-840.2043 912.696,-828.576"/>
<polygon fill="#000000" stroke="#000000" points="913.4458,-825.1344 902.8514,-825.2326 911.1947,-831.7625 913.4458,-825.1344"/>
</g>
<!-- Software_Releases&#45;&gt;Programmers -->
<g id="edge16" class="edge">
<title>Software_Releases&#45;&gt;Programmers</title>
<path fill="none" stroke="#000000" d="M968,-378C936.7153,-331.6217 930.5544,-311.9568 880,-288 833.6575,-266.0391 510.2218,-246.4612 354.4635,-238.1837"/>
<polygon fill="#000000" stroke="#000000" points="354.6219,-234.6873 344.4512,-237.6549 354.2526,-241.6775 354.6219,-234.6873"/>
</g>
<!-- Hosts&#45;&gt;dApps -->
<g id="edge103" class="edge">
<title>Hosts&#45;&gt;dApps</title>
<path fill="none" stroke="#000000" d="M675.8245,-504.6357C652.4371,-493.4098 622.0953,-478.8458 598.6205,-467.5778"/>
<polygon fill="#000000" stroke="#000000" points="674.6532,-507.9558 685.183,-509.1278 677.6823,-501.6451 674.6532,-507.9558"/>
<polygon fill="#000000" stroke="#000000" points="599.8745,-464.2975 589.3447,-463.1255 596.8454,-470.6082 599.8745,-464.2975"/>
</g>
<!-- Business_Owners -->
<g id="node19" class="node">
<title>Business_Owners</title>
<ellipse fill="none" stroke="#000000" cx="544" cy="-594" rx="92.0841" ry="18"/>
<text text-anchor="middle" x="544" y="-590.3" font-family="Times,serif" font-size="14.00" fill="#000000">Business_Owners</text>
</g>
<!-- End_Users -->
<g id="node20" class="node">
<title>End_Users</title>
<ellipse fill="none" stroke="#000000" cx="727" cy="-378" rx="61.1893" ry="18"/>
<text text-anchor="middle" x="727" y="-374.3" font-family="Times,serif" font-size="14.00" fill="#000000">End_Users</text>
</g>
<!-- Hosts&#45;&gt;End_Users -->
<g id="edge107" class="edge">
<title>Hosts&#45;&gt;End_Users</title>
<path fill="none" stroke="#000000" d="M714.9717,-493.4713C717.6108,-468.1367 721.4454,-431.3246 724.0713,-406.1157"/>
<polygon fill="#000000" stroke="#000000" points="711.4547,-493.4535 713.8998,-503.7623 718.4171,-494.1788 711.4547,-493.4535"/>
<polygon fill="#000000" stroke="#000000" points="727.5607,-406.3985 725.1157,-396.0896 720.5984,-405.6731 727.5607,-406.3985"/>
</g>
<!-- Documentation -->
<g id="node7" class="node">
<title>Documentation</title>
<g id="a_node7"><a xlink:href="https://developer.holochain.org/" xlink:title="Documentation">
<ellipse fill="none" stroke="#000000" cx="620" cy="-1170" rx="81.4863" ry="18"/>
<text text-anchor="middle" x="620" y="-1166.3" font-family="Times,serif" font-size="14.00" fill="#000000">Documentation</text>
</a>
</g>
</g>
<!-- API_Docs&#45;&gt;Dev_Pulse -->
<g id="edge22" class="edge">
<title>API_Docs&#45;&gt;Dev_Pulse</title>
<path fill="none" stroke="#000000" d="M337.2055,-143.8314C335.1511,-136.0463 332.704,-126.7729 330.4244,-118.1347"/>
<polygon fill="#000000" stroke="#000000" points="333.7948,-117.1892 327.8591,-108.4133 327.0265,-118.9753 333.7948,-117.1892"/>
</g>
<!-- Guide_Book&#45;&gt;Dev_Pulse -->
<g id="edge25" class="edge">
<title>Guide_Book&#45;&gt;Dev_Pulse</title>
<path fill="none" stroke="#000000" d="M615.1028,-149.8207C606.7411,-147.8198 598.1306,-145.8103 590,-144 519.0945,-128.2125 437.1552,-111.9299 382.9489,-101.4299"/>
<polygon fill="#000000" stroke="#000000" points="383.3066,-97.9343 372.8242,-99.4735 381.9785,-104.8072 383.3066,-97.9343"/>
</g>
<!-- Community_Matters -->
<g id="node12" class="node">
<title>Community_Matters</title>
<g id="a_node12"><a xlink:href="https://medium.com/holochain/tagged/community-matters" xlink:title="Community_Matters">
<ellipse fill="none" stroke="#000000" cx="280" cy="-18" rx="105.8812" ry="18"/>
<text text-anchor="middle" x="280" y="-14.3" font-family="Times,serif" font-size="14.00" fill="#000000">Community_Matters</text>
</a>
</g>
</g>
<!-- Dev_Pulse&#45;&gt;Community_Matters -->
<g id="edge53" class="edge">
<title>Dev_Pulse&#45;&gt;Community_Matters</title>
<path fill="none" stroke="#000000" d="M307.1592,-63.4758C303.5028,-57.3535 299.6113,-50.8376 295.9503,-44.7075"/>
<polygon fill="#000000" stroke="#000000" points="304.2384,-65.4114 312.3708,-72.2022 310.2482,-61.8222 304.2384,-65.4114"/>
<polygon fill="#000000" stroke="#000000" points="298.938,-42.884 290.8056,-36.0931 292.9282,-46.4732 298.938,-42.884"/>
</g>
<!-- Now_Building -->
<g id="node13" class="node">
<title>Now_Building</title>
<g id="a_node13"><a xlink:href="https://medium.com/holochain/tagged/now-building" xlink:title="Now_Building">
<ellipse fill="none" stroke="#000000" cx="119" cy="-162" rx="75.2868" ry="18"/>
<text text-anchor="middle" x="119" y="-158.3" font-family="Times,serif" font-size="14.00" fill="#000000">Now_Building</text>
</a>
</g>
</g>
<!-- Now_Building&#45;&gt;Dev_Pulse -->
<g id="edge56" class="edge">
<title>Now_Building&#45;&gt;Dev_Pulse</title>
<path fill="none" stroke="#000000" d="M170.9188,-143.6757C202.7582,-132.4383 243.257,-118.1446 274.4556,-107.1333"/>
<polygon fill="#000000" stroke="#000000" points="169.5339,-140.4528 161.2689,-147.0816 171.8637,-147.0538 169.5339,-140.4528"/>
<polygon fill="#000000" stroke="#000000" points="275.9704,-110.3104 284.2354,-103.6816 273.6406,-103.7094 275.9704,-110.3104"/>
</g>
<!-- Now_Building&#45;&gt;Community_Matters -->
<g id="edge59" class="edge">
<title>Now_Building&#45;&gt;Community_Matters</title>
<path fill="none" stroke="#000000" d="M142.0087,-136.8005C159.4543,-118.1825 184.3805,-92.601 208,-72 220.055,-61.4856 233.9827,-50.7449 246.3575,-41.6404"/>
<polygon fill="#000000" stroke="#000000" points="139.2637,-134.6127 135.0156,-144.3186 144.3892,-139.3803 139.2637,-134.6127"/>
<polygon fill="#000000" stroke="#000000" points="248.6052,-44.3335 254.6345,-35.6215 244.4883,-38.6721 248.6052,-44.3335"/>
</g>
<!-- News&#45;&gt;Dev_Pulse -->
<g id="edge37" class="edge">
<title>News&#45;&gt;Dev_Pulse</title>
<path fill="none" stroke="#000000" d="M826.9949,-278.252C814.6772,-240.9935 787.2889,-175.8077 739,-144 683.3042,-107.3134 494.3738,-95.4808 391.3577,-91.7173"/>
<polygon fill="#000000" stroke="#000000" points="823.7169,-279.4939 830.0744,-287.9694 830.3898,-277.3792 823.7169,-279.4939"/>
<polygon fill="#000000" stroke="#000000" points="391.4766,-88.2194 381.3604,-91.3676 391.2318,-95.2151 391.4766,-88.2194"/>
</g>
<!-- News&#45;&gt;Programmers -->
<g id="edge39" class="edge">
<title>News&#45;&gt;Programmers</title>
<path fill="none" stroke="#000000" d="M789.7072,-300.2179C693.2268,-287.9013 466.5375,-258.9622 347.3306,-243.7443"/>
<polygon fill="#000000" stroke="#000000" points="789.3565,-303.7015 799.7193,-301.4961 790.243,-296.7578 789.3565,-303.7015"/>
<polygon fill="#000000" stroke="#000000" points="347.55,-240.244 337.1873,-242.4494 346.6635,-247.1877 347.55,-240.244"/>
</g>
<!-- dApps&#45;&gt;Libraries -->
<g id="edge18" class="edge">
<title>dApps&#45;&gt;Libraries</title>
<path fill="none" stroke="#000000" d="M558.6867,-421.9345C552.1849,-366.8602 537.8231,-245.2075 531.3177,-190.103"/>
<polygon fill="#000000" stroke="#000000" points="555.2248,-422.4637 559.8731,-431.9843 562.1765,-421.6429 555.2248,-422.4637"/>
<polygon fill="#000000" stroke="#000000" points="534.7744,-189.5295 530.126,-180.0089 527.8227,-190.3503 534.7744,-189.5295"/>
</g>
<!-- dApps&#45;&gt;Programmers -->
<g id="edge130" class="edge">
<title>dApps&#45;&gt;Programmers</title>
<path fill="none" stroke="#000000" d="M535.0152,-427.3531C496.2822,-395.1791 422.278,-334.9355 356,-288 340.4949,-277.0199 322.8367,-265.6311 307.6473,-256.1592"/>
<polygon fill="#000000" stroke="#000000" points="533.2557,-430.4427 543.1795,-434.1535 537.7358,-425.0641 533.2557,-430.4427"/>
<polygon fill="#000000" stroke="#000000" points="309.3692,-253.1088 299.0242,-250.8214 305.6848,-259.0608 309.3692,-253.1088"/>
</g>
<!-- dApps&#45;&gt;Business_Owners -->
<g id="edge19" class="edge">
<title>dApps&#45;&gt;Business_Owners</title>
<path fill="none" stroke="#000000" d="M559.7388,-468.0896C556.6784,-492.5727 551.1853,-536.5174 547.5661,-565.4713"/>
<polygon fill="#000000" stroke="#000000" points="544.0472,-565.4054 546.2797,-575.7623 550.9931,-566.2737 544.0472,-565.4054"/>
</g>
<!-- dApps&#45;&gt;End_Users -->
<g id="edge20" class="edge">
<title>dApps&#45;&gt;End_Users</title>
<path fill="none" stroke="#000000" d="M600.177,-433.341C625.0303,-422.4959 657.5162,-408.3202 683.387,-397.0311"/>
<polygon fill="#000000" stroke="#000000" points="598.5064,-430.2512 590.7408,-437.4586 601.306,-436.6669 598.5064,-430.2512"/>
<polygon fill="#000000" stroke="#000000" points="684.827,-400.2215 692.5926,-393.0141 682.0274,-393.8057 684.827,-400.2215"/>
</g>
<!-- Press_Releases&#45;&gt;News -->
<g id="edge34" class="edge">
<title>Press_Releases&#45;&gt;News</title>
<path fill="none" stroke="#000000" d="M875,-738C860.0899,-675.3041 892,-658.4444 892,-594 892,-594 892,-594 892,-450 892,-406.2766 869,-359.9962 852.2203,-332.0501"/>
<polygon fill="#000000" stroke="#000000" points="855.0481,-329.9684 846.8104,-323.3058 849.0953,-333.6513 855.0481,-329.9684"/>
</g>
<!-- Press_Releases&#45;&gt;Business_Owners -->
<g id="edge35" class="edge">
<title>Press_Releases&#45;&gt;Business_Owners</title>
<path fill="none" stroke="#000000" d="M868.2561,-792.0498C875.3485,-777.1764 882.3061,-755.6876 875,-738"/>
<path fill="none" stroke="#000000" d="M875,-738C863.7465,-710.7562 690.2492,-645.7779 599.0653,-613.2456"/>
<polygon fill="#000000" stroke="#000000" points="600.0322,-609.8748 589.4375,-609.8221 597.6869,-616.4702 600.0322,-609.8748"/>
</g>
<!-- Press_Releases&#45;&gt;Markets -->
<g id="edge36" class="edge">
<title>Press_Releases&#45;&gt;Markets</title>
<path fill="none" stroke="#000000" d="M822.6012,-793.6621C798.6078,-782.5882 766.8566,-767.9338 741.9559,-756.4412"/>
<polygon fill="#000000" stroke="#000000" points="743.3247,-753.2182 732.7784,-752.2054 740.3913,-759.5739 743.3247,-753.2182"/>
</g>
<!-- Programmers&#45;&gt;API_Docs -->
<g id="edge24" class="edge">
<title>Programmers&#45;&gt;API_Docs</title>
<path fill="none" stroke="#000000" d="M295.6455,-209.0074C302.7324,-201.8206 310.4579,-193.9864 317.5339,-186.8107"/>
<polygon fill="#000000" stroke="#000000" points="293.0799,-206.6244 288.5506,-216.2022 298.0642,-211.5394 293.0799,-206.6244"/>
<polygon fill="#000000" stroke="#000000" points="320.367,-188.9225 324.8963,-179.3446 315.3827,-184.0074 320.367,-188.9225"/>
</g>
<!-- Programmers&#45;&gt;Guide_Book -->
<g id="edge27" class="edge">
<title>Programmers&#45;&gt;Guide_Book</title>
<path fill="none" stroke="#000000" d="M344.9234,-223.0087C409.756,-213.0068 506.4463,-197.2113 590,-180 595.0505,-178.9596 600.2796,-177.8185 605.5156,-176.6315"/>
<polygon fill="#000000" stroke="#000000" points="344.1515,-219.5861 334.7986,-224.5635 345.214,-226.505 344.1515,-219.5861"/>
<polygon fill="#000000" stroke="#000000" points="606.5967,-179.9738 615.5484,-174.3065 605.0164,-173.1545 606.5967,-179.9738"/>
</g>
<!-- Programmers&#45;&gt;Dev_Pulse -->
<g id="edge50" class="edge">
<title>Programmers&#45;&gt;Dev_Pulse</title>
<path fill="none" stroke="#000000" d="M269.3255,-205.6673C269.2461,-187.4258 271.0481,-163.5571 279,-144 283.2802,-133.4732 290.3466,-123.3986 297.5771,-114.8626"/>
<polygon fill="#000000" stroke="#000000" points="265.8268,-205.7659 269.5574,-215.6822 272.8249,-205.6038 265.8268,-205.7659"/>
<polygon fill="#000000" stroke="#000000" points="300.3946,-116.9636 304.4741,-107.1856 295.1874,-112.2854 300.3946,-116.9636"/>
</g>
<!-- Programmers&#45;&gt;Community_Matters -->
<g id="edge66" class="edge">
<title>Programmers&#45;&gt;Community_Matters</title>
<path fill="none" stroke="#000000" d="M263.3866,-206.0924C255.669,-173.5723 246.159,-118.3731 256,-72 257.8981,-63.0557 261.3835,-53.7941 265.1209,-45.5203"/>
<polygon fill="#000000" stroke="#000000" points="259.994,-206.9534 265.8025,-215.8141 266.7874,-205.2651 259.994,-206.9534"/>
<polygon fill="#000000" stroke="#000000" points="268.3568,-46.8676 269.5441,-36.3395 262.0505,-43.8294 268.3568,-46.8676"/>
</g>
<!-- Programmers&#45;&gt;Now_Building -->
<g id="edge64" class="edge">
<title>Programmers&#45;&gt;Now_Building</title>
<path fill="none" stroke="#000000" d="M227.7527,-213.5144C207.1917,-203.775 182.676,-192.1623 162.1301,-182.43"/>
<polygon fill="#000000" stroke="#000000" points="226.3525,-216.724 236.8882,-217.8418 229.3492,-210.3978 226.3525,-216.724"/>
<polygon fill="#000000" stroke="#000000" points="163.5336,-179.2221 152.9979,-178.1043 160.537,-185.5483 163.5336,-179.2221"/>
</g>
<!-- Programmers&#45;&gt;Libraries -->
<g id="edge131" class="edge">
<title>Programmers&#45;&gt;Libraries</title>
<path fill="none" stroke="#000000" d="M329.6185,-217.5777C374.2148,-205.0838 434.949,-188.0688 477.4276,-176.1681"/>
<polygon fill="#000000" stroke="#000000" points="328.6297,-214.2199 319.9447,-220.2879 330.5181,-220.9604 328.6297,-214.2199"/>
<polygon fill="#000000" stroke="#000000" points="478.5892,-179.4775 487.2743,-173.4095 476.7008,-172.7371 478.5892,-179.4775"/>
</g>
<!-- Business_Owners&#45;&gt;Hosts -->
<g id="edge106" class="edge">
<title>Business_Owners&#45;&gt;Hosts</title>
<path fill="none" stroke="#000000" d="M591.9074,-573.4683C618.1497,-562.2216 650.1953,-548.4877 674.5813,-538.0366"/>
<polygon fill="#000000" stroke="#000000" points="590.3553,-570.3255 582.5426,-577.4817 593.1128,-576.7595 590.3553,-570.3255"/>
<polygon fill="#000000" stroke="#000000" points="676.0435,-541.2179 683.8562,-534.0616 673.286,-534.7839 676.0435,-541.2179"/>
</g>
<!-- Business_Owners&#45;&gt;Guide_Book -->
<g id="edge31" class="edge">
<title>Business_Owners&#45;&gt;Guide_Book</title>
<path fill="none" stroke="#000000" d="M561.2542,-567.587C576.625,-542.8404 598.5546,-504.321 611,-468 644.8339,-369.2578 657.8052,-244.864 662.1187,-190.0837"/>
<polygon fill="#000000" stroke="#000000" points="558.2902,-565.7257 555.9177,-576.0515 564.2116,-569.4589 558.2902,-565.7257"/>
<polygon fill="#000000" stroke="#000000" points="665.6108,-190.3181 662.8696,-180.0841 658.6305,-189.7939 665.6108,-190.3181"/>
</g>
<!-- Business_Owners&#45;&gt;Now_Building -->
<g id="edge62" class="edge">
<title>Business_Owners&#45;&gt;Now_Building</title>
<path fill="none" stroke="#000000" d="M527.424,-567.2143C515.336,-548.6119 497.9847,-523.7237 480,-504 364.2706,-377.0806 304.5515,-377.2337 187,-252 168.1404,-231.9079 149.4687,-206.7116 136.4764,-188.0929"/>
<polygon fill="#000000" stroke="#000000" points="524.5755,-569.2564 532.915,-575.7913 530.4709,-565.4822 524.5755,-569.2564"/>
<polygon fill="#000000" stroke="#000000" points="139.3095,-186.0359 130.7528,-179.7883 133.5458,-190.0084 139.3095,-186.0359"/>
</g>
<!-- Business_Owners&#45;&gt;News -->
<g id="edge44" class="edge">
<title>Business_Owners&#45;&gt;News</title>
<path fill="none" stroke="#000000" d="M534.2053,-566.5149C520.6564,-526.3838 499.3298,-454.1188 513,-432 543.5302,-382.6011 711.832,-335.9016 792.2222,-316.0368"/>
<polygon fill="#000000" stroke="#000000" points="530.8963,-567.6555 537.4563,-575.9752 537.5163,-565.3806 530.8963,-567.6555"/>
<polygon fill="#000000" stroke="#000000" points="793.1544,-319.4121 802.037,-313.6371 791.4918,-312.6124 793.1544,-319.4121"/>
</g>
<!-- Business_Owners&#45;&gt;Programmers -->
<g id="edge134" class="edge">
<title>Business_Owners&#45;&gt;Programmers</title>
<path fill="none" stroke="#000000" d="M512.1348,-569.9824C501.3593,-561.1366 489.6287,-550.6605 480,-540 395.4158,-446.3516 317.7493,-316.5632 286.0584,-260.9976"/>
<polygon fill="#000000" stroke="#000000" points="510.1482,-572.8759 520.138,-576.4051 514.5295,-567.4165 510.1482,-572.8759"/>
<polygon fill="#000000" stroke="#000000" points="289.0031,-259.0948 281.0275,-252.1205 282.9131,-262.5463 289.0031,-259.0948"/>
</g>
<!-- Business_Owners&#45;&gt;End_Users -->
<g id="edge135" class="edge">
<title>Business_Owners&#45;&gt;End_Users</title>
<path fill="none" stroke="#000000" d="M582.7867,-571.4727C596.0997,-562.6651 610.5236,-551.8315 622,-540 662.2479,-498.5066 695.924,-439.3903 713.6147,-405.2315"/>
<polygon fill="#000000" stroke="#000000" points="580.7657,-568.611 574.2408,-576.9582 584.5469,-574.5019 580.7657,-568.611"/>
<polygon fill="#000000" stroke="#000000" points="716.9549,-406.3853 718.3772,-395.8863 710.7181,-403.2068 716.9549,-406.3853"/>
</g>
<!-- End_Users&#45;&gt;News -->
<g id="edge46" class="edge">
<title>End_Users&#45;&gt;News</title>
<path fill="none" stroke="#000000" d="M760.4315,-355.7123C774.5471,-346.302 790.8671,-335.4219 804.634,-326.244"/>
<polygon fill="#000000" stroke="#000000" points="758.1564,-353.0225 751.7774,-361.4817 762.0394,-358.8469 758.1564,-353.0225"/>
<polygon fill="#000000" stroke="#000000" points="806.8843,-328.9503 813.2633,-320.4911 803.0014,-323.126 806.8843,-328.9503"/>
</g>
<!-- Community&#45;&gt;Hosts -->
<g id="edge125" class="edge">
<title>Community&#45;&gt;Hosts</title>
<path fill="none" stroke="#000000" d="M472.2919,-656.2144C532.9776,-646.4375 616.8834,-630.2643 645,-612 668.9402,-596.4487 687.4279,-569.207 698.8601,-548.7567"/>
<polygon fill="#000000" stroke="#000000" points="471.7137,-652.7622 462.3863,-657.787 472.8114,-659.6757 471.7137,-652.7622"/>
<polygon fill="#000000" stroke="#000000" points="701.9657,-550.3713 703.6104,-539.9049 695.7978,-547.0612 701.9657,-550.3713"/>
</g>
<!-- Community&#45;&gt;Guide_Book -->
<g id="edge29" class="edge">
<title>Community&#45;&gt;Guide_Book</title>
<path fill="none" stroke="#000000" d="M403.9585,-637.8751C403.7838,-620.0246 404.4531,-596.5079 408,-576 413.7251,-542.8984 420.1822,-535.8036 431,-504 441.9561,-471.7898 441.6745,-462.3753 457,-432 507.4282,-332.0505 596.6523,-232.1 639.5833,-186.9373"/>
<polygon fill="#000000" stroke="#000000" points="400.46,-637.9906 404.1508,-647.9218 407.4587,-637.8566 400.46,-637.9906"/>
<polygon fill="#000000" stroke="#000000" points="642.1639,-189.3029 646.5528,-179.6599 637.1084,-184.4612 642.1639,-189.3029"/>
</g>
<!-- Community&#45;&gt;Community_Matters -->
<g id="edge52" class="edge">
<title>Community&#45;&gt;Community_Matters</title>
<path fill="none" stroke="#000000" d="M374.6635,-642.4729C344.9161,-616.51 304,-571.7557 304,-522 304,-522 304,-522 304,-450 304,-306.7833 419.6822,-286.4621 405,-144 401.649,-111.4852 410.039,-97.8241 390,-72 378.3353,-56.9678 361.3949,-45.848 344.2889,-37.7417"/>
<polygon fill="#000000" stroke="#000000" points="372.4419,-645.1779 382.3336,-648.9732 376.9676,-639.8377 372.4419,-645.1779"/>
<polygon fill="#000000" stroke="#000000" points="345.3619,-34.3892 334.8009,-33.5425 342.5288,-40.7903 345.3619,-34.3892"/>
</g>
<!-- Community&#45;&gt;Now_Building -->
<g id="edge58" class="edge">
<title>Community&#45;&gt;Now_Building</title>
<path fill="none" stroke="#000000" d="M340.3213,-653.6081C314.1995,-645.6522 285.6482,-632.7557 266,-612 148.3601,-487.7295 124.8391,-267.9376 120.1569,-190.2024"/>
<polygon fill="#000000" stroke="#000000" points="339.6137,-657.0458 350.1901,-656.4215 341.5328,-650.314 339.6137,-657.0458"/>
<polygon fill="#000000" stroke="#000000" points="123.651,-189.9965 119.6134,-180.2011 116.6613,-190.3764 123.651,-189.9965"/>
</g>
<!-- Community&#45;&gt;News -->
<g id="edge117" class="edge">
<title>Community&#45;&gt;News</title>
<path fill="none" stroke="#000000" d="M407.4444,-637.7451C409.6304,-619.6697 413.6703,-595.9554 421,-576 459.9511,-469.9544 460.3272,-421.6435 555,-360 592.9819,-335.2692 719.8695,-318.2907 789.0554,-310.6264"/>
<polygon fill="#000000" stroke="#000000" points="403.939,-637.6051 406.3353,-647.9253 410.8979,-638.3632 403.939,-637.6051"/>
<polygon fill="#000000" stroke="#000000" points="789.6711,-314.0802 799.2343,-309.52 788.9146,-307.1212 789.6711,-314.0802"/>
</g>
<!-- Community&#45;&gt;dApps -->
<g id="edge123" class="edge">
<title>Community&#45;&gt;dApps</title>
<path fill="none" stroke="#000000" d="M413.8126,-638.226C420.3571,-619.7551 430.3305,-595.415 443,-576 469.2273,-535.8088 508.9672,-496.788 535.2007,-473.0809"/>
<polygon fill="#000000" stroke="#000000" points="410.4575,-637.2207 410.5342,-647.8152 417.0811,-639.4852 410.4575,-637.2207"/>
<polygon fill="#000000" stroke="#000000" points="537.7468,-475.4998 542.8786,-466.2308 533.0866,-470.2765 537.7468,-475.4998"/>
</g>
<!-- Community&#45;&gt;Programmers -->
<g id="edge119" class="edge">
<title>Community&#45;&gt;Programmers</title>
<path fill="none" stroke="#000000" d="M347.6291,-650.3318C326.8379,-642.031 304.8424,-629.7582 290,-612 263.4514,-580.236 266,-563.3978 266,-522 266,-522 266,-522 266,-378 266,-337.8518 267.9653,-291.4451 269.4316,-262.4076"/>
<polygon fill="#000000" stroke="#000000" points="346.4748,-653.6369 357.067,-653.8716 348.933,-647.0827 346.4748,-653.6369"/>
<polygon fill="#000000" stroke="#000000" points="272.9394,-262.3468 269.964,-252.1784 265.9489,-261.9829 272.9394,-262.3468"/>
</g>
<!-- Community&#45;&gt;Business_Owners -->
<g id="edge121" class="edge">
<title>Community&#45;&gt;Business_Owners</title>
<path fill="none" stroke="#000000" d="M444.8677,-645.3491C462.793,-636.0641 483.954,-625.1029 502.1121,-615.6973"/>
<polygon fill="#000000" stroke="#000000" points="443.1183,-642.3136 435.8486,-650.0209 446.3379,-648.5292 443.1183,-642.3136"/>
<polygon fill="#000000" stroke="#000000" points="504.0312,-618.645 511.3009,-610.9377 500.8116,-612.4293 504.0312,-618.645"/>
</g>
<!-- Markets&#45;&gt;Hosts -->
<g id="edge77" class="edge">
<title>Markets&#45;&gt;Hosts</title>
<path fill="none" stroke="#000000" d="M703.3097,-709.7103C705.2251,-668.338 708.7703,-591.7616 710.6873,-550.3533"/>
<polygon fill="#000000" stroke="#000000" points="699.8017,-709.8043 702.8354,-719.9555 706.7942,-710.1281 699.8017,-709.8043"/>
<polygon fill="#000000" stroke="#000000" points="714.1936,-550.2963 711.16,-540.1451 707.2011,-549.9725 714.1936,-550.2963"/>
</g>
<!-- Markets&#45;&gt;News -->
<g id="edge48" class="edge">
<title>Markets&#45;&gt;News</title>
<path fill="none" stroke="#000000" d="M744.249,-719.9451C789.2283,-697.547 854,-654.7468 854,-594 854,-594 854,-594 854,-450 854,-409.5282 846.532,-363.2037 840.96,-334.2725"/>
<polygon fill="#000000" stroke="#000000" points="742.4688,-716.9178 734.9817,-724.4141 745.5094,-723.2229 742.4688,-716.9178"/>
<polygon fill="#000000" stroke="#000000" points="844.3177,-333.2111 838.9368,-324.0844 837.4517,-334.5746 844.3177,-333.2111"/>
</g>
<!-- Markets&#45;&gt;Business_Owners -->
<g id="edge138" class="edge">
<title>Markets&#45;&gt;Business_Owners</title>
<path fill="none" stroke="#000000" d="M662.735,-718.7577C646.09,-709.548 627.0947,-697.5652 612,-684 591.378,-665.4674 572.7675,-639.9066 560.251,-620.7596"/>
<polygon fill="#000000" stroke="#000000" points="661.236,-721.9256 671.7007,-723.5814 664.5526,-715.7612 661.236,-721.9256"/>
<polygon fill="#000000" stroke="#000000" points="563.1138,-618.7394 554.779,-612.1985 557.2156,-622.5094 563.1138,-618.7394"/>
</g>
<!-- Markets&#45;&gt;End_Users -->
<g id="edge81" class="edge">
<title>Markets&#45;&gt;End_Users</title>
<path fill="none" stroke="#000000" d="M724.751,-713.1006C747.1415,-685.9274 778,-640.1126 778,-594 778,-594 778,-594 778,-522 778,-479.1096 757.6478,-432.9431 742.657,-404.7556"/>
<polygon fill="#000000" stroke="#000000" points="721.9209,-711.0263 718.1176,-720.9149 727.2575,-715.5563 721.9209,-711.0263"/>
<polygon fill="#000000" stroke="#000000" points="745.6892,-403.0058 737.8158,-395.9163 739.5497,-406.3683 745.6892,-403.0058"/>
</g>
<!-- Markets&#45;&gt;Community -->
<g id="edge114" class="edge">
<title>Markets&#45;&gt;Community</title>
<path fill="none" stroke="#000000" d="M650.773,-725.5813C598.7469,-712.9689 518.2792,-693.4616 463.7106,-680.2329"/>
<polygon fill="#000000" stroke="#000000" points="650.1603,-729.0341 660.7034,-727.9887 651.8095,-722.2312 650.1603,-729.0341"/>
<polygon fill="#000000" stroke="#000000" points="464.3787,-676.7935 453.8356,-677.8389 462.7294,-683.5965 464.3787,-676.7935"/>
</g>
<!-- Blogs&#45;&gt;Team -->
<g id="edge67" class="edge">
<title>Blogs&#45;&gt;Team</title>
<path fill="none" stroke="#000000" d="M545.0259,-938.1318C573.0689,-926.1133 611.4066,-909.6829 639.3557,-897.7047"/>
<polygon fill="#000000" stroke="#000000" points="543.5545,-934.9544 535.7418,-942.1107 546.312,-941.3884 543.5545,-934.9544"/>
<polygon fill="#000000" stroke="#000000" points="640.9617,-900.8244 648.7744,-893.6681 638.2042,-894.3903 640.9617,-900.8244"/>
</g>
<!-- Blogs&#45;&gt;News -->
<g id="edge42" class="edge">
<title>Blogs&#45;&gt;News</title>
<path fill="none" stroke="#000000" d="M523.193,-927.6379C533.5471,-909.6885 547.5783,-885.3964 560,-864 597.2003,-799.9226 605.38,-783.2319 644,-720 693.4828,-638.9827 718.4541,-625.8392 759,-540 792.6938,-468.6674 817.3284,-378.4643 828.4378,-333.748"/>
<polygon fill="#000000" stroke="#000000" points="520.1055,-925.9859 518.1417,-936.3971 526.1694,-929.4828 520.1055,-925.9859"/>
<polygon fill="#000000" stroke="#000000" points="831.8695,-334.449 830.8466,-323.9037 825.07,-332.7852 831.8695,-334.449"/>
</g>
<!-- Blogs&#45;&gt;Programmers -->
<g id="edge71" class="edge">
<title>Blogs&#45;&gt;Programmers</title>
<path fill="none" stroke="#000000" d="M465.0495,-944.0763C378.2208,-922.7638 190,-869.6813 190,-810 190,-810 190,-810 190,-666 190,-568.5257 228,-547.4743 228,-450 228,-450 228,-450 228,-378 228,-335.9897 245.0108,-289.8592 257.6339,-261.4108"/>
<polygon fill="#000000" stroke="#000000" points="464.3252,-947.502 474.8684,-946.4569 465.9746,-940.6991 464.3252,-947.502"/>
<polygon fill="#000000" stroke="#000000" points="260.906,-262.6713 261.8808,-252.1214 254.5398,-259.7607 260.906,-262.6713"/>
</g>
<!-- Blogs&#45;&gt;Business_Owners -->
<g id="edge73" class="edge">
<title>Blogs&#45;&gt;Business_Owners</title>
<path fill="none" stroke="#000000" d="M508,-925.5823C508,-896.5369 508,-850.124 508,-810 508,-810 508,-810 508,-738 508,-696.5072 522.2416,-650.2433 532.8098,-621.6245"/>
<polygon fill="#000000" stroke="#000000" points="504.5001,-925.8146 508,-935.8146 511.5001,-925.8147 504.5001,-925.8146"/>
<polygon fill="#000000" stroke="#000000" points="536.0824,-622.8654 536.3653,-612.2743 529.5395,-620.3773 536.0824,-622.8654"/>
</g>
<!-- Blogs&#45;&gt;Community -->
<g id="edge116" class="edge">
<title>Blogs&#45;&gt;Community</title>
<path fill="none" stroke="#000000" d="M498.0931,-926.2991C478.3796,-871.1778 434.4498,-748.345 414.8132,-693.4389"/>
<polygon fill="#000000" stroke="#000000" points="494.8937,-927.747 501.5569,-935.9843 501.4849,-925.3897 494.8937,-927.747"/>
<polygon fill="#000000" stroke="#000000" points="418.1038,-692.2462 411.4407,-684.0089 411.5127,-694.6035 418.1038,-692.2462"/>
</g>
<!-- Blogs&#45;&gt;Markets -->
<g id="edge75" class="edge">
<title>Blogs&#45;&gt;Markets</title>
<path fill="none" stroke="#000000" d="M532.4145,-930.3608C541.4371,-921.1907 551.5227,-910.4058 560,-900 596.751,-854.8886 594.33,-834.5672 634,-792 644.856,-780.3512 658.3298,-769.1221 670.4131,-759.9495"/>
<polygon fill="#000000" stroke="#000000" points="529.7345,-928.0913 525.1442,-937.6401 534.6873,-933.038 529.7345,-928.0913"/>
<polygon fill="#000000" stroke="#000000" points="672.559,-762.7155 678.507,-753.9479 668.3896,-757.0927 672.559,-762.7155"/>
</g>
<!-- Investors&#45;&gt;Markets -->
<g id="edge80" class="edge">
<title>Investors&#45;&gt;Markets</title>
<path fill="none" stroke="#000000" d="M703.2103,-781.5726C703.0744,-776.6792 702.9331,-771.5904 702.7969,-766.6901"/>
<polygon fill="#000000" stroke="#000000" points="699.7189,-781.9324 703.4953,-791.8314 706.7162,-781.738 699.7189,-781.9324"/>
<polygon fill="#000000" stroke="#000000" points="706.2879,-766.3122 702.5115,-756.4133 699.2906,-766.5066 706.2879,-766.3122"/>
</g>
</g>
</svg>
