<?xml version="1.0" encoding="UTF-8" standalone="no"?>
<!DOCTYPE svg PUBLIC "-//W3C//DTD SVG 1.1//EN"
 "http://www.w3.org/Graphics/SVG/1.1/DTD/svg11.dtd">
<!-- Generated by graphviz version 2.40.1 (20161225.0304)
 -->
<!-- Title: Software Flow Pages: 1 -->
<svg width="1152pt" height="980pt"
 viewBox="0.00 0.00 1152.00 980.00" xmlns="http://www.w3.org/2000/svg" xmlns:xlink="http://www.w3.org/1999/xlink">
<g id="graph0" class="graph" transform="scale(1 1) rotate(0) translate(4 976)">
<title>Software Flow</title>
<polygon fill="#ffffff" stroke="transparent" points="-4,4 -4,-976 1148,-976 1148,4 -4,4"/>
<!-- Source_Code -->
<g id="node1" class="node">
<title>Source_Code</title>
<g id="a_node1"><a xlink:href="https://github.com/holochain/holochain-rust" xlink:title="Source_Code">
<ellipse fill="none" stroke="#000000" cx="252" cy="-954" rx="70.6878" ry="18"/>
<text text-anchor="middle" x="252" y="-950.3" font-family="Times,serif" font-size="14.00" fill="#000000">Source_Code</text>
</a>
</g>
</g>
<!-- Core_Developers -->
<g id="node3" class="node">
<title>Core_Developers</title>
<g id="a_node3"><a xlink:href="https://github.com/holochain/holochain-rust/graphs/contributors" xlink:title="Core_Developers">
<ellipse fill="none" stroke="#000000" cx="369" cy="-882" rx="89.0842" ry="18"/>
<text text-anchor="middle" x="369" y="-878.3" font-family="Times,serif" font-size="14.00" fill="#000000">Core_Developers</text>
</a>
</g>
</g>
<!-- Source_Code&#45;&gt;Core_Developers -->
<g id="edge2" class="edge">
<title>Source_Code&#45;&gt;Core_Developers</title>
<path fill="none" stroke="#000000" d="M287.7925,-931.9738C302.0081,-923.2258 318.3412,-913.1746 332.6147,-904.391"/>
<polygon fill="#000000" stroke="#000000" points="285.8185,-929.079 279.1362,-937.3008 289.4872,-935.0406 285.8185,-929.079"/>
<polygon fill="#000000" stroke="#000000" points="334.5162,-907.3305 341.1985,-899.1086 330.8475,-901.3689 334.5162,-907.3305"/>
</g>
<!-- Software_Releases -->
<g id="node4" class="node">
<title>Software_Releases</title>
<g id="a_node4"><a xlink:href="https://github.com/holochain/holochain-rust/releases" xlink:title="Software_Releases">
<ellipse fill="none" stroke="#000000" cx="243" cy="-738" rx="98.2828" ry="18"/>
<text text-anchor="middle" x="243" y="-734.3" font-family="Times,serif" font-size="14.00" fill="#000000">Software_Releases</text>
</a>
</g>
</g>
<!-- Source_Code&#45;&gt;Software_Releases -->
<g id="edge1" class="edge">
<title>Source_Code&#45;&gt;Software_Releases</title>
<path fill="none" stroke="#000000" d="M256.3803,-935.8151C262.2407,-907.5823 269.9564,-852.0789 252,-810"/>
<path fill="none" stroke="#000000" d="M252,-810C245.8865,-796.51 243.4901,-780.2246 242.686,-766.5568"/>
<polygon fill="#000000" stroke="#000000" points="246.1741,-766.1376 242.342,-756.2601 239.178,-766.3714 246.1741,-766.1376"/>
</g>
<!-- Programmers -->
<g id="node15" class="node">
<title>Programmers</title>
<ellipse fill="none" stroke="#000000" cx="404" cy="-306" rx="74.9875" ry="18"/>
<text text-anchor="middle" x="404" y="-302.3" font-family="Times,serif" font-size="14.00" fill="#000000">Programmers</text>
</g>
<!-- Source_Code&#45;&gt;Programmers -->
<g id="edge90" class="edge">
<title>Source_Code&#45;&gt;Programmers</title>
<path fill="none" stroke="#000000" d="M224.3381,-929.7123C179.7353,-887.4528 100.3579,-797.4939 136,-720 146.2732,-697.6638 164.4243,-704.4974 178,-684 261.436,-558.0237 179.9593,-472.3494 281,-360 296.8261,-342.4026 319.4337,-330.2711 340.9592,-322.0373"/>
<polygon fill="#000000" stroke="#000000" points="221.9934,-932.3114 231.7009,-936.556 226.7592,-927.1842 221.9934,-932.3114"/>
<polygon fill="#000000" stroke="#000000" points="342.1947,-325.3125 350.4187,-318.633 339.8243,-318.726 342.1947,-325.3125"/>
</g>
<!-- Team -->
<g id="node2" class="node">
<title>Team</title>
<g id="a_node2"><a xlink:href="https://holo.host/team/" xlink:title="Team">
<ellipse fill="none" stroke="#000000" cx="827" cy="-738" rx="35.9954" ry="18"/>
<text text-anchor="middle" x="827" y="-734.3" font-family="Times,serif" font-size="14.00" fill="#000000">Team</text>
</a>
</g>
</g>
<!-- Documentation -->
<g id="node6" class="node">
<title>Documentation</title>
<g id="a_node6"><a xlink:href="https://developer.holochain.org/" xlink:title="Documentation">
<ellipse fill="none" stroke="#000000" cx="425" cy="-666" rx="81.4863" ry="18"/>
<text text-anchor="middle" x="425" y="-662.3" font-family="Times,serif" font-size="14.00" fill="#000000">Documentation</text>
</a>
</g>
</g>
<!-- Team&#45;&gt;Documentation -->
<g id="edge36" class="edge">
<title>Team&#45;&gt;Documentation</title>
<path fill="none" stroke="#000000" d="M783.0707,-730.1321C714.525,-717.8552 581.3767,-694.0078 498.1742,-679.1058"/>
<polygon fill="#000000" stroke="#000000" points="782.6117,-733.6055 793.0722,-731.9234 783.8459,-726.7151 782.6117,-733.6055"/>
<polygon fill="#000000" stroke="#000000" points="498.7433,-675.6521 488.2828,-677.3342 497.5091,-682.5425 498.7433,-675.6521"/>
</g>
<!-- Press_Releases -->
<g id="node16" class="node">
<title>Press_Releases</title>
<ellipse fill="none" stroke="#000000" cx="842" cy="-594" rx="81.7856" ry="18"/>
<text text-anchor="middle" x="842" y="-590.3" font-family="Times,serif" font-size="14.00" fill="#000000">Press_Releases</text>
</g>
<!-- Team&#45;&gt;Press_Releases -->
<g id="edge35" class="edge">
<title>Team&#45;&gt;Press_Releases</title>
<path fill="none" stroke="#000000" d="M828.8998,-719.7623C831.4582,-695.201 836.0367,-651.2474 839.0465,-622.3541"/>
<polygon fill="#000000" stroke="#000000" points="842.5607,-622.3985 840.1157,-612.0896 835.5984,-621.6731 842.5607,-622.3985"/>
</g>
<!-- News -->
<g id="node17" class="node">
<title>News</title>
<ellipse fill="none" stroke="#000000" cx="742" cy="-90" rx="36.2938" ry="18"/>
<text text-anchor="middle" x="742" y="-86.3" font-family="Times,serif" font-size="14.00" fill="#000000">News</text>
</g>
<!-- Team&#45;&gt;News -->
<g id="edge38" class="edge">
<title>Team&#45;&gt;News</title>
<path fill="none" stroke="#000000" d="M871.8321,-731.1003C907.4933,-723.9159 957.3195,-709.9439 994,-684 1058.625,-638.2912 1068,-601.156 1068,-522 1068,-522 1068,-522 1068,-234 1068,-179.8872 1032.8295,-171.1145 986,-144 952.6364,-124.6823 848.0041,-106.1615 787.1336,-96.6409"/>
<polygon fill="#000000" stroke="#000000" points="870.877,-727.7194 861.7118,-733.0344 872.1911,-734.595 870.877,-727.7194"/>
<polygon fill="#000000" stroke="#000000" points="787.448,-93.1481 777.0309,-95.0806 786.3795,-100.066 787.448,-93.1481"/>
</g>
<!-- Community -->
<g id="node19" class="node">
<title>Community</title>
<ellipse fill="none" stroke="#000000" cx="700" cy="-810" rx="64.189" ry="18"/>
<text text-anchor="middle" x="700" y="-806.3" font-family="Times,serif" font-size="14.00" fill="#000000">Community</text>
</g>
<!-- Markets -->
<g id="node20" class="node">
<title>Markets</title>
<ellipse fill="none" stroke="#000000" cx="991" cy="-594" rx="49.2915" ry="18"/>
<text text-anchor="middle" x="991" y="-590.3" font-family="Times,serif" font-size="14.00" fill="#000000">Markets</text>
</g>
<!-- Team&#45;&gt;Markets -->
<g id="edge40" class="edge">
<title>Team&#45;&gt;Markets</title>
<path fill="none" stroke="#000000" d="M872.4512,-732.679C904.875,-726.4601 947.0018,-713.0145 972,-684 986.5996,-667.0548 990.9112,-641.7111 991.8221,-622.2313"/>
<polygon fill="#000000" stroke="#000000" points="871.5463,-729.284 862.2989,-734.4547 872.7524,-736.1793 871.5463,-729.284"/>
<polygon fill="#000000" stroke="#000000" points="995.3239,-622.1702 992.022,-612.103 988.3252,-622.032 995.3239,-622.1702"/>
</g>
<!-- Investors -->
<g id="node21" class="node">
<title>Investors</title>
<ellipse fill="none" stroke="#000000" cx="909" cy="-666" rx="53.8905" ry="18"/>
<text text-anchor="middle" x="909" y="-662.3" font-family="Times,serif" font-size="14.00" fill="#000000">Investors</text>
</g>
<!-- Team&#45;&gt;Investors -->
<g id="edge42" class="edge">
<title>Team&#45;&gt;Investors</title>
<path fill="none" stroke="#000000" d="M852.3682,-715.7255C861.8032,-707.4411 872.537,-698.0163 882.1041,-689.6159"/>
<polygon fill="#000000" stroke="#000000" points="849.9979,-713.149 844.7928,-722.3771 854.6165,-718.4091 849.9979,-713.149"/>
<polygon fill="#000000" stroke="#000000" points="884.6067,-692.0762 889.8119,-682.8481 879.9881,-686.8161 884.6067,-692.0762"/>
</g>
<!-- Core_Developers&#45;&gt;Team -->
<g id="edge34" class="edge">
<title>Core_Developers&#45;&gt;Team</title>
<path fill="none" stroke="#000000" d="M462.9861,-875.0102C579.3998,-865.5823 765.5685,-847.6879 791,-828 810.1507,-813.1744 819.1468,-786.5751 823.3532,-766.1249"/>
<polygon fill="#000000" stroke="#000000" points="462.6785,-871.5236 452.9907,-875.8128 463.2388,-878.5011 462.6785,-871.5236"/>
<polygon fill="#000000" stroke="#000000" points="826.8333,-766.5455 825.1447,-756.0862 819.9422,-765.3157 826.8333,-766.5455"/>
</g>
<!-- Core_Developers&#45;&gt;Software_Releases -->
<g id="edge52" class="edge">
<title>Core_Developers&#45;&gt;Software_Releases</title>
<path fill="none" stroke="#000000" d="M319.1788,-866.9302C293.0039,-855.9382 263.9354,-837.9693 252,-810"/>
</g>
<!-- Core_Developers&#45;&gt;Documentation -->
<g id="edge46" class="edge">
<title>Core_Developers&#45;&gt;Documentation</title>
<path fill="none" stroke="#000000" d="M376.2604,-853.9956C387.0126,-812.523 407.0511,-735.2316 417.7799,-693.8488"/>
<polygon fill="#000000" stroke="#000000" points="372.7999,-853.3971 373.6782,-863.9555 379.5759,-855.1539 372.7999,-853.3971"/>
<polygon fill="#000000" stroke="#000000" points="421.174,-694.7034 420.2957,-684.1451 414.398,-692.9466 421.174,-694.7034"/>
</g>
<!-- API_Docs -->
<g id="node7" class="node">
<title>API_Docs</title>
<g id="a_node7"><a xlink:href="https://developer.holochain.org/api/latest/hdk/" xlink:title="API_Docs">
<ellipse fill="none" stroke="#000000" cx="82" cy="-666" rx="53.8905" ry="18"/>
<text text-anchor="middle" x="82" y="-662.3" font-family="Times,serif" font-size="14.00" fill="#000000">API_Docs</text>
</a>
</g>
</g>
<!-- Core_Developers&#45;&gt;API_Docs -->
<g id="edge44" class="edge">
<title>Core_Developers&#45;&gt;API_Docs</title>
<path fill="none" stroke="#000000" d="M311.7936,-863.1574C260.0058,-843.5608 184.6013,-808.3506 136,-756 118.6065,-737.2647 104.059,-712.0338 94.4621,-693.054"/>
<polygon fill="#000000" stroke="#000000" points="310.5839,-866.4417 321.1769,-866.6355 313.0168,-859.8781 310.5839,-866.4417"/>
<polygon fill="#000000" stroke="#000000" points="97.581,-691.4647 90.032,-684.0308 91.2975,-694.5498 97.581,-691.4647"/>
</g>
<!-- Guide_Book -->
<g id="node8" class="node">
<title>Guide_Book</title>
<g id="a_node8"><a xlink:href="https://developer.holochain.org/guide/latest/welcome.html" xlink:title="Guide_Book">
<ellipse fill="none" stroke="#000000" cx="486" cy="-522" rx="65.7887" ry="18"/>
<text text-anchor="middle" x="486" y="-518.3" font-family="Times,serif" font-size="14.00" fill="#000000">Guide_Book</text>
</a>
</g>
</g>
<!-- Core_Developers&#45;&gt;Guide_Book -->
<g id="edge53" class="edge">
<title>Core_Developers&#45;&gt;Guide_Book</title>
<path fill="none" stroke="#000000" d="M395.8775,-857.1015C431.1966,-822.3492 491.4961,-755.4791 515,-684 530.1251,-638.0022 512.5164,-581.9115 498.8843,-549.2481"/>
<polygon fill="#000000" stroke="#000000" points="393.0664,-854.9516 388.3193,-864.4234 397.937,-859.9794 393.0664,-854.9516"/>
<polygon fill="#000000" stroke="#000000" points="502.0178,-547.6768 494.822,-539.9005 495.5978,-550.4669 502.0178,-547.6768"/>
</g>
<!-- Dev_Pulse -->
<g id="node9" class="node">
<title>Dev_Pulse</title>
<g id="a_node9"><a xlink:href="https://medium.com/holochain" xlink:title="Dev_Pulse">
<ellipse fill="none" stroke="#000000" cx="221" cy="-18" rx="58.4896" ry="18"/>
<text text-anchor="middle" x="221" y="-14.3" font-family="Times,serif" font-size="14.00" fill="#000000">Dev_Pulse</text>
</a>
</g>
</g>
<!-- Core_Developers&#45;&gt;Dev_Pulse -->
<g id="edge48" class="edge">
<title>Core_Developers&#45;&gt;Dev_Pulse</title>
<path fill="none" stroke="#000000" d="M288.9639,-868.6522C252.6229,-860.3938 210.0321,-847.5243 175,-828 61.5613,-764.7779 0,-723.8668 0,-594 0,-594 0,-594 0,-162 0,-84.7932 95.8524,-46.8235 161.3051,-29.896"/>
<polygon fill="#000000" stroke="#000000" points="288.5191,-872.1377 299.0367,-870.8609 290.0184,-865.3002 288.5191,-872.1377"/>
<polygon fill="#000000" stroke="#000000" points="162.2682,-33.2632 171.1277,-27.453 160.5786,-26.4701 162.2682,-33.2632"/>
</g>
<!-- Core_Developers&#45;&gt;Programmers -->
<g id="edge50" class="edge">
<title>Core_Developers&#45;&gt;Programmers</title>
<path fill="none" stroke="#000000" d="M372.1499,-853.3476C374.5043,-819.2309 373.9536,-761.6403 350,-720 336.7031,-696.885 313.9257,-707.8514 302,-684 240.3058,-560.6116 340.5412,-395.2865 384.7297,-332.0702"/>
<polygon fill="#000000" stroke="#000000" points="368.6424,-853.296 371.3094,-863.5497 375.6188,-853.8708 368.6424,-853.296"/>
<polygon fill="#000000" stroke="#000000" points="387.6356,-334.023 390.5703,-323.8427 381.9276,-329.971 387.6356,-334.023"/>
</g>
<!-- Core_Developers&#45;&gt;Community -->
<g id="edge72" class="edge">
<title>Core_Developers&#45;&gt;Community</title>
<path fill="none" stroke="#000000" d="M439.5631,-866.6509C498.9279,-853.7377 582.9173,-835.4681 639.3134,-823.2007"/>
<polygon fill="#000000" stroke="#000000" points="438.738,-863.2485 429.7105,-868.7941 440.226,-870.0885 438.738,-863.2485"/>
<polygon fill="#000000" stroke="#000000" points="640.1345,-826.604 649.162,-821.0584 638.6465,-819.764 640.1345,-826.604"/>
</g>
<!-- Hosts -->
<g id="node5" class="node">
<title>Hosts</title>
<g id="a_node5"><a xlink:href="https://holo.host/host/" xlink:title="Hosts">
<ellipse fill="none" stroke="#000000" cx="751" cy="-450" rx="37.8943" ry="18"/>
<text text-anchor="middle" x="751" y="-446.3" font-family="Times,serif" font-size="14.00" fill="#000000">Hosts</text>
</a>
</g>
</g>
<!-- Software_Releases&#45;&gt;Hosts -->
<g id="edge59" class="edge">
<title>Software_Releases&#45;&gt;Hosts</title>
<path fill="none" stroke="#000000" d="M354,-594C420.768,-526.3093 470.6972,-569.7559 561,-540 618.2045,-521.1504 680.6067,-489.2065 717.7374,-468.8812"/>
<polygon fill="#000000" stroke="#000000" points="719.5524,-471.8772 726.6143,-463.9792 716.1684,-465.7495 719.5524,-471.8772"/>
</g>
<!-- Software_Releases&#45;&gt;Documentation -->
<g id="edge61" class="edge">
<title>Software_Releases&#45;&gt;Documentation</title>
<path fill="none" stroke="#000000" d="M284.2986,-721.6621C311.4358,-710.9265 347.0795,-696.8257 375.7008,-685.503"/>
<polygon fill="#000000" stroke="#000000" points="377.1043,-688.7117 385.1156,-681.7784 374.5292,-682.2026 377.1043,-688.7117"/>
</g>
<!-- Software_Releases&#45;&gt;API_Docs -->
<g id="edge55" class="edge">
<title>Software_Releases&#45;&gt;API_Docs</title>
<path fill="none" stroke="#000000" d="M205.6587,-721.3008C181.1949,-710.3605 149.1811,-696.0437 123.8567,-684.7185"/>
<polygon fill="#000000" stroke="#000000" points="125.0657,-681.4252 114.5081,-680.5378 122.208,-687.8153 125.0657,-681.4252"/>
</g>
<!-- Libraries -->
<g id="node11" class="node">
<title>Libraries</title>
<ellipse fill="none" stroke="#000000" cx="481" cy="-234" rx="52.7911" ry="18"/>
<text text-anchor="middle" x="481" y="-230.3" font-family="Times,serif" font-size="14.00" fill="#000000">Libraries</text>
</g>
<!-- Software_Releases&#45;&gt;Libraries -->
<g id="edge57" class="edge">
<title>Software_Releases&#45;&gt;Libraries</title>
<path fill="none" stroke="#000000" d="M164,-666C79.0674,-556.2651 149.0762,-475.4904 226,-360 271.184,-292.1625 364.1121,-259.4224 424.4321,-244.7222"/>
<polygon fill="#000000" stroke="#000000" points="425.2536,-248.1246 434.1891,-242.4319 423.6539,-241.3098 425.2536,-248.1246"/>
</g>
<!-- dApps -->
<g id="node12" class="node">
<title>dApps</title>
<ellipse fill="none" stroke="#000000" cx="617" cy="-378" rx="39.7935" ry="18"/>
<text text-anchor="middle" x="617" y="-374.3" font-family="Times,serif" font-size="14.00" fill="#000000">dApps</text>
</g>
<!-- Software_Releases&#45;&gt;dApps -->
<g id="edge58" class="edge">
<title>Software_Releases&#45;&gt;dApps</title>
<path fill="none" stroke="#000000" d="M256.6467,-719.8767C270.0034,-703.4074 291.8222,-679.659 316,-666"/>
<path fill="none" stroke="#000000" d="M316,-666C347.5036,-648.2024 328.9143,-620.0757 354,-594"/>
<path fill="none" stroke="#000000" d="M354,-594C386.8256,-559.8788 377.2597,-537.2171 411,-504 461.3774,-454.4038 534.7679,-415.4761 578.9961,-394.6813"/>
<polygon fill="#000000" stroke="#000000" points="580.6373,-397.7784 588.2402,-390.3996 577.6953,-391.4266 580.6373,-397.7784"/>
</g>
<!-- Software_Releases&#45;&gt;Programmers -->
<g id="edge62" class="edge">
<title>Software_Releases&#45;&gt;Programmers</title>
<path fill="none" stroke="#000000" d="M243.5229,-719.7018C245.8019,-652.0193 256.885,-416.8338 302,-360 314.1928,-344.64 331.972,-333.1317 349.2836,-324.7752"/>
<polygon fill="#000000" stroke="#000000" points="351.1532,-327.7704 358.8146,-320.4524 348.2618,-321.3955 351.1532,-327.7704"/>
</g>
<!-- Software_Releases&#45;&gt;Press_Releases -->
<g id="edge60" class="edge">
<title>Software_Releases&#45;&gt;Press_Releases</title>
<path fill="none" stroke="#000000" d="M316,-666C326.1278,-660.2784 324.4376,-652.8728 335,-648 406.7298,-614.9082 624.8844,-601.7109 750.4233,-596.7527"/>
<polygon fill="#000000" stroke="#000000" points="750.928,-600.236 760.786,-596.3538 750.6587,-593.2411 750.928,-600.236"/>
</g>
<!-- Software_Releases&#45;&gt;News -->
<g id="edge56" class="edge">
<title>Software_Releases&#45;&gt;News</title>
<path fill="none" stroke="#000000" d="M221.5786,-720.316C205.1131,-706.2982 182.1836,-685.8335 164,-666"/>
<path fill="none" stroke="#000000" d="M164,-666C115.0958,-612.6585 88,-594.3667 88,-522 88,-522 88,-522 88,-450 88,-443.5371 250.0548,-292.161 255,-288 338.2589,-217.9432 353.0664,-187.0497 453,-144 533.7055,-109.2334 636.5669,-96.806 695.2831,-92.395"/>
<polygon fill="#000000" stroke="#000000" points="695.6385,-95.8788 705.3675,-91.6841 695.1461,-88.8961 695.6385,-95.8788"/>
</g>
<!-- Hosts&#45;&gt;dApps -->
<g id="edge63" class="edge">
<title>Hosts&#45;&gt;dApps</title>
<path fill="none" stroke="#000000" d="M716.7342,-431.5885C696.9153,-420.9395 672.03,-407.5683 652.0754,-396.8465"/>
<polygon fill="#000000" stroke="#000000" points="715.3301,-434.8073 725.7956,-436.4574 718.6433,-428.641 715.3301,-434.8073"/>
<polygon fill="#000000" stroke="#000000" points="653.4709,-393.6231 643.0054,-391.973 650.1577,-399.7894 653.4709,-393.6231"/>
</g>
<!-- Business_Owners -->
<g id="node13" class="node">
<title>Business_Owners</title>
<ellipse fill="none" stroke="#000000" cx="862" cy="-162" rx="92.0841" ry="18"/>
<text text-anchor="middle" x="862" y="-158.3" font-family="Times,serif" font-size="14.00" fill="#000000">Business_Owners</text>
</g>
<!-- Hosts&#45;&gt;Business_Owners -->
<g id="edge65" class="edge">
<title>Hosts&#45;&gt;Business_Owners</title>
<path fill="none" stroke="#000000" d="M761.6764,-422.2991C782.9211,-367.1778 830.2629,-244.345 851.4246,-189.4389"/>
<polygon fill="#000000" stroke="#000000" points="758.2741,-421.3946 757.9435,-431.9843 764.8057,-423.9121 758.2741,-421.3946"/>
<polygon fill="#000000" stroke="#000000" points="854.7285,-190.5986 855.0591,-180.0089 848.1969,-188.0811 854.7285,-190.5986"/>
</g>
<!-- End_Users -->
<g id="node14" class="node">
<title>End_Users</title>
<ellipse fill="none" stroke="#000000" cx="931" cy="-522" rx="61.1893" ry="18"/>
<text text-anchor="middle" x="931" y="-518.3" font-family="Times,serif" font-size="14.00" fill="#000000">End_Users</text>
</g>
<!-- Documentation&#45;&gt;Dev_Pulse -->
<g id="edge8" class="edge">
<title>Documentation&#45;&gt;Dev_Pulse</title>
<path fill="none" stroke="#000000" d="M417.3925,-647.9863C411.0206,-633.2625 401.4708,-612.0125 392,-594"/>
<path fill="none" stroke="#000000" d="M392,-594C320.6354,-458.2725 126.1338,-439.2636 202,-306"/>
</g>
<!-- Documentation&#45;&gt;Programmers -->
<g id="edge9" class="edge">
<title>Documentation&#45;&gt;Programmers</title>
<path fill="none" stroke="#000000" d="M392,-594C349.2964,-507.3059 421.6124,-474.5307 417,-378"/>
<path fill="none" stroke="#000000" d="M417,-378C415.5936,-363.4345 412.8203,-347.3975 410.1953,-334.1631"/>
<polygon fill="#000000" stroke="#000000" points="413.5953,-333.3207 408.1507,-324.2318 406.7391,-334.7322 413.5953,-333.3207"/>
</g>
<!-- API_Docs&#45;&gt;Dev_Pulse -->
<g id="edge10" class="edge">
<title>API_Docs&#45;&gt;Dev_Pulse</title>
<path fill="none" stroke="#000000" d="M75.3696,-648.0988C65.9966,-621.1451 50,-568.3538 50,-522 50,-522 50,-522 50,-450 50,-408.6022 46.8249,-391.2296 74,-360 114.5313,-313.4215 177.603,-362.7198 202,-306"/>
<path fill="none" stroke="#000000" d="M202,-306C237.9176,-216.6097 230.6032,-99.0524 224.7335,-46.0504"/>
<polygon fill="#000000" stroke="#000000" points="228.2009,-45.5675 223.5556,-36.0454 221.2489,-46.3861 228.2009,-45.5675"/>
</g>
<!-- API_Docs&#45;&gt;Programmers -->
<g id="edge11" class="edge">
<title>API_Docs&#45;&gt;Programmers</title>
<path fill="none" stroke="#000000" d="M85.2417,-647.7203C95.5769,-594.8865 132.7167,-440.6268 226,-360 243.0566,-345.2576 294.457,-330.5331 337.6647,-320.1924"/>
<polygon fill="#000000" stroke="#000000" points="338.6592,-323.5541 347.5924,-317.8578 337.0567,-316.74 338.6592,-323.5541"/>
</g>
<!-- Guide_Book&#45;&gt;Business_Owners -->
<g id="edge13" class="edge">
<title>Guide_Book&#45;&gt;Business_Owners</title>
<path fill="none" stroke="#000000" d="M430,-450C428.6107,-345.1118 556.3298,-391.5721 617,-306"/>
<path fill="none" stroke="#000000" d="M617,-306C671.7032,-247.2332 755.8572,-204.9925 809.9167,-182.0136"/>
<polygon fill="#000000" stroke="#000000" points="811.44,-185.1703 819.3157,-178.0834 808.7396,-178.7121 811.44,-185.1703"/>
</g>
<!-- Guide_Book&#45;&gt;Programmers -->
<g id="edge12" class="edge">
<title>Guide_Book&#45;&gt;Programmers</title>
<path fill="none" stroke="#000000" d="M462.43,-504.9818C447.2539,-491.9009 430.2957,-472.3265 430,-450"/>
<path fill="none" stroke="#000000" d="M430,-450C429.5693,-417.4854 418.552,-410.4804 417,-378"/>
</g>
<!-- Community_Matters -->
<g id="node10" class="node">
<title>Community_Matters</title>
<g id="a_node10"><a xlink:href="https://medium.com/holochain/tagged/community-matters" xlink:title="Community_Matters">
<ellipse fill="none" stroke="#000000" cx="700" cy="-882" rx="105.8812" ry="18"/>
<text text-anchor="middle" x="700" y="-878.3" font-family="Times,serif" font-size="14.00" fill="#000000">Community_Matters</text>
</a>
</g>
</g>
<!-- Community_Matters&#45;&gt;Community -->
<g id="edge27" class="edge">
<title>Community_Matters&#45;&gt;Community</title>
<path fill="none" stroke="#000000" d="M700,-863.8314C700,-856.131 700,-846.9743 700,-838.4166"/>
<polygon fill="#000000" stroke="#000000" points="703.5001,-838.4132 700,-828.4133 696.5001,-838.4133 703.5001,-838.4132"/>
</g>
<!-- Libraries&#45;&gt;dApps -->
<g id="edge4" class="edge">
<title>Libraries&#45;&gt;dApps</title>
<path fill="none" stroke="#000000" d="M497.1876,-251.1398C521.3057,-276.6766 566.7711,-324.8164 594.2308,-353.8914"/>
<polygon fill="#000000" stroke="#000000" points="591.7221,-356.3326 601.1329,-361.1995 596.8112,-351.5262 591.7221,-356.3326"/>
</g>
<!-- dApps&#45;&gt;Business_Owners -->
<g id="edge5" class="edge">
<title>dApps&#45;&gt;Business_Owners</title>
<path fill="none" stroke="#000000" d="M611.6281,-359.9895C608.099,-344.2723 605.9386,-321.6016 617,-306"/>
</g>
<!-- dApps&#45;&gt;Programmers -->
<g id="edge92" class="edge">
<title>dApps&#45;&gt;Programmers</title>
<path fill="none" stroke="#000000" d="M575.1918,-363.8677C541.3836,-352.4395 493.5722,-336.2779 457.0663,-323.9379"/>
<polygon fill="#000000" stroke="#000000" points="574.5175,-367.3342 585.1117,-367.2209 576.7592,-360.7028 574.5175,-367.3342"/>
<polygon fill="#000000" stroke="#000000" points="458.1627,-320.614 447.5684,-320.7274 455.921,-327.2454 458.1627,-320.614"/>
</g>
<!-- Business_Owners&#45;&gt;News -->
<g id="edge22" class="edge">
<title>Business_Owners&#45;&gt;News</title>
<path fill="none" stroke="#000000" d="M824.6368,-139.5821C808.4141,-129.8485 789.6042,-118.5625 774.0322,-109.2193"/>
<polygon fill="#000000" stroke="#000000" points="822.8813,-142.6104 833.257,-144.7542 826.4828,-136.608 822.8813,-142.6104"/>
<polygon fill="#000000" stroke="#000000" points="775.6574,-106.1128 765.2817,-103.969 772.0559,-112.1153 775.6574,-106.1128"/>
</g>
<!-- Blogs -->
<g id="node18" class="node">
<title>Blogs</title>
<ellipse fill="none" stroke="#000000" cx="588" cy="-234" rx="36.2938" ry="18"/>
<text text-anchor="middle" x="588" y="-230.3" font-family="Times,serif" font-size="14.00" fill="#000000">Blogs</text>
</g>
<!-- End_Users&#45;&gt;Hosts -->
<g id="edge68" class="edge">
<title>End_Users&#45;&gt;Hosts</title>
<path fill="none" stroke="#000000" d="M885.106,-503.6424C855.4965,-491.7986 817.4261,-476.5704 789.4176,-465.3671"/>
<polygon fill="#000000" stroke="#000000" points="883.9897,-506.9654 894.5743,-507.4297 886.5894,-500.4661 883.9897,-506.9654"/>
<polygon fill="#000000" stroke="#000000" points="790.5454,-462.0486 779.9607,-461.5843 787.9456,-468.5479 790.5454,-462.0486"/>
</g>
<!-- End_Users&#45;&gt;dApps -->
<g id="edge7" class="edge">
<title>End_Users&#45;&gt;dApps</title>
<path fill="none" stroke="#000000" d="M902.1993,-498.6867C876.2636,-478.6549 836.4225,-450.2024 798,-432 754.2526,-411.2749 700.7726,-396.4958 663.3314,-387.6967"/>
<polygon fill="#000000" stroke="#000000" points="900.0775,-501.4706 910.1119,-504.871 904.3882,-495.9553 900.0775,-501.4706"/>
<polygon fill="#000000" stroke="#000000" points="663.7476,-384.2013 653.2178,-385.3736 662.1804,-391.0236 663.7476,-384.2013"/>
</g>
<!-- End_Users&#45;&gt;Business_Owners -->
<g id="edge98" class="edge">
<title>End_Users&#45;&gt;Business_Owners</title>
<path fill="none" stroke="#000000" d="M931,-493.5823C931,-464.5369 931,-418.124 931,-378 931,-378 931,-378 931,-306 931,-264.6022 926.031,-252.7641 907,-216 901.8133,-205.9803 894.5037,-196.1548 887.2811,-187.69"/>
<polygon fill="#000000" stroke="#000000" points="927.5001,-493.8146 931,-503.8146 934.5001,-493.8147 927.5001,-493.8146"/>
<polygon fill="#000000" stroke="#000000" points="889.7209,-185.167 880.4551,-180.0292 884.4946,-189.8238 889.7209,-185.167"/>
</g>
<!-- End_Users&#45;&gt;News -->
<g id="edge24" class="edge">
<title>End_Users&#45;&gt;News</title>
<path fill="none" stroke="#000000" d="M946.657,-495.2444C961.6478,-467.0569 982,-420.8904 982,-378 982,-378 982,-378 982,-234 982,-193.1184 991.4475,-173.3607 963,-144 939.0174,-119.2475 845.0245,-103.1474 787.6226,-95.4062"/>
<polygon fill="#000000" stroke="#000000" points="943.5497,-493.6317 941.8158,-504.0837 949.6892,-496.9942 943.5497,-493.6317"/>
<polygon fill="#000000" stroke="#000000" points="788.0728,-91.9354 777.7019,-94.1022 787.1605,-98.8757 788.0728,-91.9354"/>
</g>
<!-- Programmers&#45;&gt;Dev_Pulse -->
<g id="edge26" class="edge">
<title>Programmers&#45;&gt;Dev_Pulse</title>
<path fill="none" stroke="#000000" d="M387.086,-279.3813C352.2027,-224.483 272.6314,-99.256 237.8246,-44.4781"/>
<polygon fill="#000000" stroke="#000000" points="384.2353,-281.4212 392.5525,-287.9843 390.1435,-277.667 384.2353,-281.4212"/>
<polygon fill="#000000" stroke="#000000" points="240.7603,-42.572 232.4431,-36.0089 234.8522,-46.3262 240.7603,-42.572"/>
</g>
<!-- Programmers&#45;&gt;Libraries -->
<g id="edge93" class="edge">
<title>Programmers&#45;&gt;Libraries</title>
<path fill="none" stroke="#000000" d="M430.4777,-281.2417C438.4468,-273.79 447.1799,-265.624 455.1104,-258.2084"/>
<polygon fill="#000000" stroke="#000000" points="427.9475,-278.8158 423.0337,-288.2022 432.7285,-283.9288 427.9475,-278.8158"/>
<polygon fill="#000000" stroke="#000000" points="457.8017,-260.4837 462.7155,-251.0972 453.0207,-255.3707 457.8017,-260.4837"/>
</g>
<!-- Programmers&#45;&gt;Business_Owners -->
<g id="edge95" class="edge">
<title>Programmers&#45;&gt;Business_Owners</title>
<path fill="none" stroke="#000000" d="M481.843,-296.8257C527.659,-289.2275 585.7034,-275.6869 633,-252 655.286,-240.8389 654.0057,-227.7255 676,-216 709.7575,-198.0033 750.2459,-185.3374 784.8155,-176.8186"/>
<polygon fill="#000000" stroke="#000000" points="481.2869,-293.3701 471.9643,-298.404 482.3912,-300.2824 481.2869,-293.3701"/>
<polygon fill="#000000" stroke="#000000" points="785.9553,-180.1448 794.8676,-174.4159 784.3279,-173.3366 785.9553,-180.1448"/>
</g>
<!-- Programmers&#45;&gt;Blogs -->
<g id="edge30" class="edge">
<title>Programmers&#45;&gt;Blogs</title>
<path fill="none" stroke="#000000" d="M453.3546,-286.9637C479.9401,-276.675 513.2908,-263.7123 543,-252 545.3288,-251.0819 547.7241,-250.1341 550.1389,-249.1759"/>
<polygon fill="#000000" stroke="#000000" points="451.9496,-283.7544 443.8854,-290.6261 454.4747,-290.2831 451.9496,-283.7544"/>
<polygon fill="#000000" stroke="#000000" points="551.454,-252.4196 559.4506,-245.4694 548.8652,-245.9159 551.454,-252.4196"/>
</g>
<!-- Press_Releases&#45;&gt;Business_Owners -->
<g id="edge15" class="edge">
<title>Press_Releases&#45;&gt;Business_Owners</title>
<path fill="none" stroke="#000000" d="M842,-522C848.056,-454.3753 893,-445.8953 893,-378 893,-378 893,-378 893,-306 893,-265.0037 880.8433,-218.8829 871.7554,-190.1326"/>
<polygon fill="#000000" stroke="#000000" points="874.9998,-188.7919 868.5743,-180.3679 868.3441,-190.9603 874.9998,-188.7919"/>
</g>
<!-- Press_Releases&#45;&gt;News -->
<g id="edge14" class="edge">
<title>Press_Releases&#45;&gt;News</title>
<path fill="none" stroke="#000000" d="M841.9306,-575.9501C841.8913,-561.3874 841.8724,-540.3746 842,-522"/>
<path fill="none" stroke="#000000" d="M842,-522C843.0847,-365.7988 795.1353,-332.4296 761,-180 756.3542,-159.2546 751.4023,-135.7474 747.7189,-117.9607"/>
<polygon fill="#000000" stroke="#000000" points="751.1037,-117.0448 745.6561,-107.9578 744.248,-118.4586 751.1037,-117.0448"/>
</g>
<!-- News&#45;&gt;Dev_Pulse -->
<g id="edge16" class="edge">
<title>News&#45;&gt;Dev_Pulse</title>
<path fill="none" stroke="#000000" d="M696.6234,-83.7291C603.6168,-70.876 391.1595,-41.5153 284.522,-26.7785"/>
<polygon fill="#000000" stroke="#000000" points="696.2141,-87.2058 706.5992,-85.1078 697.1725,-80.2717 696.2141,-87.2058"/>
<polygon fill="#000000" stroke="#000000" points="284.9251,-23.301 274.5401,-25.399 283.9668,-30.2351 284.9251,-23.301"/>
</g>
<!-- News&#45;&gt;Programmers -->
<g id="edge18" class="edge">
<title>News&#45;&gt;Programmers</title>
<path fill="none" stroke="#000000" d="M705.9846,-92.7796C638.2478,-100.0641 492.1333,-125.9323 419,-216 405.0989,-233.12 401.8811,-258.2364 401.8382,-277.5888"/>
<polygon fill="#000000" stroke="#000000" points="398.3411,-277.7517 402.0932,-287.6598 405.3388,-277.5744 398.3411,-277.7517"/>
</g>
<!-- Blogs&#45;&gt;Business_Owners -->
<g id="edge31" class="edge">
<title>Blogs&#45;&gt;Business_Owners</title>
<path fill="none" stroke="#000000" d="M626.4432,-219.6857C630.3283,-218.3821 634.2301,-217.1293 638,-216 688.0546,-201.0054 745.3466,-187.2539 789.4589,-177.3807"/>
<polygon fill="#000000" stroke="#000000" points="625.2085,-216.4093 616.9051,-222.9899 627.4999,-223.0237 625.2085,-216.4093"/>
<polygon fill="#000000" stroke="#000000" points="790.2303,-180.7948 799.2326,-175.2083 788.7114,-173.9615 790.2303,-180.7948"/>
</g>
<!-- Blogs&#45;&gt;News -->
<g id="edge20" class="edge">
<title>Blogs&#45;&gt;News</title>
<path fill="none" stroke="#000000" d="M612.5439,-211.0499C641.2421,-184.2152 688.4716,-140.0526 717.2557,-113.1375"/>
<polygon fill="#000000" stroke="#000000" points="609.9829,-208.6528 605.0691,-218.0393 614.7639,-213.7658 609.9829,-208.6528"/>
<polygon fill="#000000" stroke="#000000" points="719.9407,-115.4187 724.8545,-106.0322 715.1597,-110.3057 719.9407,-115.4187"/>
</g>
<!-- Community&#45;&gt;Team -->
<g id="edge69" class="edge">
<title>Community&#45;&gt;Team</title>
<path fill="none" stroke="#000000" d="M737.2533,-788.88C755.123,-778.7492 776.3582,-766.7103 793.6856,-756.8869"/>
<polygon fill="#000000" stroke="#000000" points="735.4744,-785.8652 728.5013,-793.8418 738.9267,-791.9546 735.4744,-785.8652"/>
<polygon fill="#000000" stroke="#000000" points="795.8906,-759.6602 802.8636,-751.6836 792.4382,-753.5708 795.8906,-759.6602"/>
</g>
<!-- Community&#45;&gt;Hosts -->
<g id="edge87" class="edge">
<title>Community&#45;&gt;Hosts</title>
<path fill="none" stroke="#000000" d="M710.0701,-781.8924C719.4511,-753.1615 732,-707.0558 732,-666 732,-666 732,-666 732,-594 732,-553.5282 739.468,-507.2037 745.04,-478.2725"/>
<polygon fill="#000000" stroke="#000000" points="706.6589,-781.0557 706.7864,-791.6497 713.2932,-783.2884 706.6589,-781.0557"/>
<polygon fill="#000000" stroke="#000000" points="748.5483,-478.5746 747.0632,-468.0844 741.6823,-477.2111 748.5483,-478.5746"/>
</g>
<!-- Community&#45;&gt;Documentation -->
<g id="edge83" class="edge">
<title>Community&#45;&gt;Documentation</title>
<path fill="none" stroke="#000000" d="M658.5171,-789.6293C638.3659,-779.6395 613.8424,-767.3429 592,-756 548.0502,-733.1766 498.1158,-706.1152 464.3892,-687.6681"/>
<polygon fill="#000000" stroke="#000000" points="657.2191,-792.892 667.7342,-794.1891 660.323,-786.6178 657.2191,-792.892"/>
<polygon fill="#000000" stroke="#000000" points="465.7769,-684.4376 455.3248,-682.7042 462.4146,-690.5773 465.7769,-684.4376"/>
</g>
<!-- Community&#45;&gt;dApps -->
<g id="edge85" class="edge">
<title>Community&#45;&gt;dApps</title>
<path fill="none" stroke="#000000" d="M686.3231,-782.6226C673.4064,-754.2007 656,-708.0911 656,-666 656,-666 656,-666 656,-594 656,-525.4677 636.7522,-446.6229 625.3005,-405.7779"/>
<polygon fill="#000000" stroke="#000000" points="683.2581,-784.3307 690.6687,-791.9025 689.5975,-781.362 683.2581,-784.3307"/>
<polygon fill="#000000" stroke="#000000" points="628.6208,-404.6585 622.505,-396.0071 621.8908,-406.5841 628.6208,-404.6585"/>
</g>
<!-- Community&#45;&gt;Business_Owners -->
<g id="edge81" class="edge">
<title>Community&#45;&gt;Business_Owners</title>
<path fill="none" stroke="#000000" d="M767.9008,-800.2513C883.4636,-781.7334 1106,-736.8731 1106,-666 1106,-666 1106,-666 1106,-306 1106,-229.0728 1014.9352,-192.3943 944.0712,-175.498"/>
<polygon fill="#000000" stroke="#000000" points="767.0704,-796.8389 757.7387,-801.8559 768.1623,-803.7533 767.0704,-796.8389"/>
<polygon fill="#000000" stroke="#000000" points="944.7465,-172.0621 934.2177,-173.243 943.1849,-178.8857 944.7465,-172.0621"/>
</g>
<!-- Community&#45;&gt;Programmers -->
<g id="edge79" class="edge">
<title>Community&#45;&gt;Programmers</title>
<path fill="none" stroke="#000000" d="M678.7072,-784.1568C672.1921,-775.5262 665.3432,-765.6439 660,-756 601.683,-650.7426 621.0388,-608.2849 561,-504 522.1326,-436.4888 461.6476,-367.3704 428.2346,-331.3559"/>
<polygon fill="#000000" stroke="#000000" points="676.1448,-786.5636 685.0427,-792.3149 681.6734,-782.2701 676.1448,-786.5636"/>
<polygon fill="#000000" stroke="#000000" points="430.5255,-328.6814 421.1391,-323.7676 425.4125,-333.4624 430.5255,-328.6814"/>
</g>
<!-- Community&#45;&gt;News -->
<g id="edge77" class="edge">
<title>Community&#45;&gt;News</title>
<path fill="none" stroke="#000000" d="M770.6154,-802.5684C853.0429,-793.1714 983.8397,-775.809 1029,-756 1088.4361,-729.9291 1144,-730.9026 1144,-666 1144,-666 1144,-666 1144,-234 1144,-169.0974 1088.1284,-170.7614 1029,-144 949.4778,-108.0084 847.1127,-96.0037 788.5946,-92.0009"/>
<polygon fill="#000000" stroke="#000000" points="770.1083,-799.1033 760.5636,-803.7022 770.893,-806.0592 770.1083,-799.1033"/>
<polygon fill="#000000" stroke="#000000" points="788.7444,-88.5034 778.5427,-91.363 788.301,-95.4894 788.7444,-88.5034"/>
</g>
<!-- Community&#45;&gt;Blogs -->
<g id="edge75" class="edge">
<title>Community&#45;&gt;Blogs</title>
<path fill="none" stroke="#000000" d="M698.1179,-781.5969C696.3583,-752.5628 694,-706.1588 694,-666 694,-666 694,-666 694,-594 694,-489.2581 700.604,-458.8607 666,-360 652.6184,-321.7699 626.1953,-282.9073 607.8326,-258.6492"/>
<polygon fill="#000000" stroke="#000000" points="694.6401,-782.0624 698.7568,-791.8247 701.6264,-781.6259 694.6401,-782.0624"/>
<polygon fill="#000000" stroke="#000000" points="610.5849,-256.4868 601.7082,-250.7029 605.0406,-260.76 610.5849,-256.4868"/>
</g>
<!-- Community&#45;&gt;Community -->
<g id="edge28" class="edge">
<title>Community&#45;&gt;Community</title>
<path fill="none" stroke="#000000" d="M744.053,-823.233C764.489,-824.6766 782.3443,-820.2656 782.3443,-810 782.3443,-801.4988 770.0993,-797.0126 754.284,-796.5415"/>
<polygon fill="#000000" stroke="#000000" points="753.9734,-793.0474 744.053,-796.767 754.1277,-800.0457 753.9734,-793.0474"/>
</g>
<!-- Community&#45;&gt;Markets -->
<g id="edge73" class="edge">
<title>Community&#45;&gt;Markets</title>
<path fill="none" stroke="#000000" d="M772.0394,-803.067C843.7788,-791.7524 949.4491,-762.023 994,-684 1004.7269,-665.2137 1002.9809,-640.4411 999.1119,-621.6426"/>
<polygon fill="#000000" stroke="#000000" points="771.0871,-799.6702 761.7124,-804.6063 772.1192,-806.5937 771.0871,-799.6702"/>
<polygon fill="#000000" stroke="#000000" points="1002.5135,-620.8179 996.8097,-611.8895 995.7007,-622.4261 1002.5135,-620.8179"/>
</g>
<!-- Markets&#45;&gt;Business_Owners -->
<g id="edge100" class="edge">
<title>Markets&#45;&gt;Business_Owners</title>
<path fill="none" stroke="#000000" d="M999.9846,-566.298C1008.5009,-537.5451 1020,-491.1099 1020,-450 1020,-450 1020,-450 1020,-306 1020,-246.7995 958.6581,-205.4668 912.4173,-182.7195"/>
<polygon fill="#000000" stroke="#000000" points="996.5803,-565.4624 997.0088,-576.0486 1003.2755,-567.5057 996.5803,-565.4624"/>
<polygon fill="#000000" stroke="#000000" points="913.6336,-179.4221 903.1002,-178.2829 910.6241,-185.7422 913.6336,-179.4221"/>
</g>
<!-- Markets&#45;&gt;End_Users -->
<g id="edge103" class="edge">
<title>Markets&#45;&gt;End_Users</title>
<path fill="none" stroke="#000000" d="M969.9906,-568.7888C964.2004,-561.8405 957.9178,-554.3014 952.1213,-547.3455"/>
<polygon fill="#000000" stroke="#000000" points="967.385,-571.1292 976.4757,-576.5708 972.7626,-566.6479 967.385,-571.1292"/>
<polygon fill="#000000" stroke="#000000" points="954.6892,-544.9598 945.5985,-539.5182 949.3116,-549.4411 954.6892,-544.9598"/>
</g>
<!-- Investors&#45;&gt;Markets -->
<g id="edge102" class="edge">
<title>Investors&#45;&gt;Markets</title>
<path fill="none" stroke="#000000" d="M936.221,-642.0986C945.2872,-634.1381 955.3704,-625.2845 964.3897,-617.3651"/>
<polygon fill="#000000" stroke="#000000" points="933.638,-639.7089 928.4329,-648.937 938.2566,-644.969 933.638,-639.7089"/>
<polygon fill="#000000" stroke="#000000" points="966.7844,-619.9202 971.9895,-610.6921 962.1658,-614.6601 966.7844,-619.9202"/>
</g>
</g>
</svg>
