<?xml version="1.0" encoding="UTF-8" standalone="no"?>
<!DOCTYPE svg PUBLIC "-//W3C//DTD SVG 1.1//EN"
 "http://www.w3.org/Graphics/SVG/1.1/DTD/svg11.dtd">
<!-- Generated by graphviz version 2.40.1 (20161225.0304)
 -->
<!-- Title: Software Flow Pages: 1 -->
<svg width="1369pt" height="1052pt"
 viewBox="0.00 0.00 1368.94 1052.00" xmlns="http://www.w3.org/2000/svg" xmlns:xlink="http://www.w3.org/1999/xlink">
<g id="graph0" class="graph" transform="scale(1 1) rotate(0) translate(4 1048)">
<title>Software Flow</title>
<polygon fill="#ffffff" stroke="transparent" points="-4,4 -4,-1048 1364.9406,-1048 1364.9406,4 -4,4"/>
<!-- Source_Code -->
<g id="node1" class="node">
<title>Source_Code</title>
<g id="a_node1"><a xlink:href="https://github.com/holochain/holochain-rust" xlink:title="Source_Code">
<ellipse fill="none" stroke="#000000" cx="379.9406" cy="-1026" rx="70.6878" ry="18"/>
<text text-anchor="middle" x="379.9406" y="-1022.3" font-family="Times,serif" font-size="14.00" fill="#000000">Source_Code</text>
</a>
</g>
</g>
<!-- Core_Developers -->
<g id="node3" class="node">
<title>Core_Developers</title>
<g id="a_node3"><a xlink:href="https://github.com/holochain/holochain-rust/graphs/contributors" xlink:title="Core_Developers">
<ellipse fill="none" stroke="#000000" cx="496.9406" cy="-954" rx="89.0842" ry="18"/>
<text text-anchor="middle" x="496.9406" y="-950.3" font-family="Times,serif" font-size="14.00" fill="#000000">Core_Developers</text>
</a>
</g>
</g>
<!-- Source_Code&#45;&gt;Core_Developers -->
<g id="edge2" class="edge">
<title>Source_Code&#45;&gt;Core_Developers</title>
<path fill="none" stroke="#000000" d="M415.7331,-1003.9738C429.9487,-995.2258 446.2818,-985.1746 460.5553,-976.391"/>
<polygon fill="#000000" stroke="#000000" points="413.7591,-1001.079 407.0768,-1009.3008 417.4278,-1007.0406 413.7591,-1001.079"/>
<polygon fill="#000000" stroke="#000000" points="462.4568,-979.3305 469.1391,-971.1086 458.7881,-973.3689 462.4568,-979.3305"/>
</g>
<!-- Software_Releases -->
<g id="node4" class="node">
<title>Software_Releases</title>
<g id="a_node4"><a xlink:href="https://github.com/holochain/holochain-rust/releases" xlink:title="Software_Releases">
<ellipse fill="none" stroke="#000000" cx="332.9406" cy="-810" rx="98.2828" ry="18"/>
<text text-anchor="middle" x="332.9406" y="-806.3" font-family="Times,serif" font-size="14.00" fill="#000000">Software_Releases</text>
</a>
</g>
</g>
<!-- Source_Code&#45;&gt;Software_Releases -->
<g id="edge1" class="edge">
<title>Source_Code&#45;&gt;Software_Releases</title>
<path fill="none" stroke="#000000" d="M386.0882,-1008.0141C394.929,-978.5597 407.3479,-919.5645 379.9406,-882"/>
<path fill="none" stroke="#000000" d="M379.9406,-882C368.725,-867.6089 357.5052,-850.5469 348.8418,-836.645"/>
<polygon fill="#000000" stroke="#000000" points="351.7621,-834.7121 343.5437,-828.0257 345.7986,-838.3778 351.7621,-834.7121"/>
</g>
<!-- Programmers -->
<g id="node16" class="node">
<title>Programmers</title>
<ellipse fill="none" stroke="#000000" cx="405.9406" cy="-234" rx="74.9875" ry="18"/>
<text text-anchor="middle" x="405.9406" y="-230.3" font-family="Times,serif" font-size="14.00" fill="#000000">Programmers</text>
</g>
<!-- Source_Code&#45;&gt;Programmers -->
<g id="edge109" class="edge">
<title>Source_Code&#45;&gt;Programmers</title>
<path fill="none" stroke="#000000" d="M352.0894,-1001.8512C314.9376,-967.5873 250.9442,-900.8739 225.9406,-828 210.4565,-782.8711 264.9406,-708.0124 264.9406,-666 264.9406,-666 264.9406,-666 264.9406,-450 264.9406,-369.0131 335.3047,-294.6567 376.619,-257.9783"/>
<polygon fill="#000000" stroke="#000000" points="349.8306,-1004.5278 359.5861,-1008.6608 354.5372,-999.3463 349.8306,-1004.5278"/>
<polygon fill="#000000" stroke="#000000" points="378.9728,-260.5697 384.2184,-251.3645 374.3773,-255.2894 378.9728,-260.5697"/>
</g>
<!-- Team -->
<g id="node2" class="node">
<title>Team</title>
<g id="a_node2"><a xlink:href="https://holo.host/team/" xlink:title="Team">
<ellipse fill="none" stroke="#000000" cx="1070.9406" cy="-810" rx="35.9954" ry="18"/>
<text text-anchor="middle" x="1070.9406" y="-806.3" font-family="Times,serif" font-size="14.00" fill="#000000">Team</text>
</a>
</g>
</g>
<!-- Documentation -->
<g id="node6" class="node">
<title>Documentation</title>
<g id="a_node6"><a xlink:href="https://developer.holochain.org/" xlink:title="Documentation">
<ellipse fill="none" stroke="#000000" cx="411.9406" cy="-738" rx="81.4863" ry="18"/>
<text text-anchor="middle" x="411.9406" y="-734.3" font-family="Times,serif" font-size="14.00" fill="#000000">Documentation</text>
</a>
</g>
</g>
<!-- Team&#45;&gt;Documentation -->
<g id="edge63" class="edge">
<title>Team&#45;&gt;Documentation</title>
<path fill="none" stroke="#000000" d="M1026.0334,-805.0936C916.8797,-793.1679 636.2864,-762.5112 495.3455,-747.1125"/>
<polygon fill="#000000" stroke="#000000" points="1025.6542,-808.5729 1035.9752,-806.1798 1026.4145,-801.6143 1025.6542,-808.5729"/>
<polygon fill="#000000" stroke="#000000" points="495.3526,-743.5926 485.0316,-745.9857 494.5923,-750.5512 495.3526,-743.5926"/>
</g>
<!-- News -->
<g id="node12" class="node">
<title>News</title>
<ellipse fill="none" stroke="#000000" cx="841.9406" cy="-90" rx="36.2938" ry="18"/>
<text text-anchor="middle" x="841.9406" y="-86.3" font-family="Times,serif" font-size="14.00" fill="#000000">News</text>
</g>
<!-- Team&#45;&gt;News -->
<g id="edge65" class="edge">
<title>Team&#45;&gt;News</title>
<path fill="none" stroke="#000000" d="M1107.1002,-793.9582C1108.732,-793.2869 1110.3511,-792.6313 1111.9406,-792 1156.2308,-774.4104 1181.1023,-791.4589 1212.9406,-756 1284.3847,-676.4312 1268.9406,-628.9367 1268.9406,-522 1268.9406,-522 1268.9406,-522 1268.9406,-234 1268.9406,-154.232 997.9991,-110.1742 887.7637,-95.5499"/>
<polygon fill="#000000" stroke="#000000" points="1105.5842,-790.799 1097.7315,-797.9114 1108.3055,-797.2484 1105.5842,-790.799"/>
<polygon fill="#000000" stroke="#000000" points="887.9805,-92.0486 877.6119,-94.2263 887.0755,-98.9899 887.9805,-92.0486"/>
</g>
<!-- Press_Releases -->
<g id="node15" class="node">
<title>Press_Releases</title>
<ellipse fill="none" stroke="#000000" cx="896.9406" cy="-738" rx="81.7856" ry="18"/>
<text text-anchor="middle" x="896.9406" y="-734.3" font-family="Times,serif" font-size="14.00" fill="#000000">Press_Releases</text>
</g>
<!-- Team&#45;&gt;Press_Releases -->
<g id="edge62" class="edge">
<title>Team&#45;&gt;Press_Releases</title>
<path fill="none" stroke="#000000" d="M1042.9845,-798.432C1016.6054,-787.5165 976.514,-770.9269 945.0062,-757.8892"/>
<polygon fill="#000000" stroke="#000000" points="946.1066,-754.5568 935.5282,-753.9673 943.4301,-761.0249 946.1066,-754.5568"/>
</g>
<!-- Markets -->
<g id="node19" class="node">
<title>Markets</title>
<ellipse fill="none" stroke="#000000" cx="1013.9406" cy="-666" rx="49.2915" ry="18"/>
<text text-anchor="middle" x="1013.9406" y="-662.3" font-family="Times,serif" font-size="14.00" fill="#000000">Markets</text>
</g>
<!-- Team&#45;&gt;Markets -->
<g id="edge67" class="edge">
<title>Team&#45;&gt;Markets</title>
<path fill="none" stroke="#000000" d="M1060.1982,-782.8614C1050.1146,-757.387 1035.1007,-719.4572 1024.9357,-693.7772"/>
<polygon fill="#000000" stroke="#000000" points="1057.0164,-784.3329 1063.9513,-792.3428 1063.5251,-781.7565 1057.0164,-784.3329"/>
<polygon fill="#000000" stroke="#000000" points="1028.1018,-692.2658 1021.1669,-684.256 1021.5931,-694.8422 1028.1018,-692.2658"/>
</g>
<!-- Blogs -->
<g id="node20" class="node">
<title>Blogs</title>
<ellipse fill="none" stroke="#000000" cx="905.9406" cy="-306" rx="36.2938" ry="18"/>
<text text-anchor="middle" x="905.9406" y="-302.3" font-family="Times,serif" font-size="14.00" fill="#000000">Blogs</text>
</g>
<!-- Team&#45;&gt;Blogs -->
<g id="edge47" class="edge">
<title>Team&#45;&gt;Blogs</title>
<path fill="none" stroke="#000000" d="M1114.992,-802.2194C1141.5356,-795.03 1173.3235,-781.4291 1189.9406,-756 1246.8363,-668.933 1192.9406,-626.0085 1192.9406,-522 1192.9406,-522 1192.9406,-522 1192.9406,-450 1192.9406,-343.6146 1033.4514,-315.819 952.2589,-308.5616"/>
<polygon fill="#000000" stroke="#000000" points="1113.9795,-798.8645 1105.1183,-804.6722 1115.6672,-805.658 1113.9795,-798.8645"/>
<polygon fill="#000000" stroke="#000000" points="952.5434,-305.0733 942.2893,-307.7386 951.9675,-312.0495 952.5434,-305.0733"/>
</g>
<!-- Community -->
<g id="node21" class="node">
<title>Community</title>
<ellipse fill="none" stroke="#000000" cx="683.9406" cy="-882" rx="64.189" ry="18"/>
<text text-anchor="middle" x="683.9406" y="-878.3" font-family="Times,serif" font-size="14.00" fill="#000000">Community</text>
</g>
<!-- Investors -->
<g id="node22" class="node">
<title>Investors</title>
<ellipse fill="none" stroke="#000000" cx="1126.9406" cy="-738" rx="53.8905" ry="18"/>
<text text-anchor="middle" x="1126.9406" y="-734.3" font-family="Times,serif" font-size="14.00" fill="#000000">Investors</text>
</g>
<!-- Team&#45;&gt;Investors -->
<g id="edge69" class="edge">
<title>Team&#45;&gt;Investors</title>
<path fill="none" stroke="#000000" d="M1090.5466,-784.7923C1095.8494,-777.9744 1101.5948,-770.5875 1106.92,-763.7408"/>
<polygon fill="#000000" stroke="#000000" points="1087.5885,-782.8947 1084.2118,-792.937 1093.114,-787.1923 1087.5885,-782.8947"/>
<polygon fill="#000000" stroke="#000000" points="1109.9989,-765.483 1113.3756,-755.4407 1104.4734,-761.1854 1109.9989,-765.483"/>
</g>
<!-- Core_Developers&#45;&gt;Team -->
<g id="edge61" class="edge">
<title>Core_Developers&#45;&gt;Team</title>
<path fill="none" stroke="#000000" d="M580.6821,-942.3659C642.1177,-933.0477 727.3149,-918.4896 800.9406,-900 900.7232,-874.9416 923.6416,-861.4275 1020.9406,-828 1024.6625,-826.7213 1028.5323,-825.369 1032.3973,-824.0031"/>
<polygon fill="#000000" stroke="#000000" points="580.0178,-938.9263 570.6488,-943.8731 581.0578,-945.8486 580.0178,-938.9263"/>
<polygon fill="#000000" stroke="#000000" points="1033.6632,-827.2677 1041.9082,-820.614 1031.3135,-820.6738 1033.6632,-827.2677"/>
</g>
<!-- Core_Developers&#45;&gt;Software_Releases -->
<g id="edge79" class="edge">
<title>Core_Developers&#45;&gt;Software_Releases</title>
<path fill="none" stroke="#000000" d="M455.1004,-937.9881C429.7188,-926.1968 398.7075,-907.7219 379.9406,-882"/>
</g>
<!-- Core_Developers&#45;&gt;Documentation -->
<g id="edge73" class="edge">
<title>Core_Developers&#45;&gt;Documentation</title>
<path fill="none" stroke="#000000" d="M488.3858,-925.9335C478.1268,-893.2646 459.8109,-837.9263 439.9406,-792 436.1017,-783.1272 431.4278,-773.6947 427.0069,-765.2375"/>
<polygon fill="#000000" stroke="#000000" points="485.1125,-927.1943 491.4253,-935.703 491.7965,-925.1147 485.1125,-927.1943"/>
<polygon fill="#000000" stroke="#000000" points="429.974,-763.3632 422.1812,-756.1853 423.797,-766.6562 429.974,-763.3632"/>
</g>
<!-- API_Docs -->
<g id="node7" class="node">
<title>API_Docs</title>
<g id="a_node7"><a xlink:href="https://developer.holochain.org/api/latest/hdk/" xlink:title="API_Docs">
<ellipse fill="none" stroke="#000000" cx="144.9406" cy="-738" rx="53.8905" ry="18"/>
<text text-anchor="middle" x="144.9406" y="-734.3" font-family="Times,serif" font-size="14.00" fill="#000000">API_Docs</text>
</a>
</g>
</g>
<!-- Core_Developers&#45;&gt;API_Docs -->
<g id="edge71" class="edge">
<title>Core_Developers&#45;&gt;API_Docs</title>
<path fill="none" stroke="#000000" d="M438.9308,-935.5064C381.1137,-915.2176 291.6986,-878.6669 225.9406,-828 201.862,-809.4473 179.1415,-783.1386 163.9272,-763.7552"/>
<polygon fill="#000000" stroke="#000000" points="438.0425,-938.9026 448.6372,-938.864 440.3308,-932.2872 438.0425,-938.9026"/>
<polygon fill="#000000" stroke="#000000" points="166.5611,-761.439 157.686,-755.6525 161.0155,-765.7106 166.5611,-761.439"/>
</g>
<!-- Guide_Book -->
<g id="node8" class="node">
<title>Guide_Book</title>
<g id="a_node8"><a xlink:href="https://developer.holochain.org/guide/latest/welcome.html" xlink:title="Guide_Book">
<ellipse fill="none" stroke="#000000" cx="842.9406" cy="-666" rx="65.7887" ry="18"/>
<text text-anchor="middle" x="842.9406" y="-662.3" font-family="Times,serif" font-size="14.00" fill="#000000">Guide_Book</text>
</a>
</g>
</g>
<!-- Core_Developers&#45;&gt;Guide_Book -->
<g id="edge80" class="edge">
<title>Core_Developers&#45;&gt;Guide_Book</title>
<path fill="none" stroke="#000000" d="M588.1116,-945.1839C652.9493,-937.09 732.6773,-922.8266 756.9406,-900 817.3283,-843.1881 771.1327,-795.2508 805.9406,-720 810.4493,-710.2527 816.6711,-700.3434 822.7269,-691.7198"/>
<polygon fill="#000000" stroke="#000000" points="587.3494,-941.7507 577.8441,-946.4303 588.1931,-948.6996 587.3494,-941.7507"/>
<polygon fill="#000000" stroke="#000000" points="825.5985,-693.7221 828.6577,-683.5785 819.9406,-689.6004 825.5985,-693.7221"/>
</g>
<!-- Dev_Pulse -->
<g id="node9" class="node">
<title>Dev_Pulse</title>
<g id="a_node9"><a xlink:href="https://medium.com/holochain" xlink:title="Dev_Pulse">
<ellipse fill="none" stroke="#000000" cx="168.9406" cy="-162" rx="58.4896" ry="18"/>
<text text-anchor="middle" x="168.9406" y="-158.3" font-family="Times,serif" font-size="14.00" fill="#000000">Dev_Pulse</text>
</a>
</g>
</g>
<!-- Core_Developers&#45;&gt;Dev_Pulse -->
<g id="edge75" class="edge">
<title>Core_Developers&#45;&gt;Dev_Pulse</title>
<path fill="none" stroke="#000000" d="M406.5235,-945.0091C269.4762,-928.8408 24.9406,-888.9323 24.9406,-810 24.9406,-810 24.9406,-810 24.9406,-450 24.9406,-342.7255 105.8549,-234.449 146.3763,-186.9508"/>
<polygon fill="#000000" stroke="#000000" points="406.2682,-948.5029 416.6049,-946.1786 407.0748,-941.5495 406.2682,-948.5029"/>
<polygon fill="#000000" stroke="#000000" points="149.0766,-189.1791 152.9799,-179.3295 143.7862,-184.5952 149.0766,-189.1791"/>
</g>
<!-- Core_Developers&#45;&gt;Programmers -->
<g id="edge77" class="edge">
<title>Core_Developers&#45;&gt;Programmers</title>
<path fill="none" stroke="#000000" d="M497.8836,-925.5832C499.1079,-887.1337 501.1781,-816.3976 501.9406,-756 502.1426,-740.0013 502.5855,-735.987 501.9406,-720 498.3822,-631.7849 485.9406,-610.2869 485.9406,-522 485.9406,-522 485.9406,-522 485.9406,-378 485.9406,-331.6674 453.9014,-286.3067 430.3745,-259.2436"/>
<polygon fill="#000000" stroke="#000000" points="494.3723,-925.877 497.5478,-935.9847 501.3687,-926.1029 494.3723,-925.877"/>
<polygon fill="#000000" stroke="#000000" points="432.9723,-256.898 423.6952,-251.7807 427.7563,-261.5663 432.9723,-256.898"/>
</g>
<!-- Core_Developers&#45;&gt;Blogs -->
<g id="edge49" class="edge">
<title>Core_Developers&#45;&gt;Blogs</title>
<path fill="none" stroke="#000000" d="M592.2796,-947.9921C816.9723,-932.5596 1360.9406,-887.2237 1360.9406,-810 1360.9406,-810 1360.9406,-810 1360.9406,-666 1360.9406,-505.4454 1300.8625,-451.5117 1168.9406,-360 1134.3128,-335.9793 1017.3843,-318.9504 951.6987,-311.0206"/>
<polygon fill="#000000" stroke="#000000" points="591.8877,-944.5106 582.1488,-948.6825 592.3637,-951.4944 591.8877,-944.5106"/>
<polygon fill="#000000" stroke="#000000" points="951.9593,-307.5271 941.617,-309.8264 951.1358,-314.4785 951.9593,-307.5271"/>
</g>
<!-- Core_Developers&#45;&gt;Community -->
<g id="edge91" class="edge">
<title>Core_Developers&#45;&gt;Community</title>
<path fill="none" stroke="#000000" d="M547.7875,-934.4226C575.4,-923.791 609.3294,-910.7273 636.4099,-900.3006"/>
<polygon fill="#000000" stroke="#000000" points="546.5165,-931.1614 538.442,-938.0209 549.0318,-937.6939 546.5165,-931.1614"/>
<polygon fill="#000000" stroke="#000000" points="637.9781,-903.4473 646.0526,-896.5879 635.4628,-896.9148 637.9781,-903.4473"/>
</g>
<!-- Hosts -->
<g id="node5" class="node">
<title>Hosts</title>
<g id="a_node5"><a xlink:href="https://holo.host/host/" xlink:title="Hosts">
<ellipse fill="none" stroke="#000000" cx="801.9406" cy="-522" rx="37.8943" ry="18"/>
<text text-anchor="middle" x="801.9406" y="-518.3" font-family="Times,serif" font-size="14.00" fill="#000000">Hosts</text>
</a>
</g>
</g>
<!-- Software_Releases&#45;&gt;Hosts -->
<g id="edge8" class="edge">
<title>Software_Releases&#45;&gt;Hosts</title>
<path fill="none" stroke="#000000" d="M394.4617,-795.9602C427.4603,-787.0619 468.1664,-773.8351 501.9406,-756 517.025,-748.0344 703.1548,-600.5195 774.4254,-543.8864"/>
<polygon fill="#000000" stroke="#000000" points="776.8777,-546.4081 782.5283,-537.4459 772.5221,-540.9282 776.8777,-546.4081"/>
</g>
<!-- Software_Releases&#45;&gt;Documentation -->
<g id="edge10" class="edge">
<title>Software_Releases&#45;&gt;Documentation</title>
<path fill="none" stroke="#000000" d="M352.4687,-792.2022C362.3224,-783.2217 374.4263,-772.1902 385.1367,-762.4289"/>
<polygon fill="#000000" stroke="#000000" points="387.6038,-764.9159 392.6371,-755.593 382.8886,-759.7423 387.6038,-764.9159"/>
</g>
<!-- Software_Releases&#45;&gt;API_Docs -->
<g id="edge4" class="edge">
<title>Software_Releases&#45;&gt;API_Docs</title>
<path fill="none" stroke="#000000" d="M290.2805,-793.6621C260.3671,-782.2059 220.4479,-766.9177 190.0147,-755.2624"/>
<polygon fill="#000000" stroke="#000000" points="191.0822,-751.9234 180.4919,-751.6154 188.5787,-758.4604 191.0822,-751.9234"/>
</g>
<!-- Software_Releases&#45;&gt;News -->
<g id="edge5" class="edge">
<title>Software_Releases&#45;&gt;News</title>
<path fill="none" stroke="#000000" d="M308.0883,-792.3996C276.7579,-767.9393 226.9406,-720.4803 226.9406,-666 226.9406,-666 226.9406,-666 226.9406,-306 226.9406,-217.1856 267.1614,-188.6426 343.9406,-144 382.5277,-121.5639 679.5133,-100.3836 795.6256,-92.8748"/>
<polygon fill="#000000" stroke="#000000" points="795.8771,-96.3659 805.6324,-92.2326 795.4288,-89.3803 795.8771,-96.3659"/>
</g>
<!-- Libraries -->
<g id="node13" class="node">
<title>Libraries</title>
<ellipse fill="none" stroke="#000000" cx="405.9406" cy="-162" rx="52.7911" ry="18"/>
<text text-anchor="middle" x="405.9406" y="-158.3" font-family="Times,serif" font-size="14.00" fill="#000000">Libraries</text>
</g>
<!-- Software_Releases&#45;&gt;Libraries -->
<g id="edge6" class="edge">
<title>Software_Releases&#45;&gt;Libraries</title>
<path fill="none" stroke="#000000" d="M324.9987,-791.7491C318.0269,-772.8188 310.613,-742.8469 321.9406,-720 339.5512,-684.4807 381.1134,-703.8401 392.9406,-666"/>
<path fill="none" stroke="#000000" d="M392.9406,-666C417.606,-569.8262 319.7628,-547.9595 335.9406,-450"/>
<path fill="none" stroke="#000000" d="M335.9406,-450C330.9512,-345.9336 272.0159,-307.4453 321.9406,-216 330.5519,-200.2269 345.9615,-188.3738 361.2521,-179.8522"/>
<polygon fill="#000000" stroke="#000000" points="362.9245,-182.9276 370.189,-175.2154 359.7007,-176.7142 362.9245,-182.9276"/>
</g>
<!-- dApps -->
<g id="node14" class="node">
<title>dApps</title>
<ellipse fill="none" stroke="#000000" cx="629.9406" cy="-450" rx="39.7935" ry="18"/>
<text text-anchor="middle" x="629.9406" y="-446.3" font-family="Times,serif" font-size="14.00" fill="#000000">dApps</text>
</g>
<!-- Software_Releases&#45;&gt;dApps -->
<g id="edge7" class="edge">
<title>Software_Releases&#45;&gt;dApps</title>
<path fill="none" stroke="#000000" d="M392.9406,-666C414.0468,-564.5997 529.649,-496.5014 591.2507,-466.8565"/>
<polygon fill="#000000" stroke="#000000" points="593.0952,-469.8566 600.651,-462.4296 590.1128,-463.5237 593.0952,-469.8566"/>
</g>
<!-- Software_Releases&#45;&gt;Press_Releases -->
<g id="edge9" class="edge">
<title>Software_Releases&#45;&gt;Press_Releases</title>
<path fill="none" stroke="#000000" d="M413.748,-799.6842C520.8597,-786.0103 708.7748,-762.0212 815.9689,-748.3368"/>
<polygon fill="#000000" stroke="#000000" points="816.6089,-751.7836 826.0851,-747.0454 815.7224,-744.84 816.6089,-751.7836"/>
</g>
<!-- Software_Releases&#45;&gt;Programmers -->
<g id="edge11" class="edge">
<title>Software_Releases&#45;&gt;Programmers</title>
<path fill="none" stroke="#000000" d="M335.9406,-450C342.0138,-413.2257 375.1195,-415.0761 378.9406,-378"/>
<path fill="none" stroke="#000000" d="M378.9406,-378C383.1441,-337.213 392.7598,-290.694 399.3048,-261.8348"/>
<polygon fill="#000000" stroke="#000000" points="402.7258,-262.5755 401.5615,-252.0448 395.9047,-261.0031 402.7258,-262.5755"/>
</g>
<!-- Hosts&#45;&gt;dApps -->
<g id="edge82" class="edge">
<title>Hosts&#45;&gt;dApps</title>
<path fill="none" stroke="#000000" d="M764.1813,-506.1938C735.8102,-494.3175 697.0856,-478.1072 668.5181,-466.1487"/>
<polygon fill="#000000" stroke="#000000" points="762.9624,-509.4778 773.5383,-510.1107 765.6654,-503.0207 762.9624,-509.4778"/>
<polygon fill="#000000" stroke="#000000" points="669.8249,-462.9015 659.249,-462.2686 667.1219,-469.3586 669.8249,-462.9015"/>
</g>
<!-- Business_Owners -->
<g id="node17" class="node">
<title>Business_Owners</title>
<ellipse fill="none" stroke="#000000" cx="905.9406" cy="-378" rx="92.0841" ry="18"/>
<text text-anchor="middle" x="905.9406" y="-374.3" font-family="Times,serif" font-size="14.00" fill="#000000">Business_Owners</text>
</g>
<!-- Hosts&#45;&gt;Business_Owners -->
<g id="edge84" class="edge">
<title>Hosts&#45;&gt;Business_Owners</title>
<path fill="none" stroke="#000000" d="M820.3153,-496.5581C839.0532,-470.6133 867.9902,-430.5467 886.9485,-404.2968"/>
<polygon fill="#000000" stroke="#000000" points="817.2967,-494.7598 814.2792,-504.9158 822.9715,-498.8583 817.2967,-494.7598"/>
<polygon fill="#000000" stroke="#000000" points="889.9485,-406.1207 892.9661,-395.9647 884.2738,-402.0223 889.9485,-406.1207"/>
</g>
<!-- End_Users -->
<g id="node18" class="node">
<title>End_Users</title>
<ellipse fill="none" stroke="#000000" cx="951.9406" cy="-594" rx="61.1893" ry="18"/>
<text text-anchor="middle" x="951.9406" y="-590.3" font-family="Times,serif" font-size="14.00" fill="#000000">End_Users</text>
</g>
<!-- Documentation&#45;&gt;Dev_Pulse -->
<g id="edge16" class="edge">
<title>Documentation&#45;&gt;Dev_Pulse</title>
<path fill="none" stroke="#000000" d="M420.9894,-719.8843C427.1493,-705.4621 433.72,-684.669 430.9406,-666"/>
<path fill="none" stroke="#000000" d="M430.9406,-666C427.1719,-640.6858 419.4931,-636.1219 410.9406,-612 382.7136,-532.3869 386.6265,-508.0865 349.9406,-432 300.3596,-329.169 276.9389,-309.1489 210.9406,-216 204.2803,-206.5998 196.6374,-196.5704 189.7126,-187.7383"/>
<polygon fill="#000000" stroke="#000000" points="192.2991,-185.3665 183.349,-179.6967 186.8099,-189.7104 192.2991,-185.3665"/>
</g>
<!-- Documentation&#45;&gt;Programmers -->
<g id="edge17" class="edge">
<title>Documentation&#45;&gt;Programmers</title>
<path fill="none" stroke="#000000" d="M430.9406,-666C430.0174,-657.9232 378.6588,-386.1245 378.9406,-378"/>
</g>
<!-- API_Docs&#45;&gt;Dev_Pulse -->
<g id="edge18" class="edge">
<title>API_Docs&#45;&gt;Dev_Pulse</title>
<path fill="none" stroke="#000000" d="M154.2719,-719.9025C167.1877,-693.1296 188.9406,-641.0538 188.9406,-594 188.9406,-594 188.9406,-594 188.9406,-450 188.9406,-386 158.6816,-362.395 188.9406,-306"/>
<path fill="none" stroke="#000000" d="M188.9406,-306C211.3739,-270.3346 196.0461,-219.9521 182.6651,-189.2115"/>
<polygon fill="#000000" stroke="#000000" points="185.7792,-187.605 178.4394,-179.9645 179.4125,-190.5145 185.7792,-187.605"/>
</g>
<!-- API_Docs&#45;&gt;Programmers -->
<g id="edge19" class="edge">
<title>API_Docs&#45;&gt;Programmers</title>
<path fill="none" stroke="#000000" d="M188.9406,-306C203.2661,-279.301 277.6801,-258.84 335.4192,-246.6722"/>
<polygon fill="#000000" stroke="#000000" points="336.1703,-250.091 345.2577,-244.6441 334.757,-243.2352 336.1703,-250.091"/>
</g>
<!-- Guide_Book&#45;&gt;Programmers -->
<g id="edge20" class="edge">
<title>Guide_Book&#45;&gt;Programmers</title>
<path fill="none" stroke="#000000" d="M809.2691,-650.2758C752.7957,-622.098 639.4419,-557.4739 580.9406,-468 535.9292,-399.1581 591.4601,-350.4572 537.9406,-288 521.5149,-268.8312 497.2363,-256.3658 473.965,-248.3047"/>
<polygon fill="#000000" stroke="#000000" points="475.0186,-244.967 464.4267,-245.2176 472.8631,-251.6269 475.0186,-244.967"/>
</g>
<!-- Guide_Book&#45;&gt;Business_Owners -->
<g id="edge21" class="edge">
<title>Guide_Book&#45;&gt;Business_Owners</title>
<path fill="none" stroke="#000000" d="M893.063,-654.1161C943.2086,-641.7236 1014.0288,-622.6508 1021.9406,-612 1073.5282,-542.5533 983.7887,-446.6465 934.7257,-402.2944"/>
<polygon fill="#000000" stroke="#000000" points="937.0281,-399.6581 927.2285,-395.6308 932.3777,-404.8902 937.0281,-399.6581"/>
</g>
<!-- Community_Matters -->
<g id="node10" class="node">
<title>Community_Matters</title>
<g id="a_node10"><a xlink:href="https://medium.com/holochain/tagged/community-matters" xlink:title="Community_Matters">
<ellipse fill="none" stroke="#000000" cx="105.9406" cy="-90" rx="105.8812" ry="18"/>
<text text-anchor="middle" x="105.9406" y="-86.3" font-family="Times,serif" font-size="14.00" fill="#000000">Community_Matters</text>
</a>
</g>
</g>
<!-- Dev_Pulse&#45;&gt;Community_Matters -->
<g id="edge38" class="edge">
<title>Dev_Pulse&#45;&gt;Community_Matters</title>
<path fill="none" stroke="#000000" d="M146.986,-136.909C141.0022,-130.0704 134.5109,-122.6518 128.4945,-115.7759"/>
<polygon fill="#000000" stroke="#000000" points="144.471,-139.3498 153.6901,-144.5708 149.739,-134.7402 144.471,-139.3498"/>
<polygon fill="#000000" stroke="#000000" points="130.9277,-113.2416 121.7086,-108.0206 125.6597,-117.8512 130.9277,-113.2416"/>
</g>
<!-- Now_Building -->
<g id="node11" class="node">
<title>Now_Building</title>
<g id="a_node11"><a xlink:href="https://medium.com/holochain/tagged/now-building" xlink:title="Now_Building">
<ellipse fill="none" stroke="#000000" cx="239.9406" cy="-18" rx="75.2868" ry="18"/>
<text text-anchor="middle" x="239.9406" y="-14.3" font-family="Times,serif" font-size="14.00" fill="#000000">Now_Building</text>
</a>
</g>
</g>
<!-- Dev_Pulse&#45;&gt;Now_Building -->
<g id="edge40" class="edge">
<title>Dev_Pulse&#45;&gt;Now_Building</title>
<path fill="none" stroke="#000000" d="M197.657,-137.9983C206.3323,-129.3737 215.096,-119.0293 220.9406,-108 231.0667,-88.8912 235.7964,-64.8143 238.0053,-46.3727"/>
<polygon fill="#000000" stroke="#000000" points="194.9965,-135.6969 190.1317,-145.1088 199.804,-140.7849 194.9965,-135.6969"/>
<polygon fill="#000000" stroke="#000000" points="241.5054,-46.549 239.0364,-36.2459 234.5414,-45.8399 241.5054,-46.549"/>
</g>
<!-- Dev_Pulse&#45;&gt;News -->
<g id="edge26" class="edge">
<title>Dev_Pulse&#45;&gt;News</title>
<path fill="none" stroke="#000000" d="M222.2554,-147.6925C228.5244,-146.3013 234.8542,-145.0278 240.9406,-144 445.7131,-109.4196 693.7269,-96.0144 795.2273,-91.7255"/>
<polygon fill="#000000" stroke="#000000" points="221.4476,-144.2869 212.4978,-149.9572 223.0302,-151.1056 221.4476,-144.2869"/>
<polygon fill="#000000" stroke="#000000" points="795.5973,-95.2133 805.4445,-91.3039 795.3086,-88.2192 795.5973,-95.2133"/>
</g>
<!-- Community_Matters&#45;&gt;Now_Building -->
<g id="edge45" class="edge">
<title>Community_Matters&#45;&gt;Now_Building</title>
<path fill="none" stroke="#000000" d="M146.9342,-67.9736C163.8043,-58.909 183.2782,-48.4454 200.0337,-39.4425"/>
<polygon fill="#000000" stroke="#000000" points="145.1893,-64.9379 138.0369,-72.7542 148.5025,-71.1041 145.1893,-64.9379"/>
<polygon fill="#000000" stroke="#000000" points="201.8764,-42.4257 209.0287,-34.6094 198.5632,-36.2594 201.8764,-42.4257"/>
</g>
<!-- News&#45;&gt;Programmers -->
<g id="edge27" class="edge">
<title>News&#45;&gt;Programmers</title>
<path fill="none" stroke="#000000" d="M811.5025,-100.0529C738.448,-124.1811 552.3994,-185.6283 459.8772,-216.1861"/>
<polygon fill="#000000" stroke="#000000" points="458.5438,-212.9404 450.146,-219.4001 460.7392,-219.5873 458.5438,-212.9404"/>
</g>
<!-- Libraries&#45;&gt;dApps -->
<g id="edge12" class="edge">
<title>Libraries&#45;&gt;dApps</title>
<path fill="none" stroke="#000000" d="M440.523,-175.7901C483.8473,-194.7706 557.5351,-232.9636 599.9406,-288 630.0006,-327.0137 633.1955,-386.8345 632.0654,-421.8226"/>
<polygon fill="#000000" stroke="#000000" points="628.5683,-421.6816 631.6008,-431.8332 635.5607,-422.0062 628.5683,-421.6816"/>
</g>
<!-- dApps&#45;&gt;Programmers -->
<g id="edge111" class="edge">
<title>dApps&#45;&gt;Programmers</title>
<path fill="none" stroke="#000000" d="M623.8512,-422.0627C614.3709,-380.9475 595.1671,-306.9557 575.9406,-288 560.7824,-273.0553 512.8775,-258.5885 471.7691,-248.3964"/>
<polygon fill="#000000" stroke="#000000" points="620.4779,-423.014 626.0995,-431.9945 627.3052,-421.4684 620.4779,-423.014"/>
<polygon fill="#000000" stroke="#000000" points="472.5775,-244.9911 462.0337,-246.0295 470.9237,-251.7929 472.5775,-244.9911"/>
</g>
<!-- dApps&#45;&gt;Business_Owners -->
<g id="edge13" class="edge">
<title>dApps&#45;&gt;Business_Owners</title>
<path fill="none" stroke="#000000" d="M664.3381,-441.0267C708.3696,-429.5403 785.5623,-409.403 840.851,-394.9799"/>
<polygon fill="#000000" stroke="#000000" points="841.7684,-398.3578 850.561,-392.4468 840.0014,-391.5845 841.7684,-398.3578"/>
</g>
<!-- Press_Releases&#45;&gt;News -->
<g id="edge22" class="edge">
<title>Press_Releases&#45;&gt;News</title>
<path fill="none" stroke="#000000" d="M936.9406,-666C962.861,-619.9176 1005.7763,-649.6068 1042.9406,-612 1073.2229,-581.3572 1078.9406,-565.0813 1078.9406,-522 1078.9406,-522 1078.9406,-522 1078.9406,-234 1078.9406,-145.2731 956.1204,-109.6669 887.3119,-96.681"/>
<polygon fill="#000000" stroke="#000000" points="887.6277,-93.1817 877.166,-94.8559 886.3883,-100.0712 887.6277,-93.1817"/>
</g>
<!-- Press_Releases&#45;&gt;Business_Owners -->
<g id="edge23" class="edge">
<title>Press_Releases&#45;&gt;Business_Owners</title>
<path fill="none" stroke="#000000" d="M907.3005,-720.1279C915.5788,-705.6658 927.3433,-684.7014 936.9406,-666"/>
<path fill="none" stroke="#000000" d="M936.9406,-666C952.5813,-635.5222 895.1952,-643.5887 881.9406,-612 852.6341,-542.1558 878.3906,-450.6887 894.8066,-405.5919"/>
<polygon fill="#000000" stroke="#000000" points="898.1001,-406.777 898.3431,-396.1849 891.5479,-404.3136 898.1001,-406.777"/>
</g>
<!-- Press_Releases&#45;&gt;Markets -->
<g id="edge24" class="edge">
<title>Press_Releases&#45;&gt;Markets</title>
<path fill="none" stroke="#000000" d="M924.668,-720.937C941.1257,-710.8092 962.1259,-697.886 979.6232,-687.1184"/>
<polygon fill="#000000" stroke="#000000" points="981.729,-689.9322 988.4113,-681.7103 978.0603,-683.9706 981.729,-689.9322"/>
</g>
<!-- Programmers&#45;&gt;Dev_Pulse -->
<g id="edge35" class="edge">
<title>Programmers&#45;&gt;Dev_Pulse</title>
<path fill="none" stroke="#000000" d="M349.7118,-216.9178C310.5138,-205.0096 258.618,-189.2438 220.4879,-177.6599"/>
<polygon fill="#000000" stroke="#000000" points="348.8142,-220.303 359.3998,-219.861 350.849,-213.6053 348.8142,-220.303"/>
<polygon fill="#000000" stroke="#000000" points="221.2001,-174.2184 210.6145,-174.6604 219.1653,-180.9162 221.2001,-174.2184"/>
</g>
<!-- Programmers&#45;&gt;Libraries -->
<g id="edge112" class="edge">
<title>Programmers&#45;&gt;Libraries</title>
<path fill="none" stroke="#000000" d="M405.9406,-205.5726C405.9406,-200.6792 405.9406,-195.5904 405.9406,-190.6901"/>
<polygon fill="#000000" stroke="#000000" points="402.4407,-205.8313 405.9406,-215.8314 409.4407,-205.8314 402.4407,-205.8313"/>
<polygon fill="#000000" stroke="#000000" points="409.4407,-190.4132 405.9406,-180.4133 402.4407,-190.4133 409.4407,-190.4132"/>
</g>
<!-- Business_Owners&#45;&gt;News -->
<g id="edge31" class="edge">
<title>Business_Owners&#45;&gt;News</title>
<path fill="none" stroke="#000000" d="M879.1764,-352.4137C872.0316,-344.0617 865.138,-334.2732 860.9406,-324 832.4683,-254.3136 835.1896,-163.3813 838.9147,-118.1312"/>
<polygon fill="#000000" stroke="#000000" points="876.7085,-354.9022 886.0236,-359.9499 881.8894,-350.195 876.7085,-354.9022"/>
<polygon fill="#000000" stroke="#000000" points="842.4011,-118.4377 839.8143,-108.1635 835.4295,-117.8083 842.4011,-118.4377"/>
</g>
<!-- Business_Owners&#45;&gt;Programmers -->
<g id="edge115" class="edge">
<title>Business_Owners&#45;&gt;Programmers</title>
<path fill="none" stroke="#000000" d="M848.2509,-359.3793C789.5125,-340.6183 695.7109,-311.2033 613.9406,-288 565.1994,-274.1691 509.6376,-259.8161 468.2079,-249.3872"/>
<polygon fill="#000000" stroke="#000000" points="847.493,-362.8115 858.084,-362.5251 849.626,-356.1444 847.493,-362.8115"/>
<polygon fill="#000000" stroke="#000000" points="468.8111,-245.9301 458.2599,-246.89 467.1068,-252.7194 468.8111,-245.9301"/>
</g>
<!-- Business_Owners&#45;&gt;Blogs -->
<g id="edge53" class="edge">
<title>Business_Owners&#45;&gt;Blogs</title>
<path fill="none" stroke="#000000" d="M905.9406,-349.5726C905.9406,-344.6792 905.9406,-339.5904 905.9406,-334.6901"/>
<polygon fill="#000000" stroke="#000000" points="902.4407,-349.8313 905.9406,-359.8314 909.4407,-349.8314 902.4407,-349.8313"/>
<polygon fill="#000000" stroke="#000000" points="909.4407,-334.4132 905.9406,-324.4133 902.4407,-334.4133 909.4407,-334.4132"/>
</g>
<!-- End_Users&#45;&gt;Hosts -->
<g id="edge87" class="edge">
<title>End_Users&#45;&gt;Hosts</title>
<path fill="none" stroke="#000000" d="M910.4622,-574.0904C887.6655,-563.148 859.6666,-549.7085 837.8188,-539.2215"/>
<polygon fill="#000000" stroke="#000000" points="909.232,-577.3822 919.7618,-578.5542 912.2612,-571.0715 909.232,-577.3822"/>
<polygon fill="#000000" stroke="#000000" points="839.0903,-535.9496 828.5605,-534.7775 836.0611,-542.2602 839.0903,-535.9496"/>
</g>
<!-- End_Users&#45;&gt;News -->
<g id="edge33" class="edge">
<title>End_Users&#45;&gt;News</title>
<path fill="none" stroke="#000000" d="M1000.0812,-575.9447C1048.7851,-554.1838 1116.9406,-512.5562 1116.9406,-450 1116.9406,-450 1116.9406,-450 1116.9406,-234 1116.9406,-192.6022 1122.9172,-172.5514 1092.9406,-144 1064.0481,-116.4812 952.8063,-101.0421 888.5279,-94.246"/>
<polygon fill="#000000" stroke="#000000" points="998.4159,-572.8515 990.6258,-580.0323 1001.1936,-579.2768 998.4159,-572.8515"/>
<polygon fill="#000000" stroke="#000000" points="888.5569,-90.7306 878.2517,-93.1907 887.8418,-97.694 888.5569,-90.7306"/>
</g>
<!-- End_Users&#45;&gt;dApps -->
<g id="edge15" class="edge">
<title>End_Users&#45;&gt;dApps</title>
<path fill="none" stroke="#000000" d="M929.7822,-568.8876C910.4103,-548.4651 880.5058,-520.4311 848.9406,-504 794.5269,-475.6753 724.7027,-461.7954 678.7032,-455.2882"/>
<polygon fill="#000000" stroke="#000000" points="927.3012,-571.3594 936.6724,-576.302 932.4289,-566.5941 927.3012,-571.3594"/>
<polygon fill="#000000" stroke="#000000" points="679.0709,-451.8062 668.6922,-453.9353 678.1333,-458.7431 679.0709,-451.8062"/>
</g>
<!-- End_Users&#45;&gt;Business_Owners -->
<g id="edge117" class="edge">
<title>End_Users&#45;&gt;Business_Owners</title>
<path fill="none" stroke="#000000" d="M946.9005,-565.8623C940.9777,-533.4659 930.5986,-478.7071 919.9406,-432 918.0318,-423.6348 915.7674,-414.5922 913.6222,-406.3429"/>
<polygon fill="#000000" stroke="#000000" points="943.5015,-566.734 948.7322,-575.9476 950.3888,-565.4831 943.5015,-566.734"/>
<polygon fill="#000000" stroke="#000000" points="916.9415,-405.2039 911.0044,-396.4288 910.1734,-406.991 916.9415,-405.2039"/>
</g>
<!-- Markets&#45;&gt;Hosts -->
<g id="edge54" class="edge">
<title>Markets&#45;&gt;Hosts</title>
<path fill="none" stroke="#000000" d="M964.6409,-651.823C938.5934,-642.9045 906.9346,-629.7018 881.9406,-612 856.9741,-594.3177 834.4089,-567.4407 819.6583,-547.6597"/>
<polygon fill="#000000" stroke="#000000" points="963.7301,-655.2083 974.3235,-655.0318 965.9322,-648.5637 963.7301,-655.2083"/>
<polygon fill="#000000" stroke="#000000" points="822.3571,-545.4201 813.6408,-539.3971 816.6987,-549.5411 822.3571,-545.4201"/>
</g>
<!-- Markets&#45;&gt;Business_Owners -->
<g id="edge119" class="edge">
<title>Markets&#45;&gt;Business_Owners</title>
<path fill="none" stroke="#000000" d="M1031.3752,-639.7456C1036.0844,-631.2501 1040.5387,-621.5492 1042.9406,-612 1046.9844,-595.9231 1045.9204,-519.9263 1040.9406,-504 1029.5362,-467.5269 1021.3371,-458.6416 993.9406,-432 981.1703,-419.5816 965.054,-408.6674 950.1138,-399.9608"/>
<polygon fill="#000000" stroke="#000000" points="1028.32,-638.036 1026.2502,-648.4267 1034.348,-641.5947 1028.32,-638.036"/>
<polygon fill="#000000" stroke="#000000" points="951.4347,-396.6879 941.0038,-394.8313 948.0002,-402.7875 951.4347,-396.6879"/>
</g>
<!-- Markets&#45;&gt;End_Users -->
<g id="edge58" class="edge">
<title>Markets&#45;&gt;End_Users</title>
<path fill="none" stroke="#000000" d="M992.2309,-640.7888C986.2477,-633.8405 979.7557,-626.3014 973.7659,-619.3455"/>
<polygon fill="#000000" stroke="#000000" points="989.7547,-643.2769 998.9321,-648.5708 995.0591,-638.7093 989.7547,-643.2769"/>
<polygon fill="#000000" stroke="#000000" points="976.2032,-616.8121 967.0257,-611.5182 970.8988,-621.3798 976.2032,-616.8121"/>
</g>
<!-- Blogs&#45;&gt;News -->
<g id="edge29" class="edge">
<title>Blogs&#45;&gt;News</title>
<path fill="none" stroke="#000000" d="M897.7194,-278.2536C885.419,-236.7396 862.363,-158.9256 850.0992,-117.5352"/>
<polygon fill="#000000" stroke="#000000" points="894.3973,-279.3618 900.5941,-287.9555 901.1089,-277.3732 894.3973,-279.3618"/>
<polygon fill="#000000" stroke="#000000" points="853.4236,-116.4349 847.2269,-107.8413 846.7121,-118.4236 853.4236,-116.4349"/>
</g>
<!-- Blogs&#45;&gt;Programmers -->
<g id="edge50" class="edge">
<title>Blogs&#45;&gt;Programmers</title>
<path fill="none" stroke="#000000" d="M860.8169,-299.292C837.8114,-295.8849 809.3881,-291.6949 783.9406,-288 678.6197,-272.7076 556.7376,-255.3585 480.4861,-244.5465"/>
<polygon fill="#000000" stroke="#000000" points="860.5705,-302.7936 870.9756,-300.7978 861.5969,-295.8693 860.5705,-302.7936"/>
<polygon fill="#000000" stroke="#000000" points="480.8893,-241.0688 470.497,-243.1305 479.9068,-247.9995 480.8893,-241.0688"/>
</g>
<!-- Community&#45;&gt;Team -->
<g id="edge88" class="edge">
<title>Community&#45;&gt;Team</title>
<path fill="none" stroke="#000000" d="M754.8789,-874.5367C823.6257,-866.3917 930.4794,-851.3127 1020.9406,-828 1024.8492,-826.9927 1028.8822,-825.804 1032.8829,-824.5253"/>
<polygon fill="#000000" stroke="#000000" points="754.127,-871.1006 744.6003,-875.7364 754.9386,-878.0534 754.127,-871.1006"/>
<polygon fill="#000000" stroke="#000000" points="1034.321,-827.7337 1042.6718,-821.2134 1032.0775,-821.1029 1034.321,-827.7337"/>
</g>
<!-- Community&#45;&gt;Hosts -->
<g id="edge106" class="edge">
<title>Community&#45;&gt;Hosts</title>
<path fill="none" stroke="#000000" d="M706.7882,-856.1614C713.4034,-847.6487 720.1298,-837.8333 724.9406,-828 743.1334,-790.814 748.9406,-779.3978 748.9406,-738 748.9406,-738 748.9406,-738 748.9406,-666 748.9406,-622.6795 770.3266,-576.2901 785.9288,-548.2109"/>
<polygon fill="#000000" stroke="#000000" points="703.8581,-854.2181 700.285,-864.1923 709.2982,-858.6233 703.8581,-854.2181"/>
<polygon fill="#000000" stroke="#000000" points="789.0297,-549.839 790.959,-539.4212 782.9542,-546.362 789.0297,-549.839"/>
</g>
<!-- Community&#45;&gt;Documentation -->
<g id="edge102" class="edge">
<title>Community&#45;&gt;Documentation</title>
<path fill="none" stroke="#000000" d="M644.8179,-861.288C593.6034,-834.1744 504.2714,-786.881 452.4023,-759.4209"/>
<polygon fill="#000000" stroke="#000000" points="643.3171,-864.4536 653.7926,-866.0393 646.5923,-858.2671 643.3171,-864.4536"/>
<polygon fill="#000000" stroke="#000000" points="453.9565,-756.2835 443.481,-754.6979 450.6813,-762.47 453.9565,-756.2835"/>
</g>
<!-- Community&#45;&gt;Community_Matters -->
<g id="edge37" class="edge">
<title>Community&#45;&gt;Community_Matters</title>
<path fill="none" stroke="#000000" d="M611.5184,-876.5259C501.1707,-867.6673 296.3299,-849.0438 225.9406,-828 157.3846,-807.5043 125.676,-812.6323 81.9406,-756 56.9529,-723.6438 62.9406,-706.8816 62.9406,-666 62.9406,-666 62.9406,-666 62.9406,-234 62.9406,-191.9897 79.9514,-145.8592 92.5745,-117.4108"/>
<polygon fill="#000000" stroke="#000000" points="611.3234,-880.0213 621.5698,-877.3268 611.8794,-873.0435 611.3234,-880.0213"/>
<polygon fill="#000000" stroke="#000000" points="95.8466,-118.6713 96.8214,-108.1214 89.4804,-115.7607 95.8466,-118.6713"/>
</g>
<!-- Community&#45;&gt;Now_Building -->
<g id="edge43" class="edge">
<title>Community&#45;&gt;Now_Building</title>
<path fill="none" stroke="#000000" d="M757.1891,-877.3214C872.1208,-869.3789 1089.3078,-851.7755 1162.9406,-828 1240.5826,-802.9299 1322.9406,-819.5892 1322.9406,-738 1322.9406,-738 1322.9406,-738 1322.9406,-666 1322.9406,-569.5033 1344.9406,-546.4967 1344.9406,-450 1344.9406,-450 1344.9406,-450 1344.9406,-162 1344.9406,-59.2656 584.1916,-27.8776 325.1342,-20.1673"/>
<polygon fill="#000000" stroke="#000000" points="756.8066,-873.8393 747.069,-878.014 757.2846,-880.8229 756.8066,-873.8393"/>
<polygon fill="#000000" stroke="#000000" points="325.1213,-16.6655 315.023,-19.8709 324.9161,-23.6625 325.1213,-16.6655"/>
</g>
<!-- Community&#45;&gt;News -->
<g id="edge96" class="edge">
<title>Community&#45;&gt;News</title>
<path fill="none" stroke="#000000" d="M680.4901,-853.6311C677.2642,-824.6241 672.9406,-778.2409 672.9406,-738 672.9406,-738 672.9406,-738 672.9406,-666 672.9406,-569.3591 697.9406,-546.6409 697.9406,-450 697.9406,-450 697.9406,-450 697.9406,-234 697.9406,-173.2285 762.8596,-129.1464 805.5197,-106.7393"/>
<polygon fill="#000000" stroke="#000000" points="677.0451,-854.3123 681.6614,-863.8486 683.9996,-853.515 677.0451,-854.3123"/>
<polygon fill="#000000" stroke="#000000" points="807.1928,-109.8151 814.5164,-102.159 804.0168,-103.577 807.1928,-109.8151"/>
</g>
<!-- Community&#45;&gt;dApps -->
<g id="edge104" class="edge">
<title>Community&#45;&gt;dApps</title>
<path fill="none" stroke="#000000" d="M669.1995,-855.1077C665.2036,-846.6635 661.3269,-837.1517 658.9406,-828 625.7375,-700.6658 626.7086,-541.6655 628.7265,-478.128"/>
<polygon fill="#000000" stroke="#000000" points="666.0943,-856.7239 673.6886,-864.1116 672.3589,-853.6006 666.0943,-856.7239"/>
<polygon fill="#000000" stroke="#000000" points="632.226,-478.2011 629.0808,-468.0839 625.2304,-477.9543 632.226,-478.2011"/>
</g>
<!-- Community&#45;&gt;Programmers -->
<g id="edge98" class="edge">
<title>Community&#45;&gt;Programmers</title>
<path fill="none" stroke="#000000" d="M663.2328,-856.0656C619.9625,-799.1728 523.9406,-657.6402 523.9406,-522 523.9406,-522 523.9406,-522 523.9406,-378 523.9406,-336.6022 525.1579,-320.8309 499.9406,-288 488.7278,-273.4018 472.3623,-262.0762 456.4179,-253.6533"/>
<polygon fill="#000000" stroke="#000000" points="660.5832,-858.3613 669.4595,-864.1459 666.1279,-854.0885 660.5832,-858.3613"/>
<polygon fill="#000000" stroke="#000000" points="457.6329,-250.3485 447.1208,-249.0266 454.5142,-256.6154 457.6329,-250.3485"/>
</g>
<!-- Community&#45;&gt;Business_Owners -->
<g id="edge100" class="edge">
<title>Community&#45;&gt;Business_Owners</title>
<path fill="none" stroke="#000000" d="M757.1501,-877.3647C862.8426,-869.9097 1052.4629,-853.4602 1115.9406,-828 1165.7714,-808.0134 1184.021,-801.2352 1212.9406,-756 1302.8587,-615.3529 1158.6136,-529.261 1022.9406,-432 1003.7044,-418.21 980.3851,-406.5952 959.6429,-397.713"/>
<polygon fill="#000000" stroke="#000000" points="756.6113,-873.8936 746.8785,-878.0795 757.0973,-880.8767 756.6113,-873.8936"/>
<polygon fill="#000000" stroke="#000000" points="960.8948,-394.443 950.3179,-393.8262 958.2016,-400.9042 960.8948,-394.443"/>
</g>
<!-- Community&#45;&gt;Markets -->
<g id="edge92" class="edge">
<title>Community&#45;&gt;Markets</title>
<path fill="none" stroke="#000000" d="M750.8984,-871.6149C819.9284,-857.4208 925.9665,-825.3135 987.9406,-756 1003.1241,-739.0184 1009.4761,-713.6782 1012.1153,-694.2089"/>
<polygon fill="#000000" stroke="#000000" points="750.1189,-868.2013 740.9918,-873.5815 751.4819,-875.0673 750.1189,-868.2013"/>
<polygon fill="#000000" stroke="#000000" points="1015.6142,-694.4106 1013.232,-684.087 1008.6564,-693.6428 1015.6142,-694.4106"/>
</g>
<!-- Community&#45;&gt;Blogs -->
<g id="edge94" class="edge">
<title>Community&#45;&gt;Blogs</title>
<path fill="none" stroke="#000000" d="M692.3056,-854.2541C700.2345,-825.466 710.9406,-779.0031 710.9406,-738 710.9406,-738 710.9406,-738 710.9406,-666 710.9406,-523.7278 712.5263,-468.1711 804.9406,-360 820.8848,-341.3373 844.9381,-328.1167 865.5721,-319.4293"/>
<polygon fill="#000000" stroke="#000000" points="688.8979,-853.442 689.535,-864.0177 695.632,-855.353 688.8979,-853.442"/>
<polygon fill="#000000" stroke="#000000" points="867.0812,-322.5956 875.0725,-315.6393 864.4875,-316.0938 867.0812,-322.5956"/>
</g>
<!-- Investors&#45;&gt;Markets -->
<g id="edge57" class="edge">
<title>Investors&#45;&gt;Markets</title>
<path fill="none" stroke="#000000" d="M1093.058,-716.4111C1078.5419,-707.1619 1061.6401,-696.3926 1047.1941,-687.1881"/>
<polygon fill="#000000" stroke="#000000" points="1091.5479,-719.599 1101.8622,-722.0209 1095.3095,-713.6955 1091.5479,-719.599"/>
<polygon fill="#000000" stroke="#000000" points="1048.8744,-684.1086 1038.5601,-681.6867 1045.1129,-690.0121 1048.8744,-684.1086"/>
</g>
</g>
</svg>
