<?xml version="1.0" encoding="UTF-8" standalone="no"?>
<!DOCTYPE svg PUBLIC "-//W3C//DTD SVG 1.1//EN"
 "http://www.w3.org/Graphics/SVG/1.1/DTD/svg11.dtd">
<!-- Generated by graphviz version 2.40.1 (20161225.0304)
 -->
<!-- Title: Software Flow Pages: 1 -->
<svg width="1268pt" height="1052pt"
 viewBox="0.00 0.00 1268.00 1052.00" xmlns="http://www.w3.org/2000/svg" xmlns:xlink="http://www.w3.org/1999/xlink">
<g id="graph0" class="graph" transform="scale(1 1) rotate(0) translate(4 1048)">
<title>Software Flow</title>
<polygon fill="#ffffff" stroke="transparent" points="-4,4 -4,-1048 1264,-1048 1264,4 -4,4"/>
<!-- Source_Code -->
<g id="node1" class="node">
<title>Source_Code</title>
<g id="a_node1"><a xlink:href="https://github.com/holochain/holochain-rust" xlink:title="Source_Code">
<ellipse fill="none" stroke="#000000" cx="366" cy="-1026" rx="70.6878" ry="18"/>
<text text-anchor="middle" x="366" y="-1022.3" font-family="Times,serif" font-size="14.00" fill="#000000">Source_Code</text>
</a>
</g>
</g>
<!-- Core_Developers -->
<g id="node3" class="node">
<title>Core_Developers</title>
<g id="a_node3"><a xlink:href="https://github.com/holochain/holochain-rust/graphs/contributors" xlink:title="Core_Developers">
<ellipse fill="none" stroke="#000000" cx="366" cy="-954" rx="89.0842" ry="18"/>
<text text-anchor="middle" x="366" y="-950.3" font-family="Times,serif" font-size="14.00" fill="#000000">Core_Developers</text>
</a>
</g>
</g>
<!-- Source_Code&#45;&gt;Core_Developers -->
<g id="edge2" class="edge">
<title>Source_Code&#45;&gt;Core_Developers</title>
<path fill="none" stroke="#000000" d="M366,-997.5726C366,-992.6792 366,-987.5904 366,-982.6901"/>
<polygon fill="#000000" stroke="#000000" points="362.5001,-997.8313 366,-1007.8314 369.5001,-997.8314 362.5001,-997.8313"/>
<polygon fill="#000000" stroke="#000000" points="369.5001,-982.4132 366,-972.4133 362.5001,-982.4133 369.5001,-982.4132"/>
</g>
<!-- Software_Releases -->
<g id="node4" class="node">
<title>Software_Releases</title>
<g id="a_node4"><a xlink:href="https://github.com/holochain/holochain-rust/releases" xlink:title="Software_Releases">
<ellipse fill="none" stroke="#000000" cx="366" cy="-810" rx="98.2828" ry="18"/>
<text text-anchor="middle" x="366" y="-806.3" font-family="Times,serif" font-size="14.00" fill="#000000">Software_Releases</text>
</a>
</g>
</g>
<!-- Source_Code&#45;&gt;Software_Releases -->
<g id="edge1" class="edge">
<title>Source_Code&#45;&gt;Software_Releases</title>
<path fill="none" stroke="#000000" d="M412.3542,-1012.2968C431.8892,-1003.9729 452.6869,-991.1506 464,-972 472.138,-958.2242 469.1926,-951.134 464,-936 450.1226,-895.5537 417.3714,-858.0896 393.5398,-834.7065"/>
<polygon fill="#000000" stroke="#000000" points="395.7919,-832.017 386.151,-827.6234 390.9478,-837.0702 395.7919,-832.017"/>
</g>
<!-- Programmers -->
<g id="node16" class="node">
<title>Programmers</title>
<ellipse fill="none" stroke="#000000" cx="227" cy="-378" rx="74.9875" ry="18"/>
<text text-anchor="middle" x="227" y="-374.3" font-family="Times,serif" font-size="14.00" fill="#000000">Programmers</text>
</g>
<!-- Source_Code&#45;&gt;Programmers -->
<g id="edge109" class="edge">
<title>Source_Code&#45;&gt;Programmers</title>
<path fill="none" stroke="#000000" d="M298.0427,-1013.6669C192.2039,-992.4987 0,-945.3376 0,-882 0,-882 0,-882 0,-522 0,-446.5343 90.5653,-408.9515 157.287,-391.5032"/>
<polygon fill="#000000" stroke="#000000" points="297.5176,-1017.1307 308.0062,-1015.634 298.8735,-1010.2633 297.5176,-1017.1307"/>
<polygon fill="#000000" stroke="#000000" points="158.5127,-394.8041 167.3584,-388.9729 156.807,-388.0151 158.5127,-394.8041"/>
</g>
<!-- Team -->
<g id="node2" class="node">
<title>Team</title>
<g id="a_node2"><a xlink:href="https://holo.host/team/" xlink:title="Team">
<ellipse fill="none" stroke="#000000" cx="697" cy="-810" rx="35.9954" ry="18"/>
<text text-anchor="middle" x="697" y="-806.3" font-family="Times,serif" font-size="14.00" fill="#000000">Team</text>
</a>
</g>
</g>
<!-- Documentation -->
<g id="node6" class="node">
<title>Documentation</title>
<g id="a_node6"><a xlink:href="https://developer.holochain.org/" xlink:title="Documentation">
<ellipse fill="none" stroke="#000000" cx="387" cy="-738" rx="81.4863" ry="18"/>
<text text-anchor="middle" x="387" y="-734.3" font-family="Times,serif" font-size="14.00" fill="#000000">Documentation</text>
</a>
</g>
</g>
<!-- Team&#45;&gt;Documentation -->
<g id="edge55" class="edge">
<title>Team&#45;&gt;Documentation</title>
<path fill="none" stroke="#000000" d="M654.6621,-800.1667C602.7004,-788.0982 514.0013,-767.4971 453.0468,-753.3399"/>
<polygon fill="#000000" stroke="#000000" points="653.8779,-803.5776 664.4105,-802.4308 655.4616,-796.7591 653.8779,-803.5776"/>
<polygon fill="#000000" stroke="#000000" points="453.6684,-749.8912 443.1359,-751.038 452.0847,-756.7097 453.6684,-749.8912"/>
</g>
<!-- Press_Releases -->
<g id="node17" class="node">
<title>Press_Releases</title>
<ellipse fill="none" stroke="#000000" cx="568" cy="-738" rx="81.7856" ry="18"/>
<text text-anchor="middle" x="568" y="-734.3" font-family="Times,serif" font-size="14.00" fill="#000000">Press_Releases</text>
</g>
<!-- Team&#45;&gt;Press_Releases -->
<g id="edge54" class="edge">
<title>Team&#45;&gt;Press_Releases</title>
<path fill="none" stroke="#000000" d="M673.0384,-796.6261C654.5494,-786.3067 628.5869,-771.8159 607.1,-759.8233"/>
<polygon fill="#000000" stroke="#000000" points="608.638,-756.6735 598.2002,-754.8559 605.2264,-762.7858 608.638,-756.6735"/>
</g>
<!-- News -->
<g id="node18" class="node">
<title>News</title>
<ellipse fill="none" stroke="#000000" cx="623" cy="-234" rx="36.2938" ry="18"/>
<text text-anchor="middle" x="623" y="-230.3" font-family="Times,serif" font-size="14.00" fill="#000000">News</text>
</g>
<!-- Team&#45;&gt;News -->
<g id="edge57" class="edge">
<title>Team&#45;&gt;News</title>
<path fill="none" stroke="#000000" d="M687.3388,-782.4301C667.2864,-722.6641 623,-576.3648 623,-450 623,-450 623,-450 623,-378 623,-337.876 623,-291.4631 623,-262.4177"/>
<polygon fill="#000000" stroke="#000000" points="684.0302,-783.5718 690.5624,-791.9133 690.6577,-781.3189 684.0302,-783.5718"/>
<polygon fill="#000000" stroke="#000000" points="626.5001,-262.1853 623,-252.1854 619.5001,-262.1854 626.5001,-262.1853"/>
</g>
<!-- Markets -->
<g id="node19" class="node">
<title>Markets</title>
<ellipse fill="none" stroke="#000000" cx="798" cy="-666" rx="49.2915" ry="18"/>
<text text-anchor="middle" x="798" y="-662.3" font-family="Times,serif" font-size="14.00" fill="#000000">Markets</text>
</g>
<!-- Team&#45;&gt;Markets -->
<g id="edge59" class="edge">
<title>Team&#45;&gt;Markets</title>
<path fill="none" stroke="#000000" d="M705.0425,-782.1188C711.2986,-763.4096 721.2416,-738.8366 735,-720 743.599,-708.2271 755.2449,-697.3233 766.1849,-688.4412"/>
<polygon fill="#000000" stroke="#000000" points="701.6475,-781.2452 701.9453,-791.8359 708.3169,-783.3711 701.6475,-781.2452"/>
<polygon fill="#000000" stroke="#000000" points="768.6249,-690.9765 774.351,-682.0622 764.3157,-685.46 768.6249,-690.9765"/>
</g>
<!-- Blogs -->
<g id="node20" class="node">
<title>Blogs</title>
<ellipse fill="none" stroke="#000000" cx="988" cy="-306" rx="36.2938" ry="18"/>
<text text-anchor="middle" x="988" y="-302.3" font-family="Times,serif" font-size="14.00" fill="#000000">Blogs</text>
</g>
<!-- Team&#45;&gt;Blogs -->
<g id="edge39" class="edge">
<title>Team&#45;&gt;Blogs</title>
<path fill="none" stroke="#000000" d="M738.8074,-799.091C820.628,-776.5068 994,-722.0405 994,-666 994,-666 994,-666 994,-450 994,-409.8412 991.6417,-363.4372 989.8821,-334.4031"/>
<polygon fill="#000000" stroke="#000000" points="737.7927,-795.7398 729.0664,-801.7483 739.635,-802.493 737.7927,-795.7398"/>
<polygon fill="#000000" stroke="#000000" points="993.3599,-333.9376 989.2432,-324.1753 986.3736,-334.3741 993.3599,-333.9376"/>
</g>
<!-- Community -->
<g id="node21" class="node">
<title>Community</title>
<ellipse fill="none" stroke="#000000" cx="994" cy="-882" rx="64.189" ry="18"/>
<text text-anchor="middle" x="994" y="-878.3" font-family="Times,serif" font-size="14.00" fill="#000000">Community</text>
</g>
<!-- Investors -->
<g id="node22" class="node">
<title>Investors</title>
<ellipse fill="none" stroke="#000000" cx="798" cy="-738" rx="53.8905" ry="18"/>
<text text-anchor="middle" x="798" y="-734.3" font-family="Times,serif" font-size="14.00" fill="#000000">Investors</text>
</g>
<!-- Team&#45;&gt;Investors -->
<g id="edge61" class="edge">
<title>Team&#45;&gt;Investors</title>
<path fill="none" stroke="#000000" d="M726.1636,-789.2101C738.8973,-780.1326 753.8487,-769.4742 766.8045,-760.2384"/>
<polygon fill="#000000" stroke="#000000" points="724.0384,-786.4268 717.9273,-795.0816 728.1017,-792.1267 724.0384,-786.4268"/>
<polygon fill="#000000" stroke="#000000" points="768.8757,-763.0602 774.9868,-754.4055 764.8123,-757.3603 768.8757,-763.0602"/>
</g>
<!-- Core_Developers&#45;&gt;Team -->
<g id="edge53" class="edge">
<title>Core_Developers&#45;&gt;Team</title>
<path fill="none" stroke="#000000" d="M418.6541,-934.7189C445.0564,-924.7911 477.4157,-912.2283 506,-900 561.3032,-876.3414 624.1848,-846.0344 662.207,-827.3228"/>
<polygon fill="#000000" stroke="#000000" points="417.3532,-931.4686 409.2145,-938.2518 419.8069,-938.0245 417.3532,-931.4686"/>
<polygon fill="#000000" stroke="#000000" points="663.8996,-830.3905 671.3183,-822.8265 660.8019,-824.1132 663.8996,-830.3905"/>
</g>
<!-- Core_Developers&#45;&gt;Software_Releases -->
<g id="edge71" class="edge">
<title>Core_Developers&#45;&gt;Software_Releases</title>
<path fill="none" stroke="#000000" d="M366,-935.7623C366,-911.201 366,-867.2474 366,-838.3541"/>
<polygon fill="#000000" stroke="#000000" points="369.5001,-838.0896 366,-828.0896 362.5001,-838.0897 369.5001,-838.0896"/>
</g>
<!-- Core_Developers&#45;&gt;Documentation -->
<g id="edge65" class="edge">
<title>Core_Developers&#45;&gt;Documentation</title>
<path fill="none" stroke="#000000" d="M396.1345,-929.7171C422.1072,-906.6854 457.7556,-869.5023 473,-828 478.5167,-812.9811 480.7417,-806.0024 473,-792 465.1628,-777.8248 451.8741,-766.8691 438.0564,-758.6476"/>
<polygon fill="#000000" stroke="#000000" points="393.686,-927.2074 388.4179,-936.3996 398.2686,-932.499 393.686,-927.2074"/>
<polygon fill="#000000" stroke="#000000" points="439.3997,-755.3917 428.9517,-753.6335 436.0228,-761.5234 439.3997,-755.3917"/>
</g>
<!-- API_Docs -->
<g id="node7" class="node">
<title>API_Docs</title>
<g id="a_node7"><a xlink:href="https://developer.holochain.org/api/latest/hdk/" xlink:title="API_Docs">
<ellipse fill="none" stroke="#000000" cx="158" cy="-738" rx="53.8905" ry="18"/>
<text text-anchor="middle" x="158" y="-734.3" font-family="Times,serif" font-size="14.00" fill="#000000">API_Docs</text>
</a>
</g>
</g>
<!-- Core_Developers&#45;&gt;API_Docs -->
<g id="edge63" class="edge">
<title>Core_Developers&#45;&gt;API_Docs</title>
<path fill="none" stroke="#000000" d="M293.0873,-938.1156C269.3453,-929.9759 244.3965,-917.8655 226,-900 188.1239,-863.2172 170.3795,-802.1132 162.8589,-766.3936"/>
<polygon fill="#000000" stroke="#000000" points="292.2199,-941.5135 302.8116,-941.2586 294.3727,-934.8527 292.2199,-941.5135"/>
<polygon fill="#000000" stroke="#000000" points="166.2128,-765.3109 160.8421,-756.1782 159.3453,-766.6668 166.2128,-765.3109"/>
</g>
<!-- Guide_Book -->
<g id="node8" class="node">
<title>Guide_Book</title>
<g id="a_node8"><a xlink:href="https://developer.holochain.org/guide/latest/welcome.html" xlink:title="Guide_Book">
<ellipse fill="none" stroke="#000000" cx="252" cy="-666" rx="65.7887" ry="18"/>
<text text-anchor="middle" x="252" y="-662.3" font-family="Times,serif" font-size="14.00" fill="#000000">Guide_Book</text>
</a>
</g>
</g>
<!-- Core_Developers&#45;&gt;Guide_Book -->
<g id="edge72" class="edge">
<title>Core_Developers&#45;&gt;Guide_Book</title>
<path fill="none" stroke="#000000" d="M336.2901,-929.5559C310.6035,-906.4156 275.1369,-869.1635 259,-828 241.6629,-783.7749 244.1395,-727.4682 247.8423,-694.2206"/>
<polygon fill="#000000" stroke="#000000" points="334.0981,-932.2894 343.9155,-936.2731 338.7252,-927.0367 334.0981,-932.2894"/>
<polygon fill="#000000" stroke="#000000" points="251.3179,-694.6331 249.0641,-684.2808 244.3702,-693.7791 251.3179,-694.6331"/>
</g>
<!-- Dev_Pulse -->
<g id="node9" class="node">
<title>Dev_Pulse</title>
<g id="a_node9"><a xlink:href="https://medium.com/holochain" xlink:title="Dev_Pulse">
<ellipse fill="none" stroke="#000000" cx="509" cy="-162" rx="58.4896" ry="18"/>
<text text-anchor="middle" x="509" y="-158.3" font-family="Times,serif" font-size="14.00" fill="#000000">Dev_Pulse</text>
</a>
</g>
</g>
<!-- Core_Developers&#45;&gt;Dev_Pulse -->
<g id="edge67" class="edge">
<title>Core_Developers&#45;&gt;Dev_Pulse</title>
<path fill="none" stroke="#000000" d="M282.2827,-942.0053C240.6898,-933.8799 190.5715,-920.7312 149,-900 92.1633,-871.6563 38,-873.512 38,-810 38,-810 38,-810 38,-306 38,-250.6743 74.7673,-241.2404 124,-216 177.9658,-188.3331 345.8765,-172.8999 441.1706,-166.1581"/>
<polygon fill="#000000" stroke="#000000" points="281.6368,-945.4451 292.113,-943.8639 282.9373,-938.5669 281.6368,-945.4451"/>
<polygon fill="#000000" stroke="#000000" points="441.5556,-169.6399 451.2891,-165.4556 441.0707,-162.6567 441.5556,-169.6399"/>
</g>
<!-- Core_Developers&#45;&gt;Programmers -->
<g id="edge69" class="edge">
<title>Core_Developers&#45;&gt;Programmers</title>
<path fill="none" stroke="#000000" d="M286.5751,-940.1232C256.1684,-932.0309 222.4649,-919.4322 196,-900 132.9889,-853.7333 118.5366,-830.5456 95,-756 52.8242,-622.4199 158.8463,-464.91 205.8807,-403.9211"/>
<polygon fill="#000000" stroke="#000000" points="285.7645,-943.5284 296.3182,-942.5952 287.486,-936.7433 285.7645,-943.5284"/>
<polygon fill="#000000" stroke="#000000" points="208.6977,-406.0006 212.1044,-395.9684 203.1851,-401.6865 208.6977,-406.0006"/>
</g>
<!-- Core_Developers&#45;&gt;Blogs -->
<g id="edge41" class="edge">
<title>Core_Developers&#45;&gt;Blogs</title>
<path fill="none" stroke="#000000" d="M464.5615,-951.5435C645.6819,-946.2827 1017.5261,-931.7314 1067,-900 1159.3958,-840.7395 1146,-775.767 1146,-666 1146,-666 1146,-666 1146,-450 1146,-385.4176 1072.9981,-342.0994 1026.2379,-320.977"/>
<polygon fill="#000000" stroke="#000000" points="464.3925,-948.0468 454.497,-951.832 464.5932,-955.0439 464.3925,-948.0468"/>
<polygon fill="#000000" stroke="#000000" points="1027.5442,-317.7282 1016.9796,-316.9277 1024.7392,-324.1416 1027.5442,-317.7282"/>
</g>
<!-- Core_Developers&#45;&gt;Community -->
<g id="edge91" class="edge">
<title>Core_Developers&#45;&gt;Community</title>
<path fill="none" stroke="#000000" d="M453.9316,-943.9187C579.8947,-929.477 809.1623,-903.1916 924.2152,-890.0008"/>
<polygon fill="#000000" stroke="#000000" points="453.1712,-940.4828 443.635,-945.0992 453.9686,-947.4373 453.1712,-940.4828"/>
<polygon fill="#000000" stroke="#000000" points="924.7781,-893.4593 934.3143,-888.8429 923.9807,-886.5048 924.7781,-893.4593"/>
</g>
<!-- Hosts -->
<g id="node5" class="node">
<title>Hosts</title>
<g id="a_node5"><a xlink:href="https://holo.host/host/" xlink:title="Hosts">
<ellipse fill="none" stroke="#000000" cx="842" cy="-522" rx="37.8943" ry="18"/>
<text text-anchor="middle" x="842" y="-518.3" font-family="Times,serif" font-size="14.00" fill="#000000">Hosts</text>
</a>
</g>
</g>
<!-- Software_Releases&#45;&gt;Hosts -->
<g id="edge78" class="edge">
<title>Software_Releases&#45;&gt;Hosts</title>
<path fill="none" stroke="#000000" d="M278,-738C286.7081,-671.5277 173.8156,-751.0987 485,-684 619.039,-655.098 673.472,-691.7701 785,-612 806.8479,-596.3733 822.2519,-569.5105 831.4917,-549.1901"/>
<polygon fill="#000000" stroke="#000000" points="834.7873,-550.3865 835.5337,-539.818 828.3596,-547.6144 834.7873,-550.3865"/>
</g>
<!-- Software_Releases&#45;&gt;Documentation -->
<g id="edge80" class="edge">
<title>Software_Releases&#45;&gt;Documentation</title>
<path fill="none" stroke="#000000" d="M371.2992,-791.8314C373.5698,-784.0463 376.2746,-774.7729 378.794,-766.1347"/>
<polygon fill="#000000" stroke="#000000" points="382.1894,-766.9933 381.6295,-756.4133 375.4694,-765.0332 382.1894,-766.9933"/>
</g>
<!-- Software_Releases&#45;&gt;API_Docs -->
<g id="edge74" class="edge">
<title>Software_Releases&#45;&gt;API_Docs</title>
<path fill="none" stroke="#000000" d="M319.8381,-794.0209C285.8514,-782.2562 239.7814,-766.309 205.4863,-754.4376"/>
<polygon fill="#000000" stroke="#000000" points="206.2921,-751.0128 195.6974,-751.0491 204.0023,-757.6277 206.2921,-751.0128"/>
</g>
<!-- Libraries -->
<g id="node12" class="node">
<title>Libraries</title>
<ellipse fill="none" stroke="#000000" cx="390" cy="-306" rx="52.7911" ry="18"/>
<text text-anchor="middle" x="390" y="-302.3" font-family="Times,serif" font-size="14.00" fill="#000000">Libraries</text>
</g>
<!-- Software_Releases&#45;&gt;Libraries -->
<g id="edge76" class="edge">
<title>Software_Releases&#45;&gt;Libraries</title>
<path fill="none" stroke="#000000" d="M390,-378C386.4974,-363.8288 386.1904,-347.6037 386.8924,-334.1477"/>
<polygon fill="#000000" stroke="#000000" points="390.3926,-334.2702 387.6299,-324.0419 383.4112,-333.7606 390.3926,-334.2702"/>
</g>
<!-- dApps -->
<g id="node13" class="node">
<title>dApps</title>
<ellipse fill="none" stroke="#000000" cx="729" cy="-450" rx="39.7935" ry="18"/>
<text text-anchor="middle" x="729" y="-446.3" font-family="Times,serif" font-size="14.00" fill="#000000">dApps</text>
</g>
<!-- Software_Releases&#45;&gt;dApps -->
<g id="edge77" class="edge">
<title>Software_Releases&#45;&gt;dApps</title>
<path fill="none" stroke="#000000" d="M278,-738C282.9938,-703.962 318.5654,-725.2421 398,-684 520.085,-620.6141 648.7068,-517.6035 702.7088,-472.4315"/>
<polygon fill="#000000" stroke="#000000" points="705.022,-475.0593 710.4244,-465.9453 700.5176,-469.7011 705.022,-475.0593"/>
</g>
<!-- Software_Releases&#45;&gt;Programmers -->
<g id="edge81" class="edge">
<title>Software_Releases&#45;&gt;Programmers</title>
<path fill="none" stroke="#000000" d="M321.6109,-793.8625C298.0232,-782.1585 274.5179,-763.8228 278,-738"/>
<path fill="none" stroke="#000000" d="M278,-738C283.8822,-694.3791 355.995,-708.8659 346,-666"/>
<path fill="none" stroke="#000000" d="M346,-666C336.9169,-627.0449 306.1359,-631.4189 292,-594"/>
</g>
<!-- Software_Releases&#45;&gt;Press_Releases -->
<g id="edge79" class="edge">
<title>Software_Releases&#45;&gt;Press_Releases</title>
<path fill="none" stroke="#000000" d="M411.0813,-793.9314C441.8512,-782.9639 482.7321,-768.3925 515.0529,-756.8722"/>
<polygon fill="#000000" stroke="#000000" points="516.5435,-760.0567 524.7879,-753.4023 514.1933,-753.463 516.5435,-760.0567"/>
</g>
<!-- Software_Releases&#45;&gt;News -->
<g id="edge75" class="edge">
<title>Software_Releases&#45;&gt;News</title>
<path fill="none" stroke="#000000" d="M278,-738C279.5545,-726.4721 287.6612,-726.9352 297,-720 322.8906,-700.7731 342.4703,-711.0686 360,-684 434.2804,-569.2995 422.789,-510.6599 390,-378"/>
<path fill="none" stroke="#000000" d="M390,-378C376.7135,-343.9592 343.1378,-357.2589 328,-324 321.3719,-309.4374 317.7554,-300.2901 328,-288 359.0837,-250.7099 501.4142,-239.0933 576.4261,-235.534"/>
<polygon fill="#000000" stroke="#000000" points="576.7109,-239.0249 586.5453,-235.0834 576.3994,-232.0318 576.7109,-239.0249"/>
</g>
<!-- Hosts&#45;&gt;dApps -->
<g id="edge82" class="edge">
<title>Hosts&#45;&gt;dApps</title>
<path fill="none" stroke="#000000" d="M810.4653,-501.9071C795.0171,-492.064 776.452,-480.2349 760.9487,-470.3567"/>
<polygon fill="#000000" stroke="#000000" points="808.8184,-505.0078 819.1328,-507.4297 812.58,-499.1044 808.8184,-505.0078"/>
<polygon fill="#000000" stroke="#000000" points="762.5354,-467.2176 752.2211,-464.7957 758.7739,-473.1211 762.5354,-467.2176"/>
</g>
<!-- Business_Owners -->
<g id="node14" class="node">
<title>Business_Owners</title>
<ellipse fill="none" stroke="#000000" cx="771" cy="-162" rx="92.0841" ry="18"/>
<text text-anchor="middle" x="771" y="-158.3" font-family="Times,serif" font-size="14.00" fill="#000000">Business_Owners</text>
</g>
<!-- Hosts&#45;&gt;Business_Owners -->
<g id="edge84" class="edge">
<title>Hosts&#45;&gt;Business_Owners</title>
<path fill="none" stroke="#000000" d="M844.002,-493.9016C846.9115,-438.6051 848.3999,-312.6388 811,-216 807.1471,-206.0444 800.9384,-196.3069 794.5501,-187.9035"/>
<polygon fill="#000000" stroke="#000000" points="840.5019,-493.8017 843.4122,-503.989 847.49,-494.2104 840.5019,-493.8017"/>
<polygon fill="#000000" stroke="#000000" points="797.1772,-185.5852 788.1826,-179.9862 791.7224,-189.9722 797.1772,-185.5852"/>
</g>
<!-- End_Users -->
<g id="node15" class="node">
<title>End_Users</title>
<ellipse fill="none" stroke="#000000" cx="715" cy="-594" rx="61.1893" ry="18"/>
<text text-anchor="middle" x="715" y="-590.3" font-family="Times,serif" font-size="14.00" fill="#000000">End_Users</text>
</g>
<!-- Documentation&#45;&gt;Dev_Pulse -->
<g id="edge8" class="edge">
<title>Documentation&#45;&gt;Dev_Pulse</title>
<path fill="none" stroke="#000000" d="M415.9123,-721.0956C451.9893,-697.5771 509,-651.3406 509,-594 509,-594 509,-594 509,-306 509,-265.876 509,-219.4631 509,-190.4177"/>
<polygon fill="#000000" stroke="#000000" points="512.5001,-190.1853 509,-180.1854 505.5001,-190.1854 512.5001,-190.1853"/>
</g>
<!-- Documentation&#45;&gt;Programmers -->
<g id="edge9" class="edge">
<title>Documentation&#45;&gt;Programmers</title>
<path fill="none" stroke="#000000" d="M372.8173,-720.0086C362.9167,-706.151 350.671,-686.0326 346,-666"/>
</g>
<!-- API_Docs&#45;&gt;Dev_Pulse -->
<g id="edge10" class="edge">
<title>API_Docs&#45;&gt;Dev_Pulse</title>
<path fill="none" stroke="#000000" d="M158.4453,-719.8622C159.653,-700.7557 163.7263,-670.3914 177,-648 195.8056,-616.277 237.2106,-630.7725 240,-594"/>
<path fill="none" stroke="#000000" d="M240,-594C242.729,-510.45 119,-533.5946 119,-450 119,-450 119,-450 119,-306 119,-262.0449 124.9661,-242.5457 160,-216 203.0544,-183.377 352.1877,-170.0798 440.97,-164.96"/>
<polygon fill="#000000" stroke="#000000" points="441.1665,-168.4545 450.9564,-164.4038 440.7772,-161.4654 441.1665,-168.4545"/>
</g>
<!-- API_Docs&#45;&gt;Programmers -->
<g id="edge11" class="edge">
<title>API_Docs&#45;&gt;Programmers</title>
<path fill="none" stroke="#000000" d="M240,-594C242.4204,-562.0917 245.5169,-553.5208 240,-522"/>
<path fill="none" stroke="#000000" d="M240,-522C233.0543,-482.316 229.708,-435.7915 228.1779,-406.6014"/>
<polygon fill="#000000" stroke="#000000" points="231.6592,-406.131 227.6767,-396.3132 224.6675,-406.4717 231.6592,-406.131"/>
</g>
<!-- Guide_Book&#45;&gt;Business_Owners -->
<g id="edge13" class="edge">
<title>Guide_Book&#45;&gt;Business_Owners</title>
<path fill="none" stroke="#000000" d="M273.9856,-648.8585C285.0705,-639.1455 297.8546,-626.1277 306,-612 326.6774,-576.1361 330,-563.3978 330,-522 330,-522 330,-522 330,-450 330,-409.1184 323.5935,-398.8936 311,-360 305.6064,-343.3424 298.6347,-341.1277 295,-324 291.6785,-308.3486 285.464,-300.8477 295,-288 340.7615,-226.3465 556.6757,-189.1773 681.418,-172.4882"/>
<polygon fill="#000000" stroke="#000000" points="681.891,-175.9562 691.3468,-171.1773 680.9746,-169.0165 681.891,-175.9562"/>
</g>
<!-- Guide_Book&#45;&gt;Programmers -->
<g id="edge12" class="edge">
<title>Guide_Book&#45;&gt;Programmers</title>
<path fill="none" stroke="#000000" d="M271.6197,-648.6513C285.1368,-634.4854 299.4285,-613.6639 292,-594"/>
<path fill="none" stroke="#000000" d="M292,-594C278.0503,-557.074 246.8053,-560.882 240,-522"/>
</g>
<!-- Community_Matters -->
<g id="node10" class="node">
<title>Community_Matters</title>
<g id="a_node10"><a xlink:href="https://medium.com/holochain/tagged/community-matters" xlink:title="Community_Matters">
<ellipse fill="none" stroke="#000000" cx="1019" cy="-18" rx="105.8812" ry="18"/>
<text text-anchor="middle" x="1019" y="-14.3" font-family="Times,serif" font-size="14.00" fill="#000000">Community_Matters</text>
</a>
</g>
</g>
<!-- Dev_Pulse&#45;&gt;Community_Matters -->
<g id="edge32" class="edge">
<title>Dev_Pulse&#45;&gt;Community_Matters</title>
<path fill="none" stroke="#000000" d="M562.1225,-147.0007C656.3707,-120.3894 852.4865,-65.0156 954.3879,-36.2434"/>
<polygon fill="#000000" stroke="#000000" points="561.155,-143.637 552.4823,-149.7226 563.0571,-150.3736 561.155,-143.637"/>
<polygon fill="#000000" stroke="#000000" points="955.5745,-39.5453 964.2471,-33.4596 953.6723,-32.8087 955.5745,-39.5453"/>
</g>
<!-- Now_Building -->
<g id="node11" class="node">
<title>Now_Building</title>
<g id="a_node11"><a xlink:href="https://medium.com/holochain/tagged/now-building" xlink:title="Now_Building">
<ellipse fill="none" stroke="#000000" cx="1019" cy="-90" rx="75.2868" ry="18"/>
<text text-anchor="middle" x="1019" y="-86.3" font-family="Times,serif" font-size="14.00" fill="#000000">Now_Building</text>
</a>
</g>
</g>
<!-- Dev_Pulse&#45;&gt;Now_Building -->
<g id="edge34" class="edge">
<title>Dev_Pulse&#45;&gt;Now_Building</title>
<path fill="none" stroke="#000000" d="M572.6238,-153.0178C666.8417,-139.7165 843.1295,-114.8288 943.6691,-100.635"/>
<polygon fill="#000000" stroke="#000000" points="572.0275,-149.5672 562.615,-154.4308 573.0061,-156.4985 572.0275,-149.5672"/>
<polygon fill="#000000" stroke="#000000" points="944.3408,-104.0749 953.7533,-99.2113 943.3622,-97.1437 944.3408,-104.0749"/>
</g>
<!-- Now_Building&#45;&gt;Community_Matters -->
<g id="edge37" class="edge">
<title>Now_Building&#45;&gt;Community_Matters</title>
<path fill="none" stroke="#000000" d="M1019,-61.5726C1019,-56.6792 1019,-51.5904 1019,-46.6901"/>
<polygon fill="#000000" stroke="#000000" points="1015.5001,-61.8313 1019,-71.8314 1022.5001,-61.8314 1015.5001,-61.8313"/>
<polygon fill="#000000" stroke="#000000" points="1022.5001,-46.4132 1019,-36.4133 1015.5001,-46.4133 1022.5001,-46.4132"/>
</g>
<!-- Libraries&#45;&gt;dApps -->
<g id="edge4" class="edge">
<title>Libraries&#45;&gt;dApps</title>
<path fill="none" stroke="#000000" d="M423.2086,-320.1063C486.3419,-346.924 623.3525,-405.1232 690.4313,-433.6168"/>
<polygon fill="#000000" stroke="#000000" points="689.2312,-436.9097 699.8036,-437.598 691.968,-430.4668 689.2312,-436.9097"/>
</g>
<!-- dApps&#45;&gt;Business_Owners -->
<g id="edge5" class="edge">
<title>dApps&#45;&gt;Business_Owners</title>
<path fill="none" stroke="#000000" d="M731.6273,-431.9843C738.728,-383.2939 758.3422,-248.7961 766.9083,-190.0573"/>
<polygon fill="#000000" stroke="#000000" points="770.3939,-190.4093 768.3737,-180.0089 763.4672,-189.3991 770.3939,-190.4093"/>
</g>
<!-- dApps&#45;&gt;Programmers -->
<g id="edge111" class="edge">
<title>dApps&#45;&gt;Programmers</title>
<path fill="none" stroke="#000000" d="M680.8351,-443.0919C592.909,-430.481 405.8562,-403.6527 301.4288,-388.675"/>
<polygon fill="#000000" stroke="#000000" points="680.4607,-446.5739 690.8564,-444.5292 681.4546,-439.6448 680.4607,-446.5739"/>
<polygon fill="#000000" stroke="#000000" points="301.6738,-385.1745 291.2782,-387.2192 300.6799,-392.1035 301.6738,-385.1745"/>
</g>
<!-- End_Users&#45;&gt;Hosts -->
<g id="edge87" class="edge">
<title>End_Users&#45;&gt;Hosts</title>
<path fill="none" stroke="#000000" d="M752.1597,-572.9331C769.8715,-562.8917 790.9064,-550.9665 808.1682,-541.1802"/>
<polygon fill="#000000" stroke="#000000" points="750.1585,-570.0442 743.1854,-578.0209 753.6108,-576.1337 750.1585,-570.0442"/>
<polygon fill="#000000" stroke="#000000" points="810.3518,-543.9657 817.3248,-535.9891 806.8994,-537.8762 810.3518,-543.9657"/>
</g>
<!-- End_Users&#45;&gt;dApps -->
<g id="edge7" class="edge">
<title>End_Users&#45;&gt;dApps</title>
<path fill="none" stroke="#000000" d="M717.7736,-565.4713C720.2367,-540.1367 723.8157,-503.3246 726.2665,-478.1157"/>
<polygon fill="#000000" stroke="#000000" points="714.2573,-565.4705 716.7731,-575.7623 721.2244,-566.1479 714.2573,-565.4705"/>
<polygon fill="#000000" stroke="#000000" points="729.7571,-478.3814 727.2413,-468.0896 722.79,-477.704 729.7571,-478.3814"/>
</g>
<!-- End_Users&#45;&gt;Business_Owners -->
<g id="edge117" class="edge">
<title>End_Users&#45;&gt;Business_Owners</title>
<path fill="none" stroke="#000000" d="M732.3642,-567.3246C756.4314,-527.7115 797,-450.2262 797,-378 797,-378 797,-378 797,-306 797,-265.0476 786.6904,-218.5715 779.0552,-189.7668"/>
<polygon fill="#000000" stroke="#000000" points="729.2186,-565.7561 726.9235,-576.0993 735.1678,-569.4449 729.2186,-565.7561"/>
<polygon fill="#000000" stroke="#000000" points="782.398,-188.7217 776.3872,-179.997 775.6453,-190.5658 782.398,-188.7217"/>
</g>
<!-- End_Users&#45;&gt;News -->
<g id="edge25" class="edge">
<title>End_Users&#45;&gt;News</title>
<path fill="none" stroke="#000000" d="M698.422,-567.3618C682.5494,-539.2694 661,-493.1789 661,-450 661,-450 661,-450 661,-378 661,-336.1368 645.7997,-289.6262 634.6263,-261.0925"/>
<polygon fill="#000000" stroke="#000000" points="695.4926,-569.2866 703.548,-576.1686 701.5425,-565.7653 695.4926,-569.2866"/>
<polygon fill="#000000" stroke="#000000" points="637.8596,-259.7518 630.8736,-251.7865 631.3676,-262.3698 637.8596,-259.7518"/>
</g>
<!-- Programmers&#45;&gt;Dev_Pulse -->
<g id="edge27" class="edge">
<title>Programmers&#45;&gt;Dev_Pulse</title>
<path fill="none" stroke="#000000" d="M199.1157,-352.7085C191.7944,-344.3666 184.8695,-334.5096 181,-324 164.4154,-278.9561 149.9378,-252.5943 181,-216 197.7217,-196.3003 351.5828,-177.7346 442.5136,-168.3581"/>
<polygon fill="#000000" stroke="#000000" points="196.7709,-355.3242 206.1698,-360.2141 201.8717,-350.5302 196.7709,-355.3242"/>
<polygon fill="#000000" stroke="#000000" points="443.1419,-171.8123 452.735,-167.3154 442.4314,-164.8484 443.1419,-171.8123"/>
</g>
<!-- Programmers&#45;&gt;Libraries -->
<g id="edge112" class="edge">
<title>Programmers&#45;&gt;Libraries</title>
<path fill="none" stroke="#000000" d="M272.4364,-357.9299C296.2017,-347.4324 325.0915,-334.6712 348.2852,-324.4262"/>
<polygon fill="#000000" stroke="#000000" points="270.9081,-354.7787 263.175,-362.0209 273.7366,-361.1818 270.9081,-354.7787"/>
<polygon fill="#000000" stroke="#000000" points="349.7861,-327.5895 357.5192,-320.3473 346.9577,-321.1864 349.7861,-327.5895"/>
</g>
<!-- Programmers&#45;&gt;Business_Owners -->
<g id="edge114" class="edge">
<title>Programmers&#45;&gt;Business_Owners</title>
<path fill="none" stroke="#000000" d="M223.0824,-349.9423C219.7207,-313.3536 220.2017,-250.0195 257,-216 260.8328,-212.4566 530.8873,-185.5121 677.9564,-171.0737"/>
<polygon fill="#000000" stroke="#000000" points="219.6085,-350.3739 224.159,-359.9418 226.5683,-349.6245 219.6085,-350.3739"/>
<polygon fill="#000000" stroke="#000000" points="678.717,-174.516 688.3274,-170.0562 678.0335,-167.5494 678.717,-174.516"/>
</g>
<!-- Programmers&#45;&gt;Blogs -->
<g id="edge43" class="edge">
<title>Programmers&#45;&gt;Blogs</title>
<path fill="none" stroke="#000000" d="M303.4904,-368.2801C326.7566,-365.4529 352.4097,-362.465 376,-360 587.0231,-337.9496 839.6118,-317.5631 941.762,-309.5681"/>
<polygon fill="#000000" stroke="#000000" points="302.8337,-364.8343 293.3327,-369.5225 303.6836,-371.7825 302.8337,-364.8343"/>
<polygon fill="#000000" stroke="#000000" points="942.0493,-313.0564 951.7465,-308.7887 941.5044,-306.0777 942.0493,-313.0564"/>
</g>
<!-- Press_Releases&#45;&gt;Business_Owners -->
<g id="edge15" class="edge">
<title>Press_Releases&#45;&gt;Business_Owners</title>
<path fill="none" stroke="#000000" d="M558.911,-720.0466C542.242,-685.9993 507.3589,-609.2486 495,-540 486.5666,-492.7467 486.2446,-479.1947 495,-432 513.7592,-330.8818 501.9407,-285.2226 578,-216 595.2607,-200.2908 647.4334,-186.2166 693.1867,-176.3778"/>
<polygon fill="#000000" stroke="#000000" points="694.0744,-179.7677 703.1382,-174.2815 692.6314,-172.918 694.0744,-179.7677"/>
</g>
<!-- Press_Releases&#45;&gt;News -->
<g id="edge14" class="edge">
<title>Press_Releases&#45;&gt;News</title>
<path fill="none" stroke="#000000" d="M565.0358,-719.8522C559.2471,-682.7851 547,-595.6582 547,-522 547,-522 547,-522 547,-378 547,-331.6313 578.2023,-285.5636 600.6214,-258.4482"/>
<polygon fill="#000000" stroke="#000000" points="603.4333,-260.5446 607.2528,-250.6622 598.1042,-256.0058 603.4333,-260.5446"/>
</g>
<!-- Press_Releases&#45;&gt;Markets -->
<g id="edge16" class="edge">
<title>Press_Releases&#45;&gt;Markets</title>
<path fill="none" stroke="#000000" d="M615.0989,-723.256C654.7174,-710.8537 711.087,-693.2076 750.7484,-680.7918"/>
<polygon fill="#000000" stroke="#000000" points="751.9537,-684.082 760.4514,-677.7543 749.8624,-677.4017 751.9537,-684.082"/>
</g>
<!-- News&#45;&gt;Dev_Pulse -->
<g id="edge17" class="edge">
<title>News&#45;&gt;Dev_Pulse</title>
<path fill="none" stroke="#000000" d="M591.5521,-214.1381C576.5859,-204.6859 558.6563,-193.3619 543.336,-183.6859"/>
<polygon fill="#000000" stroke="#000000" points="590.1534,-217.3944 600.4773,-219.7751 593.8914,-211.4759 590.1534,-217.3944"/>
<polygon fill="#000000" stroke="#000000" points="544.9832,-180.5866 534.6593,-178.2059 541.2452,-186.5051 544.9832,-180.5866"/>
</g>
<!-- News&#45;&gt;Business_Owners -->
<g id="edge22" class="edge">
<title>News&#45;&gt;Business_Owners</title>
<path fill="none" stroke="#000000" d="M658.1296,-216.9099C678.8684,-206.8208 705.2949,-193.9646 727.3629,-183.2288"/>
<polygon fill="#000000" stroke="#000000" points="656.58,-213.7715 649.1187,-221.2936 659.6423,-220.0662 656.58,-213.7715"/>
<polygon fill="#000000" stroke="#000000" points="729.0633,-186.2939 736.5245,-178.7718 726.001,-179.9992 729.0633,-186.2939"/>
</g>
<!-- News&#45;&gt;Programmers -->
<g id="edge19" class="edge">
<title>News&#45;&gt;Programmers</title>
<path fill="none" stroke="#000000" d="M586.8021,-236.5764C512.0882,-242.4323 343.7171,-258.5679 295,-288 270.4346,-302.841 251.7097,-330.1856 240.1891,-350.8538"/>
<polygon fill="#000000" stroke="#000000" points="237.0291,-349.3413 235.4077,-359.8113 243.2044,-352.6376 237.0291,-349.3413"/>
</g>
<!-- Markets&#45;&gt;Hosts -->
<g id="edge46" class="edge">
<title>Markets&#45;&gt;Hosts</title>
<path fill="none" stroke="#000000" d="M808.6783,-638.7021C811.8484,-630.2052 815.2148,-620.7657 818,-612 824.5497,-591.3868 830.8066,-567.7459 835.2889,-549.8677"/>
<polygon fill="#000000" stroke="#000000" points="805.3699,-637.5556 805.0937,-648.1468 811.9144,-640.0395 805.3699,-637.5556"/>
<polygon fill="#000000" stroke="#000000" points="838.7078,-550.6215 837.7117,-540.0736 831.9127,-548.9405 838.7078,-550.6215"/>
</g>
<!-- Markets&#45;&gt;Business_Owners -->
<g id="edge119" class="edge">
<title>Markets&#45;&gt;Business_Owners</title>
<path fill="none" stroke="#000000" d="M832.6989,-644.7108C868.1401,-620.0031 918,-575.7006 918,-522 918,-522 918,-522 918,-306 918,-248.6326 860.1624,-206.5763 817.0455,-183.1945"/>
<polygon fill="#000000" stroke="#000000" points="830.3636,-642.0647 824.0382,-650.5641 834.2833,-647.8644 830.3636,-642.0647"/>
<polygon fill="#000000" stroke="#000000" points="818.5745,-180.0442 808.0943,-178.4897 815.3177,-186.2404 818.5745,-180.0442"/>
</g>
<!-- Markets&#45;&gt;End_Users -->
<g id="edge50" class="edge">
<title>Markets&#45;&gt;End_Users</title>
<path fill="none" stroke="#000000" d="M770.9196,-642.5086C761.7929,-634.5914 751.6036,-625.7525 742.4487,-617.8109"/>
<polygon fill="#000000" stroke="#000000" points="768.9021,-645.3918 778.7495,-649.3008 773.4891,-640.1041 768.9021,-645.3918"/>
<polygon fill="#000000" stroke="#000000" points="744.5699,-615.0176 734.7225,-611.1086 739.9829,-620.3053 744.5699,-615.0176"/>
</g>
<!-- Blogs&#45;&gt;Business_Owners -->
<g id="edge44" class="edge">
<title>Blogs&#45;&gt;Business_Owners</title>
<path fill="none" stroke="#000000" d="M977.2324,-278.9858C967.9881,-258.9934 952.8434,-232.4762 932,-216 908.311,-197.2745 877.8056,-184.8888 849.7302,-176.7675"/>
<polygon fill="#000000" stroke="#000000" points="974.0594,-280.4649 981.2957,-288.2035 980.4647,-277.6413 974.0594,-280.4649"/>
<polygon fill="#000000" stroke="#000000" points="850.4862,-173.3455 839.9161,-174.0693 848.6305,-180.0951 850.4862,-173.3455"/>
</g>
<!-- Blogs&#45;&gt;News -->
<g id="edge21" class="edge">
<title>Blogs&#45;&gt;News</title>
<path fill="none" stroke="#000000" d="M944.0981,-297.3399C873.8925,-283.4911 737.1343,-256.5142 666.9183,-242.6633"/>
<polygon fill="#000000" stroke="#000000" points="943.5011,-300.7895 953.9895,-299.2911 944.8559,-293.9219 943.5011,-300.7895"/>
<polygon fill="#000000" stroke="#000000" points="667.5455,-239.2197 657.0572,-240.7181 666.1908,-246.0874 667.5455,-239.2197"/>
</g>
<!-- Community&#45;&gt;Team -->
<g id="edge88" class="edge">
<title>Community&#45;&gt;Team</title>
<path fill="none" stroke="#000000" d="M935.2943,-867.7683C877.3803,-853.7286 790.2911,-832.616 738.9917,-820.1798"/>
<polygon fill="#000000" stroke="#000000" points="934.7459,-871.2367 945.2891,-870.1913 936.3952,-864.4337 934.7459,-871.2367"/>
<polygon fill="#000000" stroke="#000000" points="739.7715,-816.7675 729.2283,-817.8129 738.1222,-823.5705 739.7715,-816.7675"/>
</g>
<!-- Community&#45;&gt;Hosts -->
<g id="edge106" class="edge">
<title>Community&#45;&gt;Hosts</title>
<path fill="none" stroke="#000000" d="M965.9708,-857.6101C957.3409,-848.9598 948.4304,-838.6985 942,-828 885.8734,-734.6199 857.2406,-606.0219 846.7744,-549.9861"/>
<polygon fill="#000000" stroke="#000000" points="963.7792,-860.3583 973.4129,-864.7676 968.6315,-855.313 963.7792,-860.3583"/>
<polygon fill="#000000" stroke="#000000" points="850.2067,-549.2976 844.9747,-540.0848 843.3196,-550.5495 850.2067,-549.2976"/>
</g>
<!-- Community&#45;&gt;Documentation -->
<g id="edge102" class="edge">
<title>Community&#45;&gt;Documentation</title>
<path fill="none" stroke="#000000" d="M923.7852,-874.4716C854.1556,-866.1753 744.752,-850.8948 652,-828 575.1741,-809.0364 488.8454,-777.7757 436.1988,-757.5395"/>
<polygon fill="#000000" stroke="#000000" points="923.4227,-877.953 933.7631,-875.645 924.2403,-871.0009 923.4227,-877.953"/>
<polygon fill="#000000" stroke="#000000" points="437.3597,-754.236 426.7704,-753.8947 434.8357,-760.7651 437.3597,-754.236"/>
</g>
<!-- Community&#45;&gt;Community_Matters -->
<g id="edge29" class="edge">
<title>Community&#45;&gt;Community_Matters</title>
<path fill="none" stroke="#000000" d="M1064.5841,-874.2756C1143.3879,-861.2795 1260,-827.0103 1260,-738 1260,-738 1260,-738 1260,-162 1260,-87.555 1174.2107,-50.6829 1105.0018,-33.0494"/>
<polygon fill="#000000" stroke="#000000" points="1064.0283,-870.8199 1054.6924,-875.8291 1065.1143,-877.7352 1064.0283,-870.8199"/>
<polygon fill="#000000" stroke="#000000" points="1105.4683,-29.5605 1094.9231,-30.5852 1103.8057,-36.3602 1105.4683,-29.5605"/>
</g>
<!-- Community&#45;&gt;Now_Building -->
<g id="edge31" class="edge">
<title>Community&#45;&gt;Now_Building</title>
<path fill="none" stroke="#000000" d="M1058.7508,-869.9307C1126.1563,-853.1829 1222,-815.7068 1222,-738 1222,-738 1222,-738 1222,-234 1222,-164.315 1141.4373,-125.2808 1081.8159,-105.9346"/>
<polygon fill="#000000" stroke="#000000" points="1057.527,-866.6243 1048.6117,-872.3487 1059.1508,-873.4334 1057.527,-866.6243"/>
<polygon fill="#000000" stroke="#000000" points="1082.6596,-102.5313 1072.0707,-102.8847 1080.5689,-109.2118 1082.6596,-102.5313"/>
</g>
<!-- Community&#45;&gt;dApps -->
<g id="edge104" class="edge">
<title>Community&#45;&gt;dApps</title>
<path fill="none" stroke="#000000" d="M982.1881,-854.433C971.0328,-825.86 956,-779.6319 956,-738 956,-738 956,-738 956,-594 956,-509.656 842.8717,-472.6328 776.3405,-458.1522"/>
<polygon fill="#000000" stroke="#000000" points="978.9632,-855.7945 985.9412,-863.7668 985.4578,-853.183 978.9632,-855.7945"/>
<polygon fill="#000000" stroke="#000000" points="776.9884,-454.712 766.4844,-456.097 775.5594,-461.5646 776.9884,-454.712"/>
</g>
<!-- Community&#45;&gt;Business_Owners -->
<g id="edge100" class="edge">
<title>Community&#45;&gt;Business_Owners</title>
<path fill="none" stroke="#000000" d="M1047.8001,-865.0589C1068.2906,-856.5162 1090.6255,-844.4088 1107,-828 1163.311,-771.571 1184,-745.7193 1184,-666 1184,-666 1184,-666 1184,-306 1184,-237.2193 977.1853,-193.6736 856.2588,-174.0907"/>
<polygon fill="#000000" stroke="#000000" points="1046.24,-861.9124 1038.2346,-868.8524 1048.8206,-868.4194 1046.24,-861.9124"/>
<polygon fill="#000000" stroke="#000000" points="856.6971,-170.6165 846.2703,-172.496 855.5934,-177.5289 856.6971,-170.6165"/>
</g>
<!-- Community&#45;&gt;Programmers -->
<g id="edge98" class="edge">
<title>Community&#45;&gt;Programmers</title>
<path fill="none" stroke="#000000" d="M1005.8119,-854.433C1016.9672,-825.86 1032,-779.6319 1032,-738 1032,-738 1032,-738 1032,-594 1032,-534.2061 981.8484,-537.022 932,-504 722.1404,-364.9789 626.3495,-422.3251 376,-396 352.4113,-393.5196 326.7587,-390.5272 303.4924,-387.7007"/>
<polygon fill="#000000" stroke="#000000" points="1002.5422,-853.183 1002.0588,-863.7668 1009.0368,-855.7945 1002.5422,-853.183"/>
<polygon fill="#000000" stroke="#000000" points="303.6854,-384.1983 293.3346,-386.4589 302.836,-391.1466 303.6854,-384.1983"/>
</g>
<!-- Community&#45;&gt;News -->
<g id="edge96" class="edge">
<title>Community&#45;&gt;News</title>
<path fill="none" stroke="#000000" d="M1017.125,-856.646C1039.4834,-829.4183 1070,-783.8564 1070,-738 1070,-738 1070,-738 1070,-594 1070,-387.2201 776.2663,-279.1205 665.0181,-245.5943"/>
<polygon fill="#000000" stroke="#000000" points="1014.2778,-854.5925 1010.4909,-864.4874 1019.6218,-859.1137 1014.2778,-854.5925"/>
<polygon fill="#000000" stroke="#000000" points="665.7294,-242.1547 655.1471,-242.6717 663.742,-248.8667 665.7294,-242.1547"/>
</g>
<!-- Community&#45;&gt;Markets -->
<g id="edge92" class="edge">
<title>Community&#45;&gt;Markets</title>
<path fill="none" stroke="#000000" d="M948.5407,-862.2549C932.7675,-853.6051 916.0376,-842.1576 904,-828 870.5336,-788.6397 891.0417,-762.0325 861,-720 852.5228,-708.1392 840.9023,-697.2169 829.9487,-688.3447"/>
<polygon fill="#000000" stroke="#000000" points="947.1901,-865.498 957.6745,-867.0238 950.43,-859.2929 947.1901,-865.498"/>
<polygon fill="#000000" stroke="#000000" points="831.8073,-685.3562 821.7654,-681.9781 827.5089,-690.8811 831.8073,-685.3562"/>
</g>
<!-- Community&#45;&gt;Blogs -->
<g id="edge94" class="edge">
<title>Community&#45;&gt;Blogs</title>
<path fill="none" stroke="#000000" d="M1041.1722,-862.5769C1056.8063,-854.0508 1073.0037,-842.6011 1084,-828 1108.9045,-794.9312 1108,-779.3978 1108,-738 1108,-738 1108,-738 1108,-450 1108,-395.0994 1055.8868,-350.0216 1020.3453,-325.6623"/>
<polygon fill="#000000" stroke="#000000" points="1039.364,-859.5711 1032.0757,-867.2608 1042.5686,-865.7945 1039.364,-859.5711"/>
<polygon fill="#000000" stroke="#000000" points="1021.9739,-322.5422 1011.7081,-319.9222 1018.0994,-328.3722 1021.9739,-322.5422"/>
</g>
<!-- Investors&#45;&gt;Markets -->
<g id="edge49" class="edge">
<title>Investors&#45;&gt;Markets</title>
<path fill="none" stroke="#000000" d="M798,-709.5726C798,-704.6792 798,-699.5904 798,-694.6901"/>
<polygon fill="#000000" stroke="#000000" points="794.5001,-709.8313 798,-719.8314 801.5001,-709.8314 794.5001,-709.8313"/>
<polygon fill="#000000" stroke="#000000" points="801.5001,-694.4132 798,-684.4133 794.5001,-694.4133 801.5001,-694.4132"/>
</g>
</g>
</svg>
