<?xml version="1.0" encoding="UTF-8" standalone="no"?>
<!DOCTYPE svg PUBLIC "-//W3C//DTD SVG 1.1//EN"
 "http://www.w3.org/Graphics/SVG/1.1/DTD/svg11.dtd">
<!-- Generated by graphviz version 2.40.1 (20161225.0304)
 -->
<!-- Title: Software Flow Pages: 1 -->
<svg width="804pt" height="1124pt"
 viewBox="0.00 0.00 804.00 1124.00" xmlns="http://www.w3.org/2000/svg" xmlns:xlink="http://www.w3.org/1999/xlink">
<g id="graph0" class="graph" transform="scale(1 1) rotate(0) translate(4 1120)">
<title>Software Flow</title>
<polygon fill="#ffffff" stroke="transparent" points="-4,4 -4,-1120 800,-1120 800,4 -4,4"/>
<!-- Team -->
<g id="node1" class="node">
<title>Team</title>
<ellipse fill="none" stroke="#000000" cx="283" cy="-1098" rx="35.9954" ry="18"/>
<text text-anchor="middle" x="283" y="-1094.3" font-family="Times,serif" font-size="14.00" fill="#000000">Team</text>
</g>
<!-- Core Developers -->
<g id="node2" class="node">
<title>Core Developers</title>
<ellipse fill="none" stroke="#000000" cx="283" cy="-1026" rx="87.9851" ry="18"/>
<text text-anchor="middle" x="283" y="-1022.3" font-family="Times,serif" font-size="14.00" fill="#000000">Core Developers</text>
</g>
<!-- Team&#45;&gt;Core Developers -->
<g id="edge1" class="edge">
<title>Team&#45;&gt;Core Developers</title>
<path fill="none" stroke="#000000" d="M277.0843,-1080.2022C276.3005,-1072.3864 276.0689,-1063.0171 276.3898,-1054.2836"/>
<polygon fill="#000000" stroke="#000000" points="279.896,-1054.2999 277.055,-1044.0931 272.9109,-1053.8439 279.896,-1054.2999"/>
</g>
<!-- Press Releases -->
<g id="node3" class="node">
<title>Press Releases</title>
<ellipse fill="none" stroke="#000000" cx="669" cy="-738" rx="80.6858" ry="18"/>
<text text-anchor="middle" x="669" y="-734.3" font-family="Times,serif" font-size="14.00" fill="#000000">Press Releases</text>
</g>
<!-- Team&#45;&gt;Press Releases -->
<g id="edge3" class="edge">
<title>Team&#45;&gt;Press Releases</title>
<path fill="none" stroke="#000000" d="M316.6226,-1091.8027C404.987,-1074.5637 637,-1022.7537 637,-954 637,-954 637,-954 637,-882 637,-840.9442 649.5489,-794.8385 658.9299,-766.1076"/>
<polygon fill="#000000" stroke="#000000" points="662.3411,-766.9443 662.2136,-756.3503 655.7068,-764.7116 662.3411,-766.9443"/>
</g>
<!-- Documentation -->
<g id="node4" class="node">
<title>Documentation</title>
<ellipse fill="none" stroke="#000000" cx="127" cy="-810" rx="81.4863" ry="18"/>
<text text-anchor="middle" x="127" y="-806.3" font-family="Times,serif" font-size="14.00" fill="#000000">Documentation</text>
</g>
<!-- Team&#45;&gt;Documentation -->
<g id="edge4" class="edge">
<title>Team&#45;&gt;Documentation</title>
<path fill="none" stroke="#000000" d="M250.6435,-1090.3249C226.5086,-1082.3005 195.0788,-1067.5409 177,-1044 129.2962,-981.8836 119.8009,-885.7088 121.654,-838.3391"/>
<polygon fill="#000000" stroke="#000000" points="125.1572,-838.394 122.2809,-828.1971 118.1706,-837.962 125.1572,-838.394"/>
</g>
<!-- News -->
<g id="node5" class="node">
<title>News</title>
<ellipse fill="none" stroke="#000000" cx="551" cy="-306" rx="36.2938" ry="18"/>
<text text-anchor="middle" x="551" y="-302.3" font-family="Times,serif" font-size="14.00" fill="#000000">News</text>
</g>
<!-- Team&#45;&gt;News -->
<g id="edge6" class="edge">
<title>Team&#45;&gt;News</title>
<path fill="none" stroke="#000000" d="M318.6593,-1095.2493C432.3613,-1085.9125 778,-1050.4615 778,-954 778,-954 778,-954 778,-666 778,-518.0614 747.856,-468.2308 647,-360 630.9072,-342.7304 608.046,-330.0709 588.5813,-321.3683"/>
<polygon fill="#000000" stroke="#000000" points="589.9135,-318.1315 579.3432,-317.4112 587.1573,-324.566 589.9135,-318.1315"/>
</g>
<!-- Markets -->
<g id="node6" class="node">
<title>Markets</title>
<ellipse fill="none" stroke="#000000" cx="218" cy="-90" rx="49.2915" ry="18"/>
<text text-anchor="middle" x="218" y="-86.3" font-family="Times,serif" font-size="14.00" fill="#000000">Markets</text>
</g>
<!-- Team&#45;&gt;Markets -->
<g id="edge8" class="edge">
<title>Team&#45;&gt;Markets</title>
<path fill="none" stroke="#000000" d="M247.2735,-1095.9955C171.0203,-1089.5192 0,-1062.6866 0,-954 0,-954 0,-954 0,-234 0,-156.3086 99.1418,-117.3273 163.7999,-100.5876"/>
<polygon fill="#000000" stroke="#000000" points="164.9989,-103.8963 173.8606,-98.0895 163.3119,-97.1026 164.9989,-103.8963"/>
</g>
<!-- Core Developers&#45;&gt;Team -->
<g id="edge2" class="edge">
<title>Core Developers&#45;&gt;Team</title>
<path fill="none" stroke="#000000" d="M288.945,-1044.0931C289.715,-1051.9477 289.9326,-1061.3282 289.5979,-1070.0453"/>
<polygon fill="#000000" stroke="#000000" points="286.0938,-1069.9901 288.9157,-1080.2022 293.0781,-1070.4593 286.0938,-1069.9901"/>
</g>
<!-- Core Developers&#45;&gt;Documentation -->
<g id="edge26" class="edge">
<title>Core Developers&#45;&gt;Documentation</title>
<path fill="none" stroke="#000000" d="M251.0452,-1009.0317C237.1432,-999.1803 221.6123,-985.978 210,-972 174.7867,-929.6127 145.695,-871.8911 132.8266,-838.0204"/>
<polygon fill="#000000" stroke="#000000" points="136.0218,-836.5604 129.365,-828.318 129.4289,-838.9126 136.0218,-836.5604"/>
</g>
<!-- Source Code -->
<g id="node7" class="node">
<title>Source Code</title>
<ellipse fill="none" stroke="#000000" cx="298" cy="-954" rx="69.5877" ry="18"/>
<text text-anchor="middle" x="298" y="-950.3" font-family="Times,serif" font-size="14.00" fill="#000000">Source Code</text>
</g>
<!-- Core Developers&#45;&gt;Source Code -->
<g id="edge10" class="edge">
<title>Core Developers&#45;&gt;Source Code</title>
<path fill="none" stroke="#000000" d="M286.7851,-1007.8314C288.3894,-1000.131 290.297,-990.9743 292.0799,-982.4166"/>
<polygon fill="#000000" stroke="#000000" points="295.5507,-982.9169 294.1639,-972.4133 288.6979,-981.4892 295.5507,-982.9169"/>
</g>
<!-- Dev News -->
<g id="node15" class="node">
<title>Dev News</title>
<ellipse fill="none" stroke="#000000" cx="474" cy="-738" rx="57.6901" ry="18"/>
<text text-anchor="middle" x="474" y="-734.3" font-family="Times,serif" font-size="14.00" fill="#000000">Dev News</text>
</g>
<!-- Core Developers&#45;&gt;Dev News -->
<g id="edge31" class="edge">
<title>Core Developers&#45;&gt;Dev News</title>
<path fill="none" stroke="#000000" d="M315.2748,-1009.0762C332.4768,-1000.055 352.9721,-987.576 368,-972 425.606,-912.2932 450.9865,-813.5057 463.9553,-765.6637"/>
<polygon fill="#000000" stroke="#000000" points="467.3384,-766.5612 466.6175,-755.9909 460.5893,-764.7037 467.3384,-766.5612"/>
</g>
<!-- Press Releases&#45;&gt;News -->
<g id="edge33" class="edge">
<title>Press Releases&#45;&gt;News</title>
<path fill="none" stroke="#000000" d="M666.5136,-719.855C662.9987,-692.5902 657,-639.4068 657,-594 657,-594 657,-594 657,-450 657,-408.6022 657.2057,-393.5836 633,-360 621.5857,-344.1634 603.9734,-331.6891 587.9928,-322.7382"/>
<polygon fill="#000000" stroke="#000000" points="589.3054,-319.4725 578.8315,-317.8764 586.024,-325.6557 589.3054,-319.4725"/>
</g>
<!-- Business Owners -->
<g id="node13" class="node">
<title>Business Owners</title>
<ellipse fill="none" stroke="#000000" cx="375" cy="-162" rx="90.9839" ry="18"/>
<text text-anchor="middle" x="375" y="-158.3" font-family="Times,serif" font-size="14.00" fill="#000000">Business Owners</text>
</g>
<!-- Press Releases&#45;&gt;Business Owners -->
<g id="edge34" class="edge">
<title>Press Releases&#45;&gt;Business Owners</title>
<path fill="none" stroke="#000000" d="M677.9315,-719.9788C699.1841,-675.3795 751,-555.7939 751,-450 751,-450 751,-450 751,-306 751,-242.9598 564.3481,-197.268 454.0618,-175.7724"/>
<polygon fill="#000000" stroke="#000000" points="454.4453,-172.2821 443.9642,-173.8302 453.1231,-179.1561 454.4453,-172.2821"/>
</g>
<!-- Documentation&#45;&gt;Team -->
<g id="edge5" class="edge">
<title>Documentation&#45;&gt;Team</title>
<path fill="none" stroke="#000000" d="M131.5033,-828.1971C136.5535,-870.5192 143.5803,-977.045 195,-1044 208.0748,-1061.0251 228.1328,-1073.4573 245.8819,-1082.0705"/>
<polygon fill="#000000" stroke="#000000" points="244.8981,-1085.4703 255.4459,-1086.4676 247.8222,-1079.1103 244.8981,-1085.4703"/>
</g>
<!-- Documentation&#45;&gt;Core Developers -->
<g id="edge25" class="edge">
<title>Documentation&#45;&gt;Core Developers</title>
<path fill="none" stroke="#000000" d="M139.9579,-827.8187C157.4076,-859.0879 188.9373,-924.979 228,-972 236.9429,-982.7648 248.2099,-993.0695 258.3101,-1001.738"/>
<polygon fill="#000000" stroke="#000000" points="256.1966,-1004.5343 266.0933,-1008.3166 260.7153,-999.1882 256.1966,-1004.5343"/>
</g>
<!-- Documentation&#45;&gt;Dev News -->
<g id="edge27" class="edge">
<title>Documentation&#45;&gt;Dev News</title>
<path fill="none" stroke="#000000" d="M186.6514,-797.6228C250.8444,-784.3032 352.2647,-763.2592 415.8643,-750.0627"/>
<polygon fill="#000000" stroke="#000000" points="416.6551,-753.4733 425.7355,-748.0145 415.2329,-746.6193 416.6551,-753.4733"/>
</g>
<!-- Programmers -->
<g id="node16" class="node">
<title>Programmers</title>
<ellipse fill="none" stroke="#000000" cx="415" cy="-666" rx="74.9875" ry="18"/>
<text text-anchor="middle" x="415" y="-662.3" font-family="Times,serif" font-size="14.00" fill="#000000">Programmers</text>
</g>
<!-- Documentation&#45;&gt;Programmers -->
<g id="edge28" class="edge">
<title>Documentation&#45;&gt;Programmers</title>
<path fill="none" stroke="#000000" d="M160.0373,-793.4814C212.6619,-767.1691 315.4532,-715.7734 373.1481,-686.9259"/>
<polygon fill="#000000" stroke="#000000" points="374.969,-689.9287 382.348,-682.326 371.8385,-683.6677 374.969,-689.9287"/>
</g>
<!-- News&#45;&gt;Team -->
<g id="edge7" class="edge">
<title>News&#45;&gt;Team</title>
<path fill="none" stroke="#000000" d="M584.0225,-313.7292C609.416,-321.8624 643.3391,-336.7552 665,-360 765.856,-468.2308 796,-518.0614 796,-666 796,-954 796,-954 796,-954 796,-1049.8154 454.9758,-1085.4349 328.9565,-1095.0581"/>
<polygon fill="#000000" stroke="#000000" points="328.5636,-1091.5776 318.8504,-1095.8089 329.0823,-1098.5583 328.5636,-1091.5776"/>
</g>
<!-- News&#45;&gt;Business Owners -->
<g id="edge40" class="edge">
<title>News&#45;&gt;Business Owners</title>
<path fill="none" stroke="#000000" d="M538.9595,-288.8948C529.0311,-268.9802 514.4233,-236.2411 492,-216 475.0714,-200.7189 453.1621,-189.3116 432.8446,-181.0192"/>
<polygon fill="#000000" stroke="#000000" points="433.9257,-177.6841 423.3374,-177.3108 431.3818,-184.2056 433.9257,-177.6841"/>
</g>
<!-- End Users -->
<g id="node14" class="node">
<title>End Users</title>
<ellipse fill="none" stroke="#000000" cx="233" cy="-378" rx="59.5901" ry="18"/>
<text text-anchor="middle" x="233" y="-374.3" font-family="Times,serif" font-size="14.00" fill="#000000">End Users</text>
</g>
<!-- News&#45;&gt;End Users -->
<g id="edge42" class="edge">
<title>News&#45;&gt;End Users</title>
<path fill="none" stroke="#000000" d="M518.3014,-314.4292C465.1347,-327.0787 359.5276,-351.043 292.7283,-365.6621"/>
<polygon fill="#000000" stroke="#000000" points="291.7842,-362.2857 282.7601,-367.8369 293.2763,-369.1248 291.7842,-362.2857"/>
</g>
<!-- News&#45;&gt;Dev News -->
<g id="edge35" class="edge">
<title>News&#45;&gt;Dev News</title>
<path fill="none" stroke="#000000" d="M561.0157,-323.6144C570.3859,-350.6348 581,-404.0187 581,-450 581,-594 581,-594 581,-594 581,-643.9673 540.173,-689.4227 508.8023,-715.3742"/>
<polygon fill="#000000" stroke="#000000" points="506.3031,-712.8899 500.6548,-721.8535 510.6601,-718.3687 506.3031,-712.8899"/>
</g>
<!-- News&#45;&gt;Programmers -->
<g id="edge37" class="edge">
<title>News&#45;&gt;Programmers</title>
<path fill="none" stroke="#000000" d="M545.6128,-323.997C537.9972,-351.073 525,-404.0183 525,-450 525,-522 525,-522 525,-522 525,-563.3978 525.5681,-578.6805 501,-612 490.8626,-625.7484 476.0796,-636.8251 461.6197,-645.2831"/>
<polygon fill="#000000" stroke="#000000" points="459.7617,-642.311 452.7025,-650.2115 463.1478,-648.4375 459.7617,-642.311"/>
</g>
<!-- Blogs -->
<g id="node17" class="node">
<title>Blogs</title>
<ellipse fill="none" stroke="#000000" cx="404" cy="-234" rx="36.2938" ry="18"/>
<text text-anchor="middle" x="404" y="-230.3" font-family="Times,serif" font-size="14.00" fill="#000000">Blogs</text>
</g>
<!-- News&#45;&gt;Blogs -->
<g id="edge38" class="edge">
<title>News&#45;&gt;Blogs</title>
<path fill="none" stroke="#000000" d="M522.6186,-294.5914C497.8426,-283.3611 462.121,-266.0149 436.2838,-252.7553"/>
<polygon fill="#000000" stroke="#000000" points="437.7397,-249.5677 427.2507,-248.074 434.5188,-255.7828 437.7397,-249.5677"/>
</g>
<!-- Markets&#45;&gt;Team -->
<g id="edge9" class="edge">
<title>Markets&#45;&gt;Team</title>
<path fill="none" stroke="#000000" d="M177.0963,-100.2538C118.4762,-116.8061 18,-155.7875 18,-234 18,-954 18,-954 18,-954 18,-1053.5699 161.533,-1084.4418 237.417,-1093.8998"/>
<polygon fill="#000000" stroke="#000000" points="237.3147,-1097.4116 247.6536,-1095.0971 238.128,-1090.459 237.3147,-1097.4116"/>
</g>
<!-- Markets&#45;&gt;Business Owners -->
<g id="edge65" class="edge">
<title>Markets&#45;&gt;Business Owners</title>
<path fill="none" stroke="#000000" d="M251.9475,-103.1144C276.2397,-113.5665 308.9121,-128.4155 334.539,-140.587"/>
<polygon fill="#000000" stroke="#000000" points="333.1017,-143.7793 343.6331,-144.937 336.1223,-137.4645 333.1017,-143.7793"/>
</g>
<!-- Markets&#45;&gt;End Users -->
<g id="edge68" class="edge">
<title>Markets&#45;&gt;End Users</title>
<path fill="none" stroke="#000000" d="M222.424,-108.0089C229.0563,-156.6912 236.3016,-291.1886 235.745,-349.9345"/>
<polygon fill="#000000" stroke="#000000" points="232.2447,-349.9177 235.5483,-359.9843 239.2434,-350.0547 232.2447,-349.9177"/>
</g>
<!-- Investors -->
<g id="node18" class="node">
<title>Investors</title>
<ellipse fill="none" stroke="#000000" cx="218" cy="-18" rx="53.8905" ry="18"/>
<text text-anchor="middle" x="218" y="-14.3" font-family="Times,serif" font-size="14.00" fill="#000000">Investors</text>
</g>
<!-- Markets&#45;&gt;Investors -->
<g id="edge66" class="edge">
<title>Markets&#45;&gt;Investors</title>
<path fill="none" stroke="#000000" d="M212.0476,-71.8314C211.2856,-64.0125 211.0696,-54.6923 211.3995,-46.0221"/>
<polygon fill="#000000" stroke="#000000" points="214.9004,-46.1239 212.0727,-35.9134 207.9159,-45.6587 214.9004,-46.1239"/>
</g>
<!-- Release -->
<g id="node8" class="node">
<title>Release</title>
<ellipse fill="none" stroke="#000000" cx="301" cy="-882" rx="46.5926" ry="18"/>
<text text-anchor="middle" x="301" y="-878.3" font-family="Times,serif" font-size="14.00" fill="#000000">Release</text>
</g>
<!-- Source Code&#45;&gt;Release -->
<g id="edge11" class="edge">
<title>Source Code&#45;&gt;Release</title>
<path fill="none" stroke="#000000" d="M298.757,-935.8314C299.0779,-928.131 299.4594,-918.9743 299.816,-910.4166"/>
<polygon fill="#000000" stroke="#000000" points="303.3133,-910.5503 300.2328,-900.4133 296.3194,-910.2589 303.3133,-910.5503"/>
</g>
<!-- Release&#45;&gt;Press Releases -->
<g id="edge17" class="edge">
<title>Release&#45;&gt;Press Releases</title>
<path fill="none" stroke="#000000" d="M340.997,-872.4617C378.9203,-862.9203 437.1913,-846.9611 486,-828 537.2645,-808.0848 593.6939,-779.2015 630.1455,-759.5658"/>
<polygon fill="#000000" stroke="#000000" points="631.8436,-762.6265 638.9671,-754.784 628.5077,-756.4725 631.8436,-762.6265"/>
</g>
<!-- Release&#45;&gt;Documentation -->
<g id="edge18" class="edge">
<title>Release&#45;&gt;Documentation</title>
<path fill="none" stroke="#000000" d="M269.0857,-868.7941C242.7041,-857.8776 204.8423,-842.2106 174.8356,-829.794"/>
<polygon fill="#000000" stroke="#000000" points="175.9721,-826.4766 165.3937,-825.8871 173.2956,-832.9447 175.9721,-826.4766"/>
</g>
<!-- Release&#45;&gt;News -->
<g id="edge13" class="edge">
<title>Release&#45;&gt;News</title>
<path fill="none" stroke="#000000" d="M342.1946,-873.1654C374.2687,-864.9696 418.9144,-850.5812 453,-828 471.0946,-816.0126 469.458,-806.0525 486,-792 508.2657,-773.0852 521.7364,-777.9646 541,-756 593.6908,-695.9212 619,-673.9111 619,-594 619,-594 619,-594 619,-450 619,-404.8453 591.3223,-358.6951 571.2828,-331.1986"/>
<polygon fill="#000000" stroke="#000000" points="573.8933,-328.8462 565.0896,-322.9516 568.2959,-333.0497 573.8933,-328.8462"/>
</g>
<!-- API Docs -->
<g id="node9" class="node">
<title>API Docs</title>
<ellipse fill="none" stroke="#000000" cx="392" cy="-810" rx="51.9908" ry="18"/>
<text text-anchor="middle" x="392" y="-806.3" font-family="Times,serif" font-size="14.00" fill="#000000">API Docs</text>
</g>
<!-- Release&#45;&gt;API Docs -->
<g id="edge12" class="edge">
<title>Release&#45;&gt;API Docs</title>
<path fill="none" stroke="#000000" d="M321.6493,-865.6621C333.8955,-855.9728 349.6062,-843.5424 363.0732,-832.8871"/>
<polygon fill="#000000" stroke="#000000" points="365.4469,-835.4721 371.1174,-826.5225 361.1035,-829.9826 365.4469,-835.4721"/>
</g>
<!-- Libraries -->
<g id="node10" class="node">
<title>Libraries</title>
<ellipse fill="none" stroke="#000000" cx="202" cy="-594" rx="52.7911" ry="18"/>
<text text-anchor="middle" x="202" y="-590.3" font-family="Times,serif" font-size="14.00" fill="#000000">Libraries</text>
</g>
<!-- Release&#45;&gt;Libraries -->
<g id="edge14" class="edge">
<title>Release&#45;&gt;Libraries</title>
<path fill="none" stroke="#000000" d="M295.6842,-863.9066C286.7686,-833.849 268.0042,-771.8041 250,-720 238.1278,-685.8399 223.1037,-647.0215 213.0557,-621.6082"/>
<polygon fill="#000000" stroke="#000000" points="216.279,-620.2418 209.3363,-612.2387 209.7729,-622.8246 216.279,-620.2418"/>
</g>
<!-- Apps -->
<g id="node11" class="node">
<title>Apps</title>
<ellipse fill="none" stroke="#000000" cx="233" cy="-522" rx="33.5952" ry="18"/>
<text text-anchor="middle" x="233" y="-518.3" font-family="Times,serif" font-size="14.00" fill="#000000">Apps</text>
</g>
<!-- Release&#45;&gt;Apps -->
<g id="edge15" class="edge">
<title>Release&#45;&gt;Apps</title>
<path fill="none" stroke="#000000" d="M286.1878,-864.9145C252.1833,-824.4176 169.2103,-718.0204 140,-612 135.7501,-596.5748 132.0171,-589.8663 140,-576 151.5275,-555.9767 173.642,-542.6935 193.4142,-534.313"/>
<polygon fill="#000000" stroke="#000000" points="194.8552,-537.5071 202.8758,-530.5847 192.2889,-530.9945 194.8552,-537.5071"/>
</g>
<!-- Hosts -->
<g id="node12" class="node">
<title>Hosts</title>
<ellipse fill="none" stroke="#000000" cx="308" cy="-450" rx="37.8943" ry="18"/>
<text text-anchor="middle" x="308" y="-446.3" font-family="Times,serif" font-size="14.00" fill="#000000">Hosts</text>
</g>
<!-- Release&#45;&gt;Hosts -->
<g id="edge16" class="edge">
<title>Release&#45;&gt;Hosts</title>
<path fill="none" stroke="#000000" d="M301.2919,-863.9875C302.3815,-796.7447 306.2163,-560.0792 307.5437,-478.1585"/>
<polygon fill="#000000" stroke="#000000" points="311.0443,-478.1448 307.7069,-468.0894 304.0452,-478.0313 311.0443,-478.1448"/>
</g>
<!-- API Docs&#45;&gt;Dev News -->
<g id="edge29" class="edge">
<title>API Docs&#45;&gt;Dev News</title>
<path fill="none" stroke="#000000" d="M411.4329,-792.937C421.9765,-783.6792 435.1802,-772.0857 446.7374,-761.9379"/>
<polygon fill="#000000" stroke="#000000" points="449.2174,-764.4181 454.4225,-755.19 444.5987,-759.158 449.2174,-764.4181"/>
</g>
<!-- API Docs&#45;&gt;Programmers -->
<g id="edge30" class="edge">
<title>API Docs&#45;&gt;Programmers</title>
<path fill="none" stroke="#000000" d="M394.913,-791.7623C398.8532,-767.0928 405.9182,-722.8598 410.5321,-693.9731"/>
<polygon fill="#000000" stroke="#000000" points="413.9896,-694.5165 412.1107,-684.0896 407.0772,-693.4124 413.9896,-694.5165"/>
</g>
<!-- Libraries&#45;&gt;Apps -->
<g id="edge58" class="edge">
<title>Libraries&#45;&gt;Apps</title>
<path fill="none" stroke="#000000" d="M209.8226,-575.8314C213.3001,-567.7547 217.4672,-558.0761 221.3032,-549.1668"/>
<polygon fill="#000000" stroke="#000000" points="224.5473,-550.4824 225.2873,-539.9134 218.1179,-547.7141 224.5473,-550.4824"/>
</g>
<!-- Libraries&#45;&gt;Programmers -->
<g id="edge53" class="edge">
<title>Libraries&#45;&gt;Programmers</title>
<path fill="none" stroke="#000000" d="M241.9881,-605.7768C277.0164,-617.0111 327.9058,-634.1161 365.4806,-647.2296"/>
<polygon fill="#000000" stroke="#000000" points="364.6192,-650.6365 375.2141,-650.6425 366.9355,-644.0307 364.6192,-650.6365"/>
</g>
<!-- Apps&#45;&gt;Hosts -->
<g id="edge20" class="edge">
<title>Apps&#45;&gt;Hosts</title>
<path fill="none" stroke="#000000" d="M244.934,-504.937C254.253,-494.9762 267.3092,-482.3114 279.196,-471.6527"/>
<polygon fill="#000000" stroke="#000000" points="281.5826,-474.215 286.7875,-464.9868 276.9639,-468.955 281.5826,-474.215"/>
</g>
<!-- Apps&#45;&gt;Business Owners -->
<g id="edge59" class="edge">
<title>Apps&#45;&gt;Business Owners</title>
<path fill="none" stroke="#000000" d="M215.1919,-506.2261C189.478,-481.6099 145,-431.3235 145,-378 145,-378 145,-378 145,-306 145,-232.0228 231.5363,-194.6198 298.4483,-176.7562"/>
<polygon fill="#000000" stroke="#000000" points="299.3506,-180.1381 308.1655,-174.2603 297.6092,-173.3582 299.3506,-180.1381"/>
</g>
<!-- Apps&#45;&gt;End Users -->
<g id="edge60" class="edge">
<title>Apps&#45;&gt;End Users</title>
<path fill="none" stroke="#000000" d="M228.3562,-504.0535C225.8728,-479.5852 225.5855,-435.4896 227.4943,-406.4799"/>
<polygon fill="#000000" stroke="#000000" points="231.0103,-406.4238 228.3333,-396.1727 224.0334,-405.8557 231.0103,-406.4238"/>
</g>
<!-- Apps&#45;&gt;Programmers -->
<g id="edge51" class="edge">
<title>Apps&#45;&gt;Programmers</title>
<path fill="none" stroke="#000000" d="M254.7886,-535.9218C288.7751,-560.4123 353.6502,-611.4773 389.6507,-641.8315"/>
<polygon fill="#000000" stroke="#000000" points="387.4146,-644.5245 397.2975,-648.3428 391.9528,-639.1948 387.4146,-644.5245"/>
</g>
<!-- Hosts&#45;&gt;Apps -->
<g id="edge19" class="edge">
<title>Hosts&#45;&gt;Apps</title>
<path fill="none" stroke="#000000" d="M296.05,-467.0801C286.6194,-477.1587 273.3681,-490.0011 261.3737,-500.7326"/>
<polygon fill="#000000" stroke="#000000" points="258.9434,-498.2086 253.726,-507.4297 263.555,-503.4748 258.9434,-498.2086"/>
</g>
<!-- Hosts&#45;&gt;Business Owners -->
<g id="edge21" class="edge">
<title>Hosts&#45;&gt;Business Owners</title>
<path fill="none" stroke="#000000" d="M306.6522,-431.9865C310.117,-392.5989 329.475,-295.9408 350,-216 352.2371,-207.287 354.9327,-197.8623 357.886,-189.3628"/>
<polygon fill="#000000" stroke="#000000" points="361.1979,-190.4998 361.4594,-179.9081 354.65,-188.025 361.1979,-190.4998"/>
</g>
<!-- Hosts&#45;&gt;End Users -->
<g id="edge23" class="edge">
<title>Hosts&#45;&gt;End Users</title>
<path fill="none" stroke="#000000" d="M286.8672,-435.0816C276.1178,-425.8672 263.2637,-413.8079 252.7269,-403.1487"/>
<polygon fill="#000000" stroke="#000000" points="254.9922,-400.4561 245.5272,-395.6953 249.9574,-405.3194 254.9922,-400.4561"/>
</g>
<!-- Business Owners&#45;&gt;News -->
<g id="edge41" class="edge">
<title>Business Owners&#45;&gt;News</title>
<path fill="none" stroke="#000000" d="M434.9901,-175.6455C460.514,-184.1298 489.0654,-197.1028 510,-216 528.7558,-232.9306 542.0437,-258.6053 548.6682,-278.2051"/>
<polygon fill="#000000" stroke="#000000" points="545.3211,-279.2292 551.5186,-287.8223 552.0325,-277.2399 545.3211,-279.2292"/>
</g>
<!-- Business Owners&#45;&gt;Markets -->
<g id="edge64" class="edge">
<title>Business Owners&#45;&gt;Markets</title>
<path fill="none" stroke="#000000" d="M334.0256,-145.8418C309.3372,-135.0807 278.2599,-120.8799 254.4284,-109.492"/>
<polygon fill="#000000" stroke="#000000" points="255.8811,-106.3069 245.3529,-105.1203 252.8432,-112.6133 255.8811,-106.3069"/>
</g>
<!-- Business Owners&#45;&gt;Hosts -->
<g id="edge22" class="edge">
<title>Business Owners&#45;&gt;Hosts</title>
<path fill="none" stroke="#000000" d="M377.1097,-180.4011C374.9877,-190.7991 371.0638,-204.0669 368,-216 348.9504,-290.1941 330.9062,-378.7884 318.9317,-422.6318"/>
<polygon fill="#000000" stroke="#000000" points="315.5562,-421.7061 316.1714,-432.2831 322.2863,-423.631 315.5562,-421.7061"/>
</g>
<!-- Business Owners&#45;&gt;End Users -->
<g id="edge62" class="edge">
<title>Business Owners&#45;&gt;End Users</title>
<path fill="none" stroke="#000000" d="M355.0155,-179.7052C342.5274,-189.2112 327.0566,-201.8728 316,-216 283.2182,-257.8858 261.0796,-316.6272 247.3517,-350.6597"/>
<polygon fill="#000000" stroke="#000000" points="244.0873,-349.3955 243.5301,-359.9757 250.5636,-352.0522 244.0873,-349.3955"/>
</g>
<!-- Business Owners&#45;&gt;Programmers -->
<g id="edge57" class="edge">
<title>Business Owners&#45;&gt;Programmers</title>
<path fill="none" stroke="#000000" d="M414.0689,-178.4337C429.8584,-187.7028 446.8171,-200.5346 458,-216 482.6249,-250.055 487,-263.9747 487,-306 487,-522 487,-522 487,-522 487,-566.5134 461.4199,-612.767 440.5309,-640.4692"/>
<polygon fill="#000000" stroke="#000000" points="437.681,-638.4306 434.2322,-648.4484 443.1754,-642.7678 437.681,-638.4306"/>
</g>
<!-- Business Owners&#45;&gt;Blogs -->
<g id="edge47" class="edge">
<title>Business Owners&#45;&gt;Blogs</title>
<path fill="none" stroke="#000000" d="M388.1424,-179.9134C392.1382,-187.8704 396.2052,-197.42 399.4186,-206.2657"/>
<polygon fill="#000000" stroke="#000000" points="396.1302,-207.468 402.6345,-215.8314 402.7653,-205.2373 396.1302,-207.468"/>
</g>
<!-- End Users&#45;&gt;News -->
<g id="edge43" class="edge">
<title>End Users&#45;&gt;News</title>
<path fill="none" stroke="#000000" d="M278.9774,-366.432C340.046,-352.0773 446.946,-327.9101 507.0064,-314.9122"/>
<polygon fill="#000000" stroke="#000000" points="507.9029,-318.2995 516.9419,-312.7726 506.4292,-311.4563 507.9029,-318.2995"/>
</g>
<!-- End Users&#45;&gt;Markets -->
<g id="edge69" class="edge">
<title>End Users&#45;&gt;Markets</title>
<path fill="none" stroke="#000000" d="M228.575,-359.9843C221.9427,-311.2939 214.6978,-176.7961 215.2551,-118.0573"/>
<polygon fill="#000000" stroke="#000000" points="218.7553,-118.0755 215.4519,-108.0089 211.7567,-117.9384 218.7553,-118.0755"/>
</g>
<!-- End Users&#45;&gt;Apps -->
<g id="edge61" class="edge">
<title>End Users&#45;&gt;Apps</title>
<path fill="none" stroke="#000000" d="M237.6667,-396.1727C240.1365,-420.7613 240.4103,-464.8705 238.4881,-493.7871"/>
<polygon fill="#000000" stroke="#000000" points="234.9753,-493.8002 237.6438,-504.0535 241.9517,-494.374 234.9753,-493.8002"/>
</g>
<!-- End Users&#45;&gt;Hosts -->
<g id="edge24" class="edge">
<title>End Users&#45;&gt;Hosts</title>
<path fill="none" stroke="#000000" d="M256.2806,-394.7729C266.684,-403.8182 278.7076,-415.1555 288.618,-425.2005"/>
<polygon fill="#000000" stroke="#000000" points="286.2627,-427.8003 295.7228,-432.5708 291.3024,-422.9421 286.2627,-427.8003"/>
</g>
<!-- End Users&#45;&gt;Business Owners -->
<g id="edge63" class="edge">
<title>End Users&#45;&gt;Business Owners</title>
<path fill="none" stroke="#000000" d="M232.7735,-359.9757C238.8126,-328.3884 261.9822,-262.0205 298,-216 307.2854,-204.1358 319.6842,-193.3053 331.8858,-184.5095"/>
<polygon fill="#000000" stroke="#000000" points="333.9993,-187.3039 340.261,-178.7574 330.0363,-181.5337 333.9993,-187.3039"/>
</g>
<!-- Dev News&#45;&gt;Core Developers -->
<g id="edge32" class="edge">
<title>Dev News&#45;&gt;Core Developers</title>
<path fill="none" stroke="#000000" d="M475.6846,-756.3092C472.4154,-799.3367 447.6802,-908.0704 386,-972 372.6586,-985.8279 355.0083,-997.215 338.0368,-1005.9088"/>
<polygon fill="#000000" stroke="#000000" points="336.162,-1002.9291 328.7098,-1010.46 339.2318,-1009.2201 336.162,-1002.9291"/>
</g>
<!-- Dev News&#45;&gt;News -->
<g id="edge36" class="edge">
<title>Dev News&#45;&gt;News</title>
<path fill="none" stroke="#000000" d="M490.2124,-720.6158C516.1518,-695.8732 563,-647.5252 563,-594 563,-594 563,-594 563,-450 563,-409.4516 554.7459,-363.1465 550.8051,-334.2405"/>
<polygon fill="#000000" stroke="#000000" points="554.2462,-333.5505 549.5322,-324.0621 547.3003,-334.4192 554.2462,-333.5505"/>
</g>
<!-- Dev News&#45;&gt;Programmers -->
<g id="edge49" class="edge">
<title>Dev News&#45;&gt;Programmers</title>
<path fill="none" stroke="#000000" d="M454.1779,-720.937C446.1999,-712.3173 437.252,-701.6727 429.8353,-692.0555"/>
<polygon fill="#000000" stroke="#000000" points="432.5645,-689.8606 423.7747,-683.9453 426.9571,-694.0508 432.5645,-689.8606"/>
</g>
<!-- Programmers&#45;&gt;Libraries -->
<g id="edge52" class="edge">
<title>Programmers&#45;&gt;Libraries</title>
<path fill="none" stroke="#000000" d="M367.9448,-651.9468C331.744,-640.2382 282.1702,-623.5212 246.5982,-611.049"/>
<polygon fill="#000000" stroke="#000000" points="247.5539,-607.6749 236.9591,-607.6515 245.2269,-614.2768 247.5539,-607.6749"/>
</g>
<!-- Programmers&#45;&gt;Apps -->
<g id="edge50" class="edge">
<title>Programmers&#45;&gt;Apps</title>
<path fill="none" stroke="#000000" d="M388.853,-648.9158C353.3366,-622.9828 290.808,-573.6484 256.634,-544.7194"/>
<polygon fill="#000000" stroke="#000000" points="258.8636,-542.0207 248.9902,-538.1777 254.3121,-547.339 258.8636,-542.0207"/>
</g>
<!-- Programmers&#45;&gt;Business Owners -->
<g id="edge56" class="edge">
<title>Programmers&#45;&gt;Business Owners</title>
<path fill="none" stroke="#000000" d="M422.7467,-648.0112C438.1989,-621.7861 469,-570.8453 469,-522 469,-522 469,-522 469,-306 469,-263.9747 464.6249,-250.055 440,-216 431.3012,-203.97 419.1077,-193.5335 407.5607,-185.1279"/>
<polygon fill="#000000" stroke="#000000" points="409.5277,-182.2326 399.3262,-179.3725 405.5175,-187.97 409.5277,-182.2326"/>
</g>
<!-- Programmers&#45;&gt;Dev News -->
<g id="edge48" class="edge">
<title>Programmers&#45;&gt;Dev News</title>
<path fill="none" stroke="#000000" d="M435.0824,-683.3446C443.0487,-691.9728 451.9502,-702.5767 459.316,-712.1408"/>
<polygon fill="#000000" stroke="#000000" points="456.5458,-714.2809 465.3315,-720.2022 462.156,-710.0945 456.5458,-714.2809"/>
</g>
<!-- Programmers&#45;&gt;Blogs -->
<g id="edge45" class="edge">
<title>Programmers&#45;&gt;Blogs</title>
<path fill="none" stroke="#000000" d="M395.4759,-648.2982C382.5598,-621.1635 377,-567.6326 377,-522 377,-522 377,-522 377,-378 377,-336.8086 377,-288.9893 384.1985,-260.137"/>
<polygon fill="#000000" stroke="#000000" points="387.5949,-260.9998 387.1896,-250.4127 380.9043,-258.9417 387.5949,-260.9998"/>
</g>
<!-- Programmers&#45;&gt;Blogs -->
<g id="edge54" class="edge">
<title>Programmers&#45;&gt;Blogs</title>
<path fill="none" stroke="#000000" d="M418.5398,-647.8486C418.4988,-620.5755 413,-567.3818 413,-522 413,-522 413,-522 413,-378 413,-337.876 413,-291.4631 410.7822,-262.4177"/>
<polygon fill="#000000" stroke="#000000" points="414.2409,-261.8133 409.819,-252.1854 407.2717,-262.4694 414.2409,-261.8133"/>
</g>
<!-- Blogs&#45;&gt;News -->
<g id="edge39" class="edge">
<title>Blogs&#45;&gt;News</title>
<path fill="none" stroke="#000000" d="M432.3896,-245.4123C457.1782,-256.6486 492.9191,-274.0047 518.7566,-287.2654"/>
<polygon fill="#000000" stroke="#000000" points="517.3,-290.4526 527.7889,-291.9468 520.5211,-284.2377 517.3,-290.4526"/>
</g>
<!-- Blogs&#45;&gt;Business Owners -->
<g id="edge46" class="edge">
<title>Blogs&#45;&gt;Business Owners</title>
<path fill="none" stroke="#000000" d="M391.2875,-216.937C387.1537,-208.8137 382.9078,-198.892 379.5787,-189.7267"/>
<polygon fill="#000000" stroke="#000000" points="382.8797,-188.562 376.3749,-180.1992 376.2448,-190.7932 382.8797,-188.562"/>
</g>
<!-- Blogs&#45;&gt;Programmers -->
<g id="edge44" class="edge">
<title>Blogs&#45;&gt;Programmers</title>
<path fill="none" stroke="#000000" d="M398.181,-252.1854C395,-279.5017 395,-332.75 395,-378 395,-522 395,-522 395,-522 395,-562.4182 399.3617,-609.0329 404.8393,-638.0135"/>
<polygon fill="#000000" stroke="#000000" points="401.4237,-638.7798 406.9018,-647.8486 408.2747,-637.3431 401.4237,-638.7798"/>
</g>
<!-- Blogs&#45;&gt;Programmers -->
<g id="edge55" class="edge">
<title>Blogs&#45;&gt;Programmers</title>
<path fill="none" stroke="#000000" d="M420.8104,-250.4127C431,-277.1443 431,-331.75 431,-378 431,-522 431,-522 431,-522 431,-562.4632 435.3715,-609.1368 431.8387,-638.1103"/>
<polygon fill="#000000" stroke="#000000" points="428.3321,-637.8472 430.0721,-648.2982 435.2292,-639.0433 428.3321,-637.8472"/>
</g>
<!-- Investors&#45;&gt;Markets -->
<g id="edge67" class="edge">
<title>Investors&#45;&gt;Markets</title>
<path fill="none" stroke="#000000" d="M223.9273,-35.9134C224.7012,-43.6993 224.9291,-53.01 224.6111,-61.6941"/>
<polygon fill="#000000" stroke="#000000" points="221.1082,-61.6254 223.9524,-71.8314 228.0935,-62.0794 221.1082,-61.6254"/>
</g>
</g>
</svg>
