<?xml version="1.0" encoding="UTF-8" standalone="no"?>
<!DOCTYPE svg PUBLIC "-//W3C//DTD SVG 1.1//EN"
 "http://www.w3.org/Graphics/SVG/1.1/DTD/svg11.dtd">
<!-- Generated by graphviz version 2.40.1 (20161225.0304)
 -->
<!-- Title: doc project tech Pages: 1 -->
<svg width="1570pt" height="188pt"
 viewBox="0.00 0.00 1570.09 188.00" xmlns="http://www.w3.org/2000/svg" xmlns:xlink="http://www.w3.org/1999/xlink">
<g id="graph0" class="graph" transform="scale(1 1) rotate(0) translate(4 184)">
<title>doc project tech</title>
<polygon fill="#ffffff" stroke="transparent" points="-4,4 -4,-184 1566.0865,-184 1566.0865,4 -4,4"/>
<!-- Search -->
<g id="node1" class="node">
<title>Search</title>
<ellipse fill="none" stroke="#000000" cx="275.4435" cy="-162" rx="42.7926" ry="18"/>
<text text-anchor="middle" x="275.4435" y="-158.3" font-family="Times,serif" font-size="14.00" fill="#000000">Search</text>
</g>
<!-- Elasticlunr_js -->
<g id="node3" class="node">
<title>Elasticlunr_js</title>
<g id="a_node3"><a xlink:href="http://elasticlunr.com/" xlink:title="Elasticlunr_js">
<ellipse fill="none" stroke="#000000" cx="73.4435" cy="-18" rx="73.387" ry="18"/>
<text text-anchor="middle" x="73.4435" y="-14.3" font-family="Times,serif" font-size="14.00" fill="#000000">Elasticlunr_js</text>
</a>
</g>
</g>
<!-- Search&#45;&gt;Elasticlunr_js -->
<g id="edge1" class="edge">
<title>Search&#45;&gt;Elasticlunr_js</title>
<path fill="none" stroke="#000000" d="M253.4414,-146.3154C217.8335,-120.9315 147.3974,-70.7196 105.9808,-41.1949"/>
<polygon fill="#000000" stroke="#000000" points="107.7809,-38.1799 97.6064,-35.2251 103.7175,-43.8798 107.7809,-38.1799"/>
</g>
<!-- searcher_js -->
<g id="node8" class="node">
<title>searcher_js</title>
<g id="a_node8"><a xlink:href="https://developer.holochain.org/guide/latest/searcher.js" xlink:title="searcher_js">
<ellipse fill="none" stroke="#000000" cx="275.4435" cy="-90" rx="63.8893" ry="18"/>
<text text-anchor="middle" x="275.4435" y="-86.3" font-family="Times,serif" font-size="14.00" fill="#000000">searcher_js</text>
</a>
</g>
</g>
<!-- Search&#45;&gt;searcher_js -->
<g id="edge11" class="edge">
<title>Search&#45;&gt;searcher_js</title>
<path fill="none" stroke="#000000" d="M275.4435,-143.8314C275.4435,-136.131 275.4435,-126.9743 275.4435,-118.4166"/>
<polygon fill="#000000" stroke="#000000" points="278.9436,-118.4132 275.4435,-108.4133 271.9436,-118.4133 278.9436,-118.4132"/>
</g>
<!-- HDK_search_index_js -->
<g id="node16" class="node">
<title>HDK_search_index_js</title>
<g id="a_node16"><a xlink:href="https://developer.holochain.org/api/latest/search-index.js" xlink:title="HDK_search_index_js">
<ellipse fill="none" stroke="#000000" cx="709.4435" cy="-90" rx="109.6807" ry="18"/>
<text text-anchor="middle" x="709.4435" y="-86.3" font-family="Times,serif" font-size="14.00" fill="#000000">HDK_search_index_js</text>
</a>
</g>
</g>
<!-- Search&#45;&gt;HDK_search_index_js -->
<g id="edge18" class="edge">
<title>Search&#45;&gt;HDK_search_index_js</title>
<path fill="none" stroke="#000000" d="M310.7262,-151.6965C320.9044,-148.949 332.0648,-146.1501 342.4435,-144 431.8842,-125.4711 534.8673,-110.8983 608.9345,-101.5853"/>
<polygon fill="#000000" stroke="#000000" points="609.6995,-105.0171 619.1894,-100.3062 608.8331,-98.0709 609.6995,-105.0171"/>
</g>
<!-- Code_Block -->
<g id="node2" class="node">
<title>Code_Block</title>
<ellipse fill="none" stroke="#000000" cx="571.4435" cy="-162" rx="63.8893" ry="18"/>
<text text-anchor="middle" x="571.4435" y="-158.3" font-family="Times,serif" font-size="14.00" fill="#000000">Code_Block</text>
</g>
<!-- clipboard_js -->
<g id="node5" class="node">
<title>clipboard_js</title>
<g id="a_node5"><a xlink:href="https://clipboardjs.com/" xlink:title="clipboard_js">
<ellipse fill="none" stroke="#000000" cx="575.4435" cy="-18" rx="66.0889" ry="18"/>
<text text-anchor="middle" x="575.4435" y="-14.3" font-family="Times,serif" font-size="14.00" fill="#000000">clipboard_js</text>
</a>
</g>
</g>
<!-- Code_Block&#45;&gt;clipboard_js -->
<g id="edge2" class="edge">
<title>Code_Block&#45;&gt;clipboard_js</title>
<path fill="none" stroke="#000000" d="M571.9501,-143.7623C572.6323,-119.201 573.8533,-75.2474 574.6559,-46.3541"/>
<polygon fill="#000000" stroke="#000000" points="578.1619,-46.183 574.941,-36.0896 571.1646,-45.9885 578.1619,-46.183"/>
</g>
<!-- highlight_js -->
<g id="node6" class="node">
<title>highlight_js</title>
<g id="a_node6"><a xlink:href="https://highlightjs.org/" xlink:title="highlight_js">
<ellipse fill="none" stroke="#000000" cx="786.4435" cy="-18" rx="64.9885" ry="18"/>
<text text-anchor="middle" x="786.4435" y="-14.3" font-family="Times,serif" font-size="14.00" fill="#000000">highlight_js</text>
</a>
</g>
</g>
<!-- Code_Block&#45;&gt;highlight_js -->
<g id="edge3" class="edge">
<title>Code_Block&#45;&gt;highlight_js</title>
<path fill="none" stroke="#000000" d="M633.4178,-157.7577C701.476,-151.6568 804.3432,-137.6904 828.4435,-108 844.298,-88.468 828.4392,-61.9669 811.8654,-42.7843"/>
<polygon fill="#000000" stroke="#000000" points="814.3774,-40.3444 805.0553,-35.3096 809.2029,-45.0588 814.3774,-40.3444"/>
</g>
<!-- Guide_Book_js -->
<g id="node10" class="node">
<title>Guide_Book_js</title>
<g id="a_node10"><a xlink:href="https://developer.holochain.org/guide/latest/book.js" xlink:title="Guide_Book_js">
<ellipse fill="none" stroke="#000000" cx="466.4435" cy="-90" rx="77.1866" ry="18"/>
<text text-anchor="middle" x="466.4435" y="-86.3" font-family="Times,serif" font-size="14.00" fill="#000000">Guide_Book_js</text>
</a>
</g>
</g>
<!-- Code_Block&#45;&gt;Guide_Book_js -->
<g id="edge12" class="edge">
<title>Code_Block&#45;&gt;Guide_Book_js</title>
<path fill="none" stroke="#000000" d="M547.0905,-145.3008C533.113,-135.7163 515.3564,-123.5403 500.0649,-113.0547"/>
<polygon fill="#000000" stroke="#000000" points="501.6202,-109.8774 491.3936,-107.1086 497.6615,-115.6505 501.6202,-109.8774"/>
</g>
<!-- Mark_js -->
<g id="node4" class="node">
<title>Mark_js</title>
<g id="a_node4"><a xlink:href="https://markjs.io/" xlink:title="Mark_js">
<ellipse fill="none" stroke="#000000" cx="443.4435" cy="-18" rx="47.3916" ry="18"/>
<text text-anchor="middle" x="443.4435" y="-14.3" font-family="Times,serif" font-size="14.00" fill="#000000">Mark_js</text>
</a>
</g>
</g>
<!-- Guide_Book -->
<g id="node7" class="node">
<title>Guide_Book</title>
<g id="a_node7"><a xlink:href="https://developer.holochain.org/guide/latest/" xlink:title="Guide_Book">
<ellipse fill="none" stroke="#000000" cx="417.4435" cy="-162" rx="65.7887" ry="18"/>
<text text-anchor="middle" x="417.4435" y="-158.3" font-family="Times,serif" font-size="14.00" fill="#000000">Guide_Book</text>
</a>
</g>
</g>
<!-- Guide_Book&#45;&gt;searcher_js -->
<g id="edge4" class="edge">
<title>Guide_Book&#45;&gt;searcher_js</title>
<path fill="none" stroke="#000000" d="M385.9291,-146.0209C365.3387,-135.5807 338.252,-121.8466 316.0518,-110.5901"/>
<polygon fill="#000000" stroke="#000000" points="317.3716,-107.3352 306.8698,-105.9345 314.206,-113.5785 317.3716,-107.3352"/>
</g>
<!-- Guide_Book&#45;&gt;Guide_Book_js -->
<g id="edge8" class="edge">
<title>Guide_Book&#45;&gt;Guide_Book_js</title>
<path fill="none" stroke="#000000" d="M429.5558,-144.2022C435.2687,-135.8079 442.2009,-125.6218 448.5069,-116.3558"/>
<polygon fill="#000000" stroke="#000000" points="451.5679,-118.0789 454.3006,-107.8425 445.7809,-114.1405 451.5679,-118.0789"/>
</g>
<!-- searcher_js&#45;&gt;Elasticlunr_js -->
<g id="edge5" class="edge">
<title>searcher_js&#45;&gt;Elasticlunr_js</title>
<path fill="none" stroke="#000000" d="M235.5348,-75.7751C203.931,-64.5104 159.5442,-48.6894 125.208,-36.4507"/>
<polygon fill="#000000" stroke="#000000" points="125.9502,-32.9996 115.3555,-32.9389 123.5999,-39.5933 125.9502,-32.9996"/>
</g>
<!-- searcher_js&#45;&gt;Mark_js -->
<g id="edge6" class="edge">
<title>searcher_js&#45;&gt;Mark_js</title>
<path fill="none" stroke="#000000" d="M310.6618,-74.9064C337.4292,-63.4347 374.3102,-47.6285 402.4115,-35.5851"/>
<polygon fill="#000000" stroke="#000000" points="404.1414,-38.6517 411.9541,-31.4954 401.3839,-32.2177 404.1414,-38.6517"/>
</g>
<!-- searcher_js_example -->
<g id="node9" class="node">
<title>searcher_js_example</title>
<g id="a_node9"><a xlink:href="https://developer.holochain.org/guide/latest/first_steps.html?search=zome" xlink:title="searcher_js_example">
<ellipse fill="none" stroke="#000000" cx="271.4435" cy="-18" rx="106.6812" ry="18"/>
<text text-anchor="middle" x="271.4435" y="-14.3" font-family="Times,serif" font-size="14.00" fill="#000000">searcher_js_example</text>
</a>
</g>
</g>
<!-- searcher_js&#45;&gt;searcher_js_example -->
<g id="edge7" class="edge">
<title>searcher_js&#45;&gt;searcher_js_example</title>
<path fill="none" stroke="#000000" d="M274.4341,-71.8314C274.0063,-64.131 273.4976,-54.9743 273.0222,-46.4166"/>
<polygon fill="#000000" stroke="#000000" points="276.5158,-46.2037 272.4664,-36.4133 269.5266,-46.592 276.5158,-46.2037"/>
</g>
<!-- Guide_Book_js&#45;&gt;clipboard_js -->
<g id="edge9" class="edge">
<title>Guide_Book_js&#45;&gt;clipboard_js</title>
<path fill="none" stroke="#000000" d="M492.275,-72.937C507.0418,-63.1828 525.734,-50.8356 541.6556,-40.3186"/>
<polygon fill="#000000" stroke="#000000" points="543.7585,-43.1242 550.1734,-34.6921 539.9004,-37.2834 543.7585,-43.1242"/>
</g>
<!-- Guide_Book_js&#45;&gt;highlight_js -->
<g id="edge10" class="edge">
<title>Guide_Book_js&#45;&gt;highlight_js</title>
<path fill="none" stroke="#000000" d="M522.1832,-77.4586C579.1439,-64.6424 667.33,-44.8005 725.9553,-31.6098"/>
<polygon fill="#000000" stroke="#000000" points="726.8336,-34.9998 735.8213,-29.39 725.2969,-28.1705 726.8336,-34.9998"/>
</g>
<!-- HDK -->
<g id="node11" class="node">
<title>HDK</title>
<g id="a_node11"><a xlink:href="https://developer.holochain.org/api/latest/hdk/" xlink:title="HDK">
<ellipse fill="none" stroke="#000000" cx="1127.4435" cy="-162" rx="32.4942" ry="18"/>
<text text-anchor="middle" x="1127.4435" y="-158.3" font-family="Times,serif" font-size="14.00" fill="#000000">HDK</text>
</a>
</g>
</g>
<!-- HDK_storage_js -->
<g id="node12" class="node">
<title>HDK_storage_js</title>
<g id="a_node12"><a xlink:href="https://developer.holochain.org/api/latest/storage.js" xlink:title="HDK_storage_js">
<ellipse fill="none" stroke="#000000" cx="1302.4435" cy="-90" rx="84.485" ry="18"/>
<text text-anchor="middle" x="1302.4435" y="-86.3" font-family="Times,serif" font-size="14.00" fill="#000000">HDK_storage_js</text>
</a>
</g>
</g>
<!-- HDK&#45;&gt;HDK_storage_js -->
<g id="edge13" class="edge">
<title>HDK&#45;&gt;HDK_storage_js</title>
<path fill="none" stroke="#000000" d="M1153.6428,-151.2209C1180.1117,-140.3308 1221.6204,-123.2529 1254.0794,-109.8984"/>
<polygon fill="#000000" stroke="#000000" points="1255.4879,-113.1036 1263.404,-106.0619 1252.8244,-106.6301 1255.4879,-113.1036"/>
</g>
<!-- HDK_theme_js -->
<g id="node13" class="node">
<title>HDK_theme_js</title>
<g id="a_node13"><a xlink:href="https://developer.holochain.org/api/latest/theme.js" xlink:title="HDK_theme_js">
<ellipse fill="none" stroke="#000000" cx="1483.4435" cy="-90" rx="78.7863" ry="18"/>
<text text-anchor="middle" x="1483.4435" y="-86.3" font-family="Times,serif" font-size="14.00" fill="#000000">HDK_theme_js</text>
</a>
</g>
</g>
<!-- HDK&#45;&gt;HDK_theme_js -->
<g id="edge14" class="edge">
<title>HDK&#45;&gt;HDK_theme_js</title>
<path fill="none" stroke="#000000" d="M1158.3998,-155.7932C1208.3032,-145.7805 1309.6252,-125.4227 1395.4435,-108 1401.6615,-106.7376 1408.1259,-105.4218 1414.6013,-104.1015"/>
<polygon fill="#000000" stroke="#000000" points="1415.654,-107.4589 1424.7522,-102.03 1414.2543,-100.6003 1415.654,-107.4589"/>
</g>
<!-- HDK_aliases_js -->
<g id="node14" class="node">
<title>HDK_aliases_js</title>
<g id="a_node14"><a xlink:href="https://developer.holochain.org/api/latest/aliases.js" xlink:title="HDK_aliases_js">
<ellipse fill="none" stroke="#000000" cx="956.4435" cy="-90" rx="81.4863" ry="18"/>
<text text-anchor="middle" x="956.4435" y="-86.3" font-family="Times,serif" font-size="14.00" fill="#000000">HDK_aliases_js</text>
</a>
</g>
</g>
<!-- HDK&#45;&gt;HDK_aliases_js -->
<g id="edge15" class="edge">
<title>HDK&#45;&gt;HDK_aliases_js</title>
<path fill="none" stroke="#000000" d="M1101.4723,-151.0647C1075.6473,-140.1911 1035.438,-123.2609 1003.9019,-109.9825"/>
<polygon fill="#000000" stroke="#000000" points="1004.9934,-106.6445 994.4188,-105.9896 1002.2769,-113.096 1004.9934,-106.6445"/>
</g>
<!-- HDK_main_js -->
<g id="node15" class="node">
<title>HDK_main_js</title>
<g id="a_node15"><a xlink:href="https://developer.holochain.org/api/latest/main.js" xlink:title="HDK_main_js">
<ellipse fill="none" stroke="#000000" cx="1127.4435" cy="-90" rx="72.2875" ry="18"/>
<text text-anchor="middle" x="1127.4435" y="-86.3" font-family="Times,serif" font-size="14.00" fill="#000000">HDK_main_js</text>
</a>
</g>
</g>
<!-- HDK&#45;&gt;HDK_main_js -->
<g id="edge16" class="edge">
<title>HDK&#45;&gt;HDK_main_js</title>
<path fill="none" stroke="#000000" d="M1127.4435,-143.8314C1127.4435,-136.131 1127.4435,-126.9743 1127.4435,-118.4166"/>
<polygon fill="#000000" stroke="#000000" points="1130.9436,-118.4132 1127.4435,-108.4133 1123.9436,-118.4133 1130.9436,-118.4132"/>
</g>
<!-- HDK&#45;&gt;HDK_search_index_js -->
<g id="edge17" class="edge">
<title>HDK&#45;&gt;HDK_search_index_js</title>
<path fill="none" stroke="#000000" d="M1096.367,-156.6471C1033.3865,-145.7988 888.7531,-120.8859 795.2589,-104.7816"/>
<polygon fill="#000000" stroke="#000000" points="795.698,-101.3058 785.249,-103.0574 794.5097,-108.2042 795.698,-101.3058"/>
</g>
</g>
</svg>
